M48
;Layer_Color=9474304
;FILE_FORMAT=4:3
METRIC,TZ
;TYPE=PLATED
T1F00S00C0.300
T2F00S00C0.700
T4F00S00C0.762
T5F00S00C0.787
T7F00S00C0.800
T8F00S00C0.864
T9F00S00C0.900
T10F00S00C1.000
T11F00S00C1.016
T12F00S00C1.143
T13F00S00C1.200
T14F00S00C1.300
T15F00S00C3.200
;TYPE=NON_PLATED
T16F00S00C1.000
T17F00S00C1.300
%
T01
X120176Y63810
X119634Y66548
X119659Y68732
X127000Y71120
X132080
X137160
X136627Y74295
X134620Y76200
X139700
X142240Y71120
X147320
X147549Y65659
X147523Y63119
Y60528
X147549Y58014
X144780Y55880
X139700
X134620
X133553Y67158
X129540Y76200
X148666Y79045
X151308
X154940Y76200
Y66040
Y55880
X152400Y50800
X147320
X142240
X117621Y63779
X114833Y63856
X112310Y63743
X109550Y63805
X106988Y63887
X104242Y63779
X101675Y63771
X98908Y63805
X96370Y63666
X93603Y63824
X91059Y63754
X88900Y66040
X93091Y66548
X91059Y68707
X89378Y70532
X88290Y71730
X86360Y71120
X83820Y66040
X86360Y60960
X87351Y58928
X89383Y57023
X91440Y50800
X96520
X86360
X81280Y60960
X80823Y77394
X83842Y77876
X93566Y71801
X96365Y70606
X95148Y68707
X98425
X100381Y68732
X101746Y70606
X103759Y68707
X105664
X107057Y70606
X109017Y68707
X110998
X112297Y70575
X114376Y68707
X116129
X117668Y70589
X114300Y66548
X108966
X103759
X98425
X76200Y71120
X73660Y76200
X66040Y71120
X56994Y71730
X51054Y69469
X47701Y67285
X48260Y66040
X46961Y72060
X41453Y72517
Y73791
Y74879
Y75921
Y76937
Y77953
Y79019
X40030Y79048
Y77982
Y76966
Y75950
Y74908
Y73820
Y72546
X41173Y51613
X45720Y50800
X50800
X51740Y52984
X55880Y50800
X58420Y55880
X60960Y60960
X72716Y61595
X71954Y57302
Y56566
X71929Y55829
X66040Y50800
X75942Y48133
X31826Y51460
X30480Y50800
X33020Y66040
X37204Y72543
Y73817
Y74905
Y75947
Y76963
Y77979
Y79046
X38659Y79023
Y77956
Y76940
Y75924
Y74883
Y73794
Y72521
Y80141
X37204Y80163
X40030Y80166
X41453Y80137
X42672Y88011
X50404Y85661
X51190Y85703
X56867Y88849
X58420Y96520
X65884Y93396
X69850Y94691
X72552Y94798
X71272Y92879
X68438Y89376
X69342Y86843
X75577Y87069
X76593
X76622Y87729
Y88491
X75606
X77638
X77609Y87069
X75129Y99670
X72183Y102997
X69795Y98527
X60960Y111760
X58420Y116840
X58953Y80010
X64999Y80772
X80514Y82855
X83972Y83668
X86585Y85725
X85328Y88697
X82786Y88489
X88744Y90119
X90170Y89078
X91440Y91440
X96520
X96338Y95682
X94205Y98755
X94941Y102514
X100813Y101778
X102032Y100203
X102337Y98476
X105400Y100214
X104216Y103200
X104546Y109982
Y110769
Y111557
Y112344
X105410
Y111506
Y110769
Y109931
X100508Y109880
Y110668
Y111481
Y112268
Y113055
Y113843
X99682
Y113055
Y112268
Y111481
Y110668
Y109880
X98857
Y110668
Y111481
Y112268
Y113055
Y113843
X94484Y110490
X92935Y110769
X89115Y109815
X88439Y111150
X87296Y107620
X84096Y98349
X86763Y94869
X88900Y96520
X79981Y102159
X100051Y106578
X112319Y100127
X114372Y98069
X118132Y95072
X116840Y91440
X114630Y90602
X110668Y86893
X109601Y87681
X110261Y80823
X111760Y81280
X108073Y79858
X101342Y80924
X99924Y87452
X97942Y86792
X108890Y95733
X118974Y106096
X123495Y106909
X125269Y98958
X127737Y96977
X125171Y94590
X121590Y94539
X119173Y99060
X119888Y100178
X130175
X135734Y99162
X139268Y103429
X142494Y103124
X150100Y102870
X150038Y100254
X148412Y100203
X150165Y96139
X154940Y96520
X154686Y98044
X155092Y90094
Y88468
X155118Y85166
X150597Y83820
X149022Y85065
X147650Y85192
X147904Y86558
X150216Y88138
X152197Y90068
X153213Y89992
X143281Y90830
X141630Y88138
X139700Y86360
X134620
X134417Y90145
X132080Y91440
X127000
X129540Y86360
X120145Y82147
X119126Y89738
X142240Y81280
X145034Y95920
X148869Y105766
X151384Y106045
X149860Y116840
X154940
X144780
X138506Y111862
X135738Y108407
X135035
X134332
X133629
X131851Y111684
X137135Y122377
X147320Y121920
X152400
X86360
X81280
T02
X28448Y85065
Y92075
X37313Y112776
X44323
T04
X83795Y117348
X86335
X88392
X90932
X92989
X95529
Y119888
X92989
X90932
X88392
X86335
X83795
T05
X119761Y77343
X122301
X124841
X117221
X114681
X112141
X109601
X107061
X104521
X101981
X99441
X96901
X94361
X91821
X58242Y111201
Y113741
X55702
Y111201
X91821Y84963
X94361
X96901
X99441
X101981
X104521
X107061
X109601
X112141
X114681
X117221
X119761
X122301
X124841
T07
X48790Y95223
X51457
X56388Y95072
X61490Y95096
X65046Y99715
Y102215
T08
X80797Y51714
X78257
X75717
X73177
X70637
X144526Y112395
X147066
X149606
X152146
T09
X63369Y59588
Y62128
Y64668
Y67208
Y69748
X65909
Y67208
Y64668
Y62128
Y59588
X75739Y59461
Y62001
Y64541
Y67081
Y69621
X78279
Y67081
Y64541
Y62001
Y59461
X78613Y78232
X76073
X73533
X70993
Y80772
X73533
X76073
X78613
T10
X152679Y58064
Y60604
Y63144
Y65684
Y68224
Y70764
Y73304
X56181Y74651
X51101
X35357Y87782
X40437
T11
X62683Y106756
X65223
X154686Y106045
Y103505
T12
X32639Y96520
Y104140
X40259
Y96520
T13
X48612Y102514
X51152
X53692
X56232
X70104Y122530
X73914
X77724
T14
X123317Y52705
X128524
X133604
X118237
X113030
X107950
X102743
X97663
X92456
X87376
X120828Y122022
X125908
X115570
X110490
X105207
X100127
X43307Y121793
X38227
T15
X168834Y40157
X18618Y40081
X168834Y133807
X18567Y133909
T16
X136652Y86050
T17
X136652Y78550
M30
