G04*
G04 #@! TF.GenerationSoftware,Altium Limited,Altium Designer,20.2.6 (244)*
G04*
G04 Layer_Color=8421504*
%FSLAX43Y43*%
%MOMM*%
G71*
G04*
G04 #@! TF.SameCoordinates,50BE3A92-8E6F-42E2-A157-1F0C76B00AEB*
G04*
G04*
G04 #@! TF.FilePolarity,Positive*
G04*
G01*
G75*
%ADD28R,1.200X0.850*%
%ADD29R,1.000X1.397*%
%ADD30R,1.397X1.000*%
%ADD31R,2.000X0.600*%
%ADD32R,1.270X1.016*%
%ADD33R,1.200X1.500*%
%ADD34R,10.400X8.900*%
%ADD35R,1.250X4.400*%
%ADD36R,3.500X1.800*%
%ADD37R,1.500X1.300*%
%ADD38R,1.500X1.200*%
%ADD39R,1.600X0.550*%
%ADD40R,2.032X2.286*%
%ADD41R,1.300X1.500*%
%ADD42R,1.016X1.270*%
G04:AMPARAMS|DCode=43|XSize=1.01mm|YSize=0.27mm|CornerRadius=0.068mm|HoleSize=0mm|Usage=FLASHONLY|Rotation=270.000|XOffset=0mm|YOffset=0mm|HoleType=Round|Shape=RoundedRectangle|*
%AMROUNDEDRECTD43*
21,1,1.010,0.135,0,0,270.0*
21,1,0.875,0.270,0,0,270.0*
1,1,0.135,-0.068,-0.438*
1,1,0.135,-0.068,0.438*
1,1,0.135,0.068,0.438*
1,1,0.135,0.068,-0.438*
%
%ADD43ROUNDEDRECTD43*%
G04:AMPARAMS|DCode=44|XSize=1.01mm|YSize=0.27mm|CornerRadius=0.068mm|HoleSize=0mm|Usage=FLASHONLY|Rotation=0.000|XOffset=0mm|YOffset=0mm|HoleType=Round|Shape=RoundedRectangle|*
%AMROUNDEDRECTD44*
21,1,1.010,0.135,0,0,0.0*
21,1,0.875,0.270,0,0,0.0*
1,1,0.135,0.438,-0.068*
1,1,0.135,-0.438,-0.068*
1,1,0.135,-0.438,0.068*
1,1,0.135,0.438,0.068*
%
%ADD44ROUNDEDRECTD44*%
%ADD45R,4.000X2.500*%
%ADD46R,2.159X0.635*%
%ADD47R,0.550X1.600*%
%ADD48R,2.286X2.286*%
%ADD49R,1.778X1.778*%
%ADD50R,0.450X1.450*%
%ADD51R,0.600X2.200*%
%ADD52R,2.600X3.540*%
%ADD53R,2.600X3.660*%
%ADD54R,2.100X1.050*%
%ADD55R,10.300X10.500*%
%ADD56R,2.500X2.500*%
%ADD57R,1.600X1.600*%
%ADD58R,4.000X1.200*%
%ADD59R,0.800X1.000*%
%ADD60R,0.406X1.000*%
%ADD61R,4.000X6.000*%
G36*
X59953Y49569D02*
Y50719D01*
X61105D01*
Y49569D01*
X59953D01*
D02*
G37*
G36*
X59953Y51079D02*
Y52231D01*
X61105D01*
Y51079D01*
X59953D01*
D02*
G37*
G36*
X61465Y49569D02*
Y50719D01*
X62615D01*
Y49569D01*
X61465D01*
D02*
G37*
G36*
X61465Y51079D02*
Y52231D01*
X62615D01*
Y51079D01*
X61465D01*
D02*
G37*
D28*
X62286Y64516D02*
D03*
X59792Y63576D02*
D03*
X59786Y65466D02*
D03*
D29*
X62078Y69952D02*
D03*
X59792D02*
D03*
D30*
X56845Y69901D02*
D03*
Y67615D02*
D03*
X56744Y63271D02*
D03*
Y65557D02*
D03*
X70311Y75534D02*
D03*
Y77820D02*
D03*
X68355Y75534D02*
D03*
Y77820D02*
D03*
D31*
X66267Y60147D02*
D03*
Y61417D02*
D03*
Y62687D02*
D03*
Y63957D02*
D03*
Y65227D02*
D03*
Y66497D02*
D03*
Y67767D02*
D03*
Y69037D02*
D03*
X75567D02*
D03*
Y67767D02*
D03*
Y66497D02*
D03*
Y65227D02*
D03*
Y63957D02*
D03*
Y62687D02*
D03*
Y61417D02*
D03*
Y60147D02*
D03*
D32*
X66482Y25578D02*
D03*
Y27610D02*
D03*
X53756Y32817D02*
D03*
Y30785D02*
D03*
X53807Y27712D02*
D03*
Y25680D02*
D03*
X57445Y30785D02*
D03*
Y32817D02*
D03*
X57465Y28296D02*
D03*
Y26264D02*
D03*
X121029Y24791D02*
D03*
Y22759D02*
D03*
X121136Y29235D02*
D03*
Y27203D02*
D03*
X69940Y53797D02*
D03*
Y51765D02*
D03*
D33*
X110208Y65710D02*
D03*
X107808D02*
D03*
X118006D02*
D03*
X120406D02*
D03*
X134496Y15985D02*
D03*
X132096D02*
D03*
X100010Y65710D02*
D03*
X97610D02*
D03*
X102410Y24282D02*
D03*
X104810D02*
D03*
X97090D02*
D03*
X99490D02*
D03*
X91770D02*
D03*
X94170D02*
D03*
X88850D02*
D03*
X86450D02*
D03*
X83530D02*
D03*
X81130D02*
D03*
X78210D02*
D03*
X75810D02*
D03*
D34*
X120527Y84887D02*
D03*
D35*
X123067Y74737D02*
D03*
X117987D02*
D03*
D36*
X62636Y73749D02*
D03*
Y78549D02*
D03*
X56820D02*
D03*
Y73749D02*
D03*
D37*
X75535Y77368D02*
D03*
Y75468D02*
D03*
X73054Y77368D02*
D03*
Y75468D02*
D03*
X58425Y57866D02*
D03*
Y55966D02*
D03*
X80496Y77368D02*
D03*
Y75468D02*
D03*
X78016Y77368D02*
D03*
Y75468D02*
D03*
X139297Y63012D02*
D03*
Y61112D02*
D03*
X67397Y51557D02*
D03*
Y53457D02*
D03*
X63471Y57866D02*
D03*
Y55966D02*
D03*
X60948D02*
D03*
Y57866D02*
D03*
X55902D02*
D03*
Y55966D02*
D03*
D38*
X82859Y63252D02*
D03*
Y60852D02*
D03*
D39*
X85474Y63271D02*
D03*
Y60731D02*
D03*
X91774D02*
D03*
Y63271D02*
D03*
X122508Y63246D02*
D03*
Y60706D02*
D03*
X116208D02*
D03*
Y63246D02*
D03*
X95755Y63221D02*
D03*
Y60681D02*
D03*
X102055D02*
D03*
Y63221D02*
D03*
X106036Y63246D02*
D03*
Y60706D02*
D03*
X112336D02*
D03*
Y63246D02*
D03*
D40*
X122178Y69266D02*
D03*
X117707D02*
D03*
X84637Y69774D02*
D03*
X89107D02*
D03*
D41*
X53953Y52571D02*
D03*
X55853D02*
D03*
X32957Y48851D02*
D03*
X34857D02*
D03*
X53928Y47251D02*
D03*
X55828D02*
D03*
X55853Y49911D02*
D03*
X53953D02*
D03*
D42*
X133963Y21107D02*
D03*
X131931D02*
D03*
X133963Y23622D02*
D03*
X131931D02*
D03*
X133963Y26187D02*
D03*
X131931D02*
D03*
X133963Y28727D02*
D03*
X131931D02*
D03*
X133982Y18703D02*
D03*
X131950D02*
D03*
X88777Y66218D02*
D03*
X90809D02*
D03*
X59538Y35738D02*
D03*
X57506D02*
D03*
X72419Y28610D02*
D03*
X70387D02*
D03*
X72419Y26502D02*
D03*
X70387D02*
D03*
X72470Y30617D02*
D03*
X70438D02*
D03*
D43*
X62785Y53259D02*
D03*
X62285D02*
D03*
X61785D02*
D03*
X61285D02*
D03*
X60785D02*
D03*
X60285D02*
D03*
X59785D02*
D03*
Y48539D02*
D03*
X60285D02*
D03*
X60785D02*
D03*
X61285D02*
D03*
X61785D02*
D03*
X62285D02*
D03*
X62785D02*
D03*
D44*
X58925Y52399D02*
D03*
Y51899D02*
D03*
Y51399D02*
D03*
Y50899D02*
D03*
Y50399D02*
D03*
Y49899D02*
D03*
Y49399D02*
D03*
X63645D02*
D03*
Y49899D02*
D03*
Y50399D02*
D03*
Y50899D02*
D03*
Y51399D02*
D03*
Y51899D02*
D03*
Y52399D02*
D03*
D45*
X15345Y80485D02*
D03*
Y73235D02*
D03*
D46*
X84357Y76784D02*
D03*
Y75514D02*
D03*
Y74244D02*
D03*
Y72974D02*
D03*
X89945Y76784D02*
D03*
Y75514D02*
D03*
Y74244D02*
D03*
Y72974D02*
D03*
D47*
X102232Y26847D02*
D03*
X104772D02*
D03*
Y33147D02*
D03*
X102232D02*
D03*
X96918Y26847D02*
D03*
X99458D02*
D03*
Y33147D02*
D03*
X96918D02*
D03*
X91604Y26847D02*
D03*
X94144D02*
D03*
Y33147D02*
D03*
X91604D02*
D03*
X86290D02*
D03*
X88830D02*
D03*
Y26847D02*
D03*
X86290D02*
D03*
X80976D02*
D03*
X83516D02*
D03*
Y33147D02*
D03*
X80976D02*
D03*
X75662D02*
D03*
X78202D02*
D03*
Y26847D02*
D03*
X75662D02*
D03*
D48*
X109833Y25146D02*
D03*
Y30226D02*
D03*
X117961Y25146D02*
D03*
Y30226D02*
D03*
D49*
X135868Y42189D02*
D03*
Y39903D02*
D03*
X133201Y42189D02*
D03*
Y39903D02*
D03*
X130280Y42189D02*
D03*
Y39903D02*
D03*
D50*
X132353Y51197D02*
D03*
X133003D02*
D03*
X133653D02*
D03*
X134303D02*
D03*
Y46897D02*
D03*
X133653D02*
D03*
X133003D02*
D03*
X132353D02*
D03*
D51*
X127105Y58988D02*
D03*
X128375D02*
D03*
X129645D02*
D03*
X130915D02*
D03*
X132185D02*
D03*
X133455D02*
D03*
X134725D02*
D03*
X135995D02*
D03*
X127105Y69078D02*
D03*
X128375D02*
D03*
X129645D02*
D03*
X130915D02*
D03*
X132185D02*
D03*
X133455D02*
D03*
X134725D02*
D03*
X135995D02*
D03*
D52*
X121263Y37388D02*
D03*
D53*
Y53188D02*
D03*
D54*
X13212Y42926D02*
D03*
Y39526D02*
D03*
Y36126D02*
D03*
Y37826D02*
D03*
Y41226D02*
D03*
D55*
X23600Y39522D02*
D03*
D56*
X40919Y48844D02*
D03*
X46819D02*
D03*
D57*
X69018Y32817D02*
D03*
X71908D02*
D03*
D58*
X95940Y53721D02*
D03*
X107370D02*
D03*
D59*
X139729Y46584D02*
D03*
X136834D02*
D03*
Y48209D02*
D03*
X139729D02*
D03*
X136808Y53162D02*
D03*
X139704D02*
D03*
Y51537D02*
D03*
X136808D02*
D03*
D60*
X138688Y46584D02*
D03*
X137875D02*
D03*
Y48209D02*
D03*
X138688D02*
D03*
X137850Y53162D02*
D03*
X138662D02*
D03*
Y51537D02*
D03*
X137850D02*
D03*
D61*
X30847Y24155D02*
D03*
X41847D02*
D03*
X24271D02*
D03*
X13271D02*
D03*
M02*
