G04*
G04 #@! TF.GenerationSoftware,Altium Limited,Altium Designer,20.2.6 (244)*
G04*
G04 Layer_Color=32896*
%FSLAX43Y43*%
%MOMM*%
G71*
G04*
G04 #@! TF.SameCoordinates,50BE3A92-8E6F-42E2-A157-1F0C76B00AEB*
G04*
G04*
G04 #@! TF.FilePolarity,Positive*
G04*
G01*
G75*
%ADD23C,0.100*%
D23*
X58525Y85098D02*
Y85598D01*
X58025D02*
X58525D01*
Y86098D01*
Y85598D02*
X59025D01*
X54715Y85098D02*
Y85598D01*
X54215D02*
X54715D01*
Y86098D01*
Y85598D02*
X55215D01*
X62335Y85098D02*
Y85598D01*
X61835D02*
X62335D01*
Y86098D01*
Y85598D02*
X62835D01*
X95101Y85090D02*
X95601D01*
X95101D02*
Y85590D01*
X94601Y85090D02*
X95101D01*
Y84590D02*
Y85090D01*
X100181D02*
X100681D01*
X100181D02*
Y85590D01*
X99681Y85090D02*
X100181D01*
Y84590D02*
Y85090D01*
X97641D02*
X98141D01*
X97641D02*
Y85590D01*
X97141Y85090D02*
X97641D01*
Y84590D02*
Y85090D01*
X97141Y15773D02*
X97641D01*
Y15273D02*
Y15773D01*
X98141D01*
X97641D02*
Y16273D01*
X92061Y15773D02*
X92561D01*
Y15273D02*
Y15773D01*
X93061D01*
X92561D02*
Y16273D01*
X94601Y15773D02*
X95101D01*
Y15273D02*
Y15773D01*
X95601D01*
X95101D02*
Y16273D01*
X84738Y85090D02*
X85238D01*
X84738D02*
Y85590D01*
X84238Y85090D02*
X84738D01*
Y84590D02*
Y85090D01*
X89818D02*
X90318D01*
X89818D02*
Y85590D01*
X89318Y85090D02*
X89818D01*
Y84590D02*
Y85090D01*
X87278D02*
X87778D01*
X87278D02*
Y85590D01*
X86778Y85090D02*
X87278D01*
Y84590D02*
Y85090D01*
X105439D02*
X105939D01*
X105439D02*
Y85590D01*
X104939Y85090D02*
X105439D01*
Y84590D02*
Y85090D01*
X110519D02*
X111019D01*
X110519D02*
Y85590D01*
X110019Y85090D02*
X110519D01*
Y84590D02*
Y85090D01*
X107979D02*
X108479D01*
X107979D02*
Y85590D01*
X107479Y85090D02*
X107979D01*
Y84590D02*
Y85090D01*
X115675Y15773D02*
Y16273D01*
Y15773D02*
X116175D01*
X115675Y15273D02*
Y15773D01*
X115175D02*
X115675D01*
X113135D02*
Y16273D01*
Y15773D02*
X113635D01*
X113135Y15273D02*
Y15773D01*
X112635D02*
X113135D01*
X118215D02*
Y16273D01*
Y15773D02*
X118715D01*
X118215Y15273D02*
Y15773D01*
X117715D02*
X118215D01*
X105388D02*
Y16273D01*
Y15773D02*
X105888D01*
X105388Y15273D02*
Y15773D01*
X104888D02*
X105388D01*
X102848D02*
Y16273D01*
Y15773D02*
X103348D01*
X102848Y15273D02*
Y15773D01*
X102348D02*
X102848D01*
X107928D02*
Y16273D01*
Y15773D02*
X108428D01*
X107928Y15273D02*
Y15773D01*
X107428D02*
X107928D01*
X84814D02*
Y16273D01*
Y15773D02*
X85314D01*
X84814Y15273D02*
Y15773D01*
X84314D02*
X84814D01*
X82274D02*
Y16273D01*
Y15773D02*
X82774D01*
X82274Y15273D02*
Y15773D01*
X81774D02*
X82274D01*
X87354D02*
Y16273D01*
Y15773D02*
X87854D01*
X87354Y15273D02*
Y15773D01*
X86854D02*
X87354D01*
X74527D02*
Y16273D01*
Y15773D02*
X75027D01*
X74527Y15273D02*
Y15773D01*
X74027D02*
X74527D01*
X71987D02*
Y16273D01*
Y15773D02*
X72487D01*
X71987Y15273D02*
Y15773D01*
X71487D02*
X71987D01*
X77067D02*
Y16273D01*
Y15773D02*
X77567D01*
X77067Y15273D02*
Y15773D01*
X76567D02*
X77067D01*
X25378Y84361D02*
Y84861D01*
X24878D02*
X25378D01*
Y85361D01*
Y84861D02*
X25878D01*
X27918Y84361D02*
Y84861D01*
X27418D02*
X27918D01*
Y85361D01*
Y84861D02*
X28418D01*
X22838Y84361D02*
Y84861D01*
X22338D02*
X22838D01*
Y85361D01*
Y84861D02*
X23338D01*
M02*
