G04*
G04 #@! TF.GenerationSoftware,Altium Limited,Altium Designer,20.2.6 (244)*
G04*
G04 Layer_Color=8388736*
%FSLAX43Y43*%
%MOMM*%
G71*
G04*
G04 #@! TF.SameCoordinates,50BE3A92-8E6F-42E2-A157-1F0C76B00AEB*
G04*
G04*
G04 #@! TF.FilePolarity,Positive*
G04*
G01*
G75*
%ADD23C,0.100*%
%ADD26C,0.150*%
D23*
X74167Y60442D02*
G03*
X74167Y60442I-500J0D01*
G01*
X53815Y87898D02*
G03*
X55615Y87898I900J1200D01*
G01*
X53861Y88032D02*
G03*
X55570Y88032I854J1066D01*
G01*
X54115Y82928D02*
G03*
X54315Y83128I0J200D01*
G01*
X55115D02*
G03*
X55315Y82928I200J0D01*
G01*
X53838Y87965D02*
G03*
X53815Y87898I8709J-2977D01*
G01*
X55593Y87965D02*
G03*
X55570Y88032I-8049J-2751D01*
G01*
X57625Y87898D02*
G03*
X59425Y87898I900J1200D01*
G01*
X57671Y88032D02*
G03*
X59380Y88032I854J1066D01*
G01*
X57925Y82928D02*
G03*
X58125Y83128I0J200D01*
G01*
X58925D02*
G03*
X59125Y82928I200J0D01*
G01*
X57648Y87965D02*
G03*
X57625Y87898I8709J-2977D01*
G01*
X59403Y87965D02*
G03*
X59380Y88032I-8049J-2751D01*
G01*
X61435Y87898D02*
G03*
X63235Y87898I900J1200D01*
G01*
X61481Y88032D02*
G03*
X63190Y88032I854J1066D01*
G01*
X61735Y82928D02*
G03*
X61935Y83128I0J200D01*
G01*
X62735D02*
G03*
X62935Y82928I200J0D01*
G01*
X61458Y87965D02*
G03*
X61435Y87898I8709J-2977D01*
G01*
X63213Y87965D02*
G03*
X63190Y88032I-8049J-2751D01*
G01*
X62835Y86223D02*
G03*
X62835Y84974I-500J-624D01*
G01*
X87924Y63151D02*
G03*
X87924Y63151I-500J0D01*
G01*
X102073Y85290D02*
G03*
X102073Y85290I-1891J0D01*
G01*
X96993D02*
G03*
X96993Y85290I-1891J0D01*
G01*
X98141Y83990D02*
G03*
X98141Y83990I-500J0D01*
G01*
X102181Y85290D02*
G03*
X102181Y85290I-2000J0D01*
G01*
X97101D02*
G03*
X97101Y85290I-2000J0D01*
G01*
X118658Y63126D02*
G03*
X118658Y63126I-500J0D01*
G01*
X94453Y15573D02*
G03*
X94453Y15573I-1891J0D01*
G01*
X99533D02*
G03*
X99533Y15573I-1891J0D01*
G01*
X95601Y16873D02*
G03*
X95601Y16873I-500J0D01*
G01*
X94561Y15573D02*
G03*
X94561Y15573I-2000J0D01*
G01*
X99641D02*
G03*
X99641Y15573I-2000J0D01*
G01*
X91710Y85290D02*
G03*
X91710Y85290I-1891J0D01*
G01*
X86630D02*
G03*
X86630Y85290I-1891J0D01*
G01*
X87778Y83990D02*
G03*
X87778Y83990I-500J0D01*
G01*
X91818Y85290D02*
G03*
X91818Y85290I-2000J0D01*
G01*
X86738D02*
G03*
X86738Y85290I-2000J0D01*
G01*
X112411D02*
G03*
X112411Y85290I-1891J0D01*
G01*
X107331D02*
G03*
X107331Y85290I-1891J0D01*
G01*
X108479Y83990D02*
G03*
X108479Y83990I-500J0D01*
G01*
X112519Y85290D02*
G03*
X112519Y85290I-2000J0D01*
G01*
X107439D02*
G03*
X107439Y85290I-2000J0D01*
G01*
X98205Y63101D02*
G03*
X98205Y63101I-500J0D01*
G01*
X102852Y28797D02*
G03*
X102852Y28797I-500J0D01*
G01*
X97538D02*
G03*
X97538Y28797I-500J0D01*
G01*
X92224D02*
G03*
X92224Y28797I-500J0D01*
G01*
X86910D02*
G03*
X86910Y28797I-500J0D01*
G01*
X81596D02*
G03*
X81596Y28797I-500J0D01*
G01*
X76282D02*
G03*
X76282Y28797I-500J0D01*
G01*
X120215Y15573D02*
G03*
X120215Y15573I-2000J0D01*
G01*
X115135D02*
G03*
X115135Y15573I-2000J0D01*
G01*
X116175Y16873D02*
G03*
X116175Y16873I-500J0D01*
G01*
X120107Y15573D02*
G03*
X120107Y15573I-1891J0D01*
G01*
X115027D02*
G03*
X115027Y15573I-1891J0D01*
G01*
X109928D02*
G03*
X109928Y15573I-2000J0D01*
G01*
X104848D02*
G03*
X104848Y15573I-2000J0D01*
G01*
X105888Y16873D02*
G03*
X105888Y16873I-500J0D01*
G01*
X109820Y15573D02*
G03*
X109820Y15573I-1891J0D01*
G01*
X104740D02*
G03*
X104740Y15573I-1891J0D01*
G01*
X89354D02*
G03*
X89354Y15573I-2000J0D01*
G01*
X84274D02*
G03*
X84274Y15573I-2000J0D01*
G01*
X85314Y16873D02*
G03*
X85314Y16873I-500J0D01*
G01*
X89246Y15573D02*
G03*
X89246Y15573I-1891J0D01*
G01*
X84166D02*
G03*
X84166Y15573I-1891J0D01*
G01*
X79067D02*
G03*
X79067Y15573I-2000J0D01*
G01*
X73987D02*
G03*
X73987Y15573I-2000J0D01*
G01*
X75027Y16873D02*
G03*
X75027Y16873I-500J0D01*
G01*
X78959Y15573D02*
G03*
X78959Y15573I-1891J0D01*
G01*
X73879D02*
G03*
X73879Y15573I-1891J0D01*
G01*
X108486Y63126D02*
G03*
X108486Y63126I-500J0D01*
G01*
X24838Y85061D02*
G03*
X24838Y85061I-2000J0D01*
G01*
X29918D02*
G03*
X29918Y85061I-2000J0D01*
G01*
X25878Y83761D02*
G03*
X25878Y83761I-500J0D01*
G01*
X24730Y85061D02*
G03*
X24730Y85061I-1891J0D01*
G01*
X29810D02*
G03*
X29810Y85061I-1891J0D01*
G01*
X74667Y59442D02*
Y69742D01*
X67167Y59442D02*
X74667D01*
X67167D02*
Y69742D01*
X74667D01*
X64935Y81348D02*
Y88598D01*
X53010Y81598D02*
Y81698D01*
Y88032D02*
X53861D01*
X53010Y83598D02*
X54315D01*
X56420Y83464D02*
Y88032D01*
X53010Y87898D02*
X53815D01*
X55570Y88032D02*
X56420D01*
X55615Y87898D02*
X56420D01*
X53010Y83464D02*
Y88032D01*
Y81698D02*
X53011D01*
X56419D01*
X53010Y81598D02*
X53011D01*
X55115Y83464D02*
X56420D01*
X55970Y82928D02*
X56205Y82248D01*
X53225D02*
X56205D01*
X53225D02*
X53460Y82928D01*
X53010Y83464D02*
X54315D01*
X55115Y83128D02*
Y83598D01*
X54315Y83128D02*
Y83598D01*
X53460Y82928D02*
X55970D01*
X55115Y83598D02*
X56420D01*
X53838Y87965D02*
X53850Y87999D01*
X53861Y88032D01*
X55593Y87965D02*
X55604Y87932D01*
X55615Y87898D01*
X54315Y85198D02*
X55115D01*
X54315D02*
Y85998D01*
X55115D01*
Y85198D02*
Y85998D01*
X56419Y81598D02*
X56419D01*
X56419Y81698D02*
X56419D01*
Y81598D02*
Y81698D01*
X56820Y81598D02*
Y81698D01*
Y88032D02*
X57671D01*
X56820Y83598D02*
X58125D01*
X60230Y83464D02*
Y88032D01*
X56820Y87898D02*
X57625D01*
X59380Y88032D02*
X60230D01*
X59425Y87898D02*
X60230D01*
X56820Y83464D02*
Y88032D01*
X56620Y85598D02*
X56808Y86298D01*
X56433D02*
X56620Y85598D01*
X56820Y81698D02*
X56821D01*
X60229D01*
X56820Y81598D02*
X56821D01*
X58925Y83464D02*
X60230D01*
X59780Y82928D02*
X60015Y82248D01*
X57035D02*
X60015D01*
X57035D02*
X57270Y82928D01*
X56820Y83464D02*
X58125D01*
X58925Y83128D02*
Y83598D01*
X58125Y83128D02*
Y83598D01*
X57270Y82928D02*
X59780D01*
X58925Y83598D02*
X60230D01*
X56433Y86298D02*
X56808D01*
X57648Y87965D02*
X57660Y87999D01*
X57671Y88032D01*
X59403Y87965D02*
X59414Y87932D01*
X59425Y87898D01*
X58125Y85198D02*
X58925D01*
X58125D02*
Y85998D01*
X58925D01*
Y85198D02*
Y85998D01*
X60229Y81598D02*
X60229D01*
X60229Y81698D02*
X60229D01*
Y81598D02*
Y81698D01*
X60630Y81598D02*
Y81698D01*
Y88032D02*
X61481D01*
X60630Y83598D02*
X61935D01*
X64040Y83464D02*
Y88032D01*
X60630Y87898D02*
X61435D01*
X63190Y88032D02*
X64040D01*
X63235Y87898D02*
X64040D01*
X60630Y83464D02*
Y88032D01*
X60430Y85598D02*
X60618Y86298D01*
X60243D02*
X60430Y85598D01*
X60630Y81698D02*
X60631D01*
X64039D01*
X60630Y81598D02*
X60631D01*
X62735Y83464D02*
X64040D01*
X63590Y82928D02*
X63825Y82248D01*
X60845D02*
X63825D01*
X60845D02*
X61080Y82928D01*
X60630Y83464D02*
X61935D01*
X62735Y83128D02*
Y83598D01*
X61935Y83128D02*
Y83598D01*
X61080Y82928D02*
X63590D01*
X62735Y83598D02*
X64040D01*
X60243Y86298D02*
X60618D01*
X61458Y87965D02*
X61470Y87999D01*
X61481Y88032D01*
X63213Y87965D02*
X63224Y87932D01*
X63235Y87898D01*
X62835Y84974D02*
Y86223D01*
X61935Y85198D02*
X62735D01*
X61935D02*
Y85998D01*
X62735D01*
Y85198D02*
Y85998D01*
X64039Y81598D02*
X64039D01*
X64039Y81698D02*
X64039D01*
Y81598D02*
Y81698D01*
X52115Y81348D02*
Y88598D01*
Y81598D02*
X64935D01*
X52115Y88598D02*
X64935D01*
X52115Y81348D02*
X64935D01*
X86424Y59851D02*
X90824D01*
Y64151D01*
X86424D02*
X90824D01*
X86424Y59851D02*
Y64151D01*
X92561Y79890D02*
X102721D01*
X92561D02*
Y89690D01*
X102721D01*
Y79890D02*
Y89690D01*
Y88421D02*
X102889D01*
X103121Y88226D01*
X103462D01*
Y89154D01*
X103121D02*
X103462D01*
X102889Y88959D02*
X103121Y89154D01*
X102721Y88959D02*
X102889D01*
X92561Y89190D02*
X102721D01*
X92561Y83181D02*
X102721D01*
X92561Y87373D02*
X102721D01*
X99032Y83787D02*
X101684Y86439D01*
X98679Y84141D02*
X101330Y86793D01*
X93952Y83787D02*
X96604Y86439D01*
X93599Y84141D02*
X96250Y86793D01*
X92561Y82800D02*
X102721D01*
X92561Y87762D02*
X102721D01*
X117158Y59826D02*
Y64126D01*
X121558D01*
Y59826D02*
Y64126D01*
X117158Y59826D02*
X121558D01*
X90021Y20973D02*
X100181D01*
Y11173D02*
Y20973D01*
X90021Y11173D02*
X100181D01*
X90021D02*
Y20973D01*
X89854Y12443D02*
X90021D01*
X89622Y12637D02*
X89854Y12443D01*
X89280Y12637D02*
X89622D01*
X89280Y11709D02*
Y12637D01*
Y11709D02*
X89622D01*
X89854Y11904D01*
X90021D01*
Y11673D02*
X100181D01*
X90021Y17683D02*
X100181D01*
X90021Y13490D02*
X100181D01*
X91059Y14424D02*
X93710Y17076D01*
X91412Y14071D02*
X94064Y16722D01*
X96139Y14424D02*
X98790Y17076D01*
X96492Y14071D02*
X99144Y16722D01*
X90021Y18063D02*
X100181D01*
X90021Y13101D02*
X100181D01*
X82198Y79890D02*
X92358D01*
X82198D02*
Y89690D01*
X92358D01*
Y79890D02*
Y89690D01*
Y88421D02*
X92526D01*
X92757Y88226D01*
X93099D01*
Y89154D01*
X92757D02*
X93099D01*
X92526Y88959D02*
X92757Y89154D01*
X92358Y88959D02*
X92526D01*
X82198Y89190D02*
X92358D01*
X82198Y83181D02*
X92358D01*
X82198Y87373D02*
X92358D01*
X88669Y83787D02*
X91321Y86439D01*
X88316Y84141D02*
X90967Y86793D01*
X83589Y83787D02*
X86241Y86439D01*
X83236Y84141D02*
X85887Y86793D01*
X82198Y82800D02*
X92358D01*
X82198Y87762D02*
X92358D01*
X102899Y79890D02*
X113059D01*
X102899D02*
Y89690D01*
X113059D01*
Y79890D02*
Y89690D01*
Y88421D02*
X113227D01*
X113458Y88226D01*
X113800D01*
Y89154D01*
X113458D02*
X113800D01*
X113227Y88959D02*
X113458Y89154D01*
X113059Y88959D02*
X113227D01*
X102899Y89190D02*
X113059D01*
X102899Y83181D02*
X113059D01*
X102899Y87373D02*
X113059D01*
X109370Y83787D02*
X112022Y86439D01*
X109017Y84141D02*
X111668Y86793D01*
X104290Y83787D02*
X106942Y86439D01*
X103937Y84141D02*
X106588Y86793D01*
X102899Y82800D02*
X113059D01*
X102899Y87762D02*
X113059D01*
X96705Y59801D02*
X101105D01*
Y64101D01*
X96705D02*
X101105D01*
X96705Y59801D02*
Y64101D01*
X105652Y27797D02*
Y32197D01*
X101352D02*
X105652D01*
X101352Y27797D02*
Y32197D01*
Y27797D02*
X105652D01*
X100338D02*
Y32197D01*
X96038D02*
X100338D01*
X96038Y27797D02*
Y32197D01*
Y27797D02*
X100338D01*
X95024D02*
Y32197D01*
X90724D02*
X95024D01*
X90724Y27797D02*
Y32197D01*
Y27797D02*
X95024D01*
X85410D02*
X89710D01*
X85410D02*
Y32197D01*
X89710D01*
Y27797D02*
Y32197D01*
X84396Y27797D02*
Y32197D01*
X80096D02*
X84396D01*
X80096Y27797D02*
Y32197D01*
Y27797D02*
X84396D01*
X74782D02*
X79082D01*
X74782D02*
Y32197D01*
X79082D01*
Y27797D02*
Y32197D01*
X110595Y13101D02*
X120755D01*
X110595Y18063D02*
X120755D01*
X117066Y14071D02*
X119718Y16722D01*
X116713Y14424D02*
X119364Y17076D01*
X111986Y14071D02*
X114638Y16722D01*
X111633Y14424D02*
X114284Y17076D01*
X110595Y13490D02*
X120755D01*
X110595Y17683D02*
X120755D01*
X110595Y11673D02*
X120755D01*
X110428Y11904D02*
X110595D01*
X110196Y11709D02*
X110428Y11904D01*
X109854Y11709D02*
X110196D01*
X109854D02*
Y12637D01*
X110196D01*
X110428Y12443D01*
X110595D01*
Y11173D02*
Y20973D01*
Y11173D02*
X120755D01*
Y20973D01*
X110595D02*
X120755D01*
X100308Y13101D02*
X110468D01*
X100308Y18063D02*
X110468D01*
X106779Y14071D02*
X109431Y16722D01*
X106426Y14424D02*
X109077Y17076D01*
X101699Y14071D02*
X104351Y16722D01*
X101346Y14424D02*
X103997Y17076D01*
X100308Y13490D02*
X110468D01*
X100308Y17683D02*
X110468D01*
X100308Y11673D02*
X110468D01*
X100141Y11904D02*
X100308D01*
X99909Y11709D02*
X100141Y11904D01*
X99567Y11709D02*
X99909D01*
X99567D02*
Y12637D01*
X99909D01*
X100141Y12443D01*
X100308D01*
Y11173D02*
Y20973D01*
Y11173D02*
X110468D01*
Y20973D01*
X100308D02*
X110468D01*
X79734Y13101D02*
X89894D01*
X79734Y18063D02*
X89894D01*
X86205Y14071D02*
X88857Y16722D01*
X85852Y14424D02*
X88503Y17076D01*
X81125Y14071D02*
X83777Y16722D01*
X80772Y14424D02*
X83423Y17076D01*
X79734Y13490D02*
X89894D01*
X79734Y17683D02*
X89894D01*
X79734Y11673D02*
X89894D01*
X79567Y11904D02*
X79734D01*
X79335Y11709D02*
X79567Y11904D01*
X78993Y11709D02*
X79335D01*
X78993D02*
Y12637D01*
X79335D01*
X79567Y12443D01*
X79734D01*
Y11173D02*
Y20973D01*
Y11173D02*
X89894D01*
Y20973D01*
X79734D02*
X89894D01*
X69447Y13101D02*
X79607D01*
X69447Y18063D02*
X79607D01*
X75918Y14071D02*
X78570Y16722D01*
X75565Y14424D02*
X78216Y17076D01*
X70838Y14071D02*
X73490Y16722D01*
X70485Y14424D02*
X73136Y17076D01*
X69447Y13490D02*
X79607D01*
X69447Y17683D02*
X79607D01*
X69447Y11673D02*
X79607D01*
X69280Y11904D02*
X69447D01*
X69048Y11709D02*
X69280Y11904D01*
X68706Y11709D02*
X69048D01*
X68706D02*
Y12637D01*
X69048D01*
X69280Y12443D01*
X69447D01*
Y11173D02*
Y20973D01*
Y11173D02*
X79607D01*
Y20973D01*
X69447D02*
X79607D01*
X131828Y47647D02*
X131928Y47547D01*
X131828Y47747D02*
X132028Y47547D01*
X131828Y47847D02*
X132128Y47547D01*
X131828Y47947D02*
X132228Y47547D01*
X131828Y48047D02*
X132328Y47547D01*
X131828Y48147D02*
X132428Y47547D01*
X131828Y48247D02*
X132528Y47547D01*
X131828Y48347D02*
X132628Y47547D01*
X131828Y48447D02*
X132728Y47547D01*
X131828Y48547D02*
X132828Y47547D01*
X131828D02*
X134828D01*
X131828D02*
Y50547D01*
X134828D01*
Y47547D02*
Y50547D01*
X106986Y59826D02*
X111386D01*
Y64126D01*
X106986D02*
X111386D01*
X106986Y59826D02*
Y64126D01*
X20298Y87534D02*
X30458D01*
X20298Y82572D02*
X30458D01*
X21336Y83912D02*
X23987Y86564D01*
X21689Y83559D02*
X24341Y86210D01*
X26416Y83912D02*
X29067Y86564D01*
X26769Y83559D02*
X29421Y86210D01*
X20298Y87144D02*
X30458D01*
X20298Y82952D02*
X30458D01*
X20298Y88961D02*
X30458D01*
Y88730D02*
X30626D01*
X30858Y88925D01*
X31199D01*
Y87997D02*
Y88925D01*
X30858Y87997D02*
X31199D01*
X30626Y88192D02*
X30858Y87997D01*
X30458Y88192D02*
X30626D01*
X30458Y79661D02*
Y89461D01*
X20298D02*
X30458D01*
X20298Y79661D02*
Y89461D01*
Y79661D02*
X30458D01*
X133061Y66338D02*
X134661D01*
X133061Y65538D02*
Y66338D01*
Y65538D02*
X134661D01*
Y66338D01*
X133607Y65938D02*
X134115D01*
X133861Y65684D02*
Y66192D01*
X133036Y63671D02*
X134636D01*
X133036Y62871D02*
Y63671D01*
Y62871D02*
X134636D01*
Y63671D01*
X133582Y63271D02*
X134090D01*
X133836Y63017D02*
Y63525D01*
D26*
X95371Y81459D02*
Y81410D01*
X95322Y81313D01*
X95274Y81265D01*
X95177Y81217D01*
X94984D01*
X94887Y81265D01*
X94838Y81313D01*
X94790Y81410D01*
Y81507D01*
X94838Y81604D01*
X94935Y81749D01*
X95419Y82232D01*
X94742D01*
X100340Y81410D02*
X100243Y81362D01*
X100098Y81217D01*
Y82232D01*
X97372Y19405D02*
Y19453D01*
X97421Y19550D01*
X97469Y19598D01*
X97566Y19647D01*
X97759D01*
X97856Y19598D01*
X97904Y19550D01*
X97953Y19453D01*
Y19356D01*
X97904Y19260D01*
X97808Y19115D01*
X97324Y18631D01*
X98001D01*
X92403Y19453D02*
X92499Y19502D01*
X92645Y19647D01*
Y18631D01*
X85007Y81459D02*
Y81410D01*
X84959Y81313D01*
X84911Y81265D01*
X84814Y81217D01*
X84620D01*
X84524Y81265D01*
X84475Y81313D01*
X84427Y81410D01*
Y81507D01*
X84475Y81604D01*
X84572Y81749D01*
X85056Y82232D01*
X84379D01*
X89977Y81410D02*
X89880Y81362D01*
X89735Y81217D01*
Y82232D01*
X105708Y81459D02*
Y81410D01*
X105660Y81313D01*
X105612Y81265D01*
X105515Y81217D01*
X105321D01*
X105225Y81265D01*
X105176Y81313D01*
X105128Y81410D01*
Y81507D01*
X105176Y81604D01*
X105273Y81749D01*
X105757Y82232D01*
X105080D01*
X110678Y81410D02*
X110581Y81362D01*
X110436Y81217D01*
Y82232D01*
X112977Y19453D02*
X113073Y19502D01*
X113219Y19647D01*
Y18631D01*
X117946Y19405D02*
Y19453D01*
X117995Y19550D01*
X118043Y19598D01*
X118140Y19647D01*
X118333D01*
X118430Y19598D01*
X118478Y19550D01*
X118527Y19453D01*
Y19356D01*
X118478Y19260D01*
X118382Y19115D01*
X117898Y18631D01*
X118575D01*
X102690Y19453D02*
X102786Y19502D01*
X102932Y19647D01*
Y18631D01*
X107659Y19405D02*
Y19453D01*
X107708Y19550D01*
X107756Y19598D01*
X107853Y19647D01*
X108046D01*
X108143Y19598D01*
X108191Y19550D01*
X108240Y19453D01*
Y19356D01*
X108191Y19260D01*
X108095Y19115D01*
X107611Y18631D01*
X108288D01*
X82116Y19453D02*
X82212Y19502D01*
X82358Y19647D01*
Y18631D01*
X87085Y19405D02*
Y19453D01*
X87134Y19550D01*
X87182Y19598D01*
X87279Y19647D01*
X87472D01*
X87569Y19598D01*
X87617Y19550D01*
X87666Y19453D01*
Y19356D01*
X87617Y19260D01*
X87521Y19115D01*
X87037Y18631D01*
X87714D01*
X71829Y19453D02*
X71925Y19502D01*
X72071Y19647D01*
Y18631D01*
X76798Y19405D02*
Y19453D01*
X76847Y19550D01*
X76895Y19598D01*
X76992Y19647D01*
X77185D01*
X77282Y19598D01*
X77330Y19550D01*
X77379Y19453D01*
Y19356D01*
X77330Y19260D01*
X77234Y19115D01*
X76750Y18631D01*
X77427D01*
X28077Y81182D02*
X27980Y81133D01*
X27835Y80988D01*
Y82004D01*
X23108Y81230D02*
Y81182D01*
X23059Y81085D01*
X23011Y81036D01*
X22914Y80988D01*
X22721D01*
X22624Y81036D01*
X22575Y81085D01*
X22527Y81182D01*
Y81278D01*
X22575Y81375D01*
X22672Y81520D01*
X23156Y82004D01*
X22479D01*
M02*
