G04*
G04 #@! TF.GenerationSoftware,Altium Limited,Altium Designer,20.2.6 (244)*
G04*
G04 Layer_Color=128*
%FSLAX43Y43*%
%MOMM*%
G71*
G04*
G04 #@! TF.SameCoordinates,50BE3A92-8E6F-42E2-A157-1F0C76B00AEB*
G04*
G04*
G04 #@! TF.FilePolarity,Positive*
G04*
G01*
G75*
%ADD30R,1.397X1.000*%
%ADD32R,1.270X1.016*%
%ADD37R,1.500X1.300*%
%ADD41R,1.300X1.500*%
%ADD42R,1.016X1.270*%
%ADD56R,2.500X2.500*%
%ADD160R,1.270X1.651*%
%ADD161R,1.524X1.651*%
%ADD162R,1.800X2.000*%
%ADD163R,1.651X1.270*%
%ADD164R,2.000X1.800*%
%ADD165R,2.500X2.500*%
%ADD166R,1.200X1.200*%
%ADD167R,0.850X1.200*%
%ADD168R,4.000X1.100*%
G04:AMPARAMS|DCode=169|XSize=1.1mm|YSize=4mm|CornerRadius=0mm|HoleSize=0mm|Usage=FLASHONLY|Rotation=270.000|XOffset=0mm|YOffset=0mm|HoleType=Round|Shape=Octagon|*
%AMOCTAGOND169*
4,1,8,2.000,0.275,2.000,-0.275,1.725,-0.550,-1.725,-0.550,-2.000,-0.275,-2.000,0.275,-1.725,0.550,1.725,0.550,2.000,0.275,0.0*
%
%ADD169OCTAGOND169*%

%ADD170R,9.000X10.500*%
%ADD171R,1.270X1.270*%
%ADD172R,1.100X1.000*%
D30*
X43764Y68453D02*
D03*
Y70739D02*
D03*
D32*
X45857Y32817D02*
D03*
Y30785D02*
D03*
X45755Y28702D02*
D03*
Y26670D02*
D03*
X98556Y68529D02*
D03*
Y66497D02*
D03*
X87964Y63297D02*
D03*
Y61265D02*
D03*
X113186Y62382D02*
D03*
Y60350D02*
D03*
X98937Y63195D02*
D03*
Y61163D02*
D03*
X103722Y53645D02*
D03*
Y51613D02*
D03*
X100140Y53645D02*
D03*
Y51613D02*
D03*
X93527Y63195D02*
D03*
Y61163D02*
D03*
X101604Y63195D02*
D03*
Y61163D02*
D03*
X109011Y66497D02*
D03*
Y68529D02*
D03*
X121644Y66497D02*
D03*
Y68529D02*
D03*
X118876D02*
D03*
Y66497D02*
D03*
D37*
X23226Y49230D02*
D03*
Y47330D02*
D03*
X20432Y49230D02*
D03*
Y47330D02*
D03*
X42835Y20101D02*
D03*
Y22001D02*
D03*
X37570Y43073D02*
D03*
Y41173D02*
D03*
X41507Y43073D02*
D03*
Y41173D02*
D03*
D41*
X93532Y26829D02*
D03*
X91632D02*
D03*
X104286D02*
D03*
X102386D02*
D03*
X98902D02*
D03*
X97002D02*
D03*
X88284D02*
D03*
X86384D02*
D03*
X82950D02*
D03*
X81050D02*
D03*
X77718D02*
D03*
X75818D02*
D03*
X23864Y14598D02*
D03*
X25764D02*
D03*
X17840D02*
D03*
X19740D02*
D03*
X126272Y51239D02*
D03*
X124372D02*
D03*
X36356Y52596D02*
D03*
X34456D02*
D03*
X24180Y72676D02*
D03*
X26080D02*
D03*
D42*
X85424Y66218D02*
D03*
X83392D02*
D03*
X118622Y60477D02*
D03*
X120654D02*
D03*
X118596Y63119D02*
D03*
X120628D02*
D03*
X93577Y29616D02*
D03*
X91545D02*
D03*
X83036Y24409D02*
D03*
X81004D02*
D03*
X83036Y29616D02*
D03*
X81004D02*
D03*
X80979Y31775D02*
D03*
X83011D02*
D03*
X77702Y24409D02*
D03*
X75670D02*
D03*
X89183Y43932D02*
D03*
X87151D02*
D03*
X91647Y43926D02*
D03*
X93679D02*
D03*
X111281Y65415D02*
D03*
X113313D02*
D03*
X86313Y31775D02*
D03*
X88345D02*
D03*
X107852Y63119D02*
D03*
X109884D02*
D03*
X107852Y60477D02*
D03*
X109884D02*
D03*
X102213Y24409D02*
D03*
X104245D02*
D03*
X102213Y29616D02*
D03*
X104245D02*
D03*
X104271Y31775D02*
D03*
X102239D02*
D03*
X91672Y24409D02*
D03*
X93704D02*
D03*
X93628Y31775D02*
D03*
X91596D02*
D03*
X96879Y24409D02*
D03*
X98911D02*
D03*
X96879Y29616D02*
D03*
X98911D02*
D03*
X98962Y31775D02*
D03*
X96930D02*
D03*
X75670Y29616D02*
D03*
X77702D02*
D03*
Y31775D02*
D03*
X75670D02*
D03*
X86338Y24409D02*
D03*
X88370D02*
D03*
X86338Y29616D02*
D03*
X88370D02*
D03*
D56*
X21488Y30378D02*
D03*
X27388D02*
D03*
X41586Y32664D02*
D03*
X35686D02*
D03*
X41459Y48666D02*
D03*
X35559D02*
D03*
D160*
X38735Y61874D02*
D03*
X42037D02*
D03*
X32080D02*
D03*
X35382D02*
D03*
D161*
X51181Y19355D02*
D03*
X47879D02*
D03*
X63729Y19609D02*
D03*
X60427D02*
D03*
D162*
X31572Y41709D02*
D03*
Y37234D02*
D03*
D163*
X54356Y65989D02*
D03*
Y62687D02*
D03*
D164*
X32234Y74117D02*
D03*
X36709D02*
D03*
D165*
X39044Y16101D02*
D03*
Y22001D02*
D03*
D166*
X96168Y70000D02*
D03*
Y66550D02*
D03*
X106862D02*
D03*
Y70000D02*
D03*
X116183D02*
D03*
Y66550D02*
D03*
D167*
X104560Y65380D02*
D03*
X102671Y65385D02*
D03*
X103610Y67880D02*
D03*
D168*
X16752Y19406D02*
D03*
D169*
X16752Y21946D02*
D03*
X16752Y24486D02*
D03*
D170*
X28147Y21946D02*
D03*
D171*
X127889Y53899D02*
D03*
X124289D02*
D03*
D172*
X134712Y65938D02*
D03*
X133012D02*
D03*
X134686Y63271D02*
D03*
X132986D02*
D03*
M02*
