G04*
G04 #@! TF.GenerationSoftware,Altium Limited,Altium Designer,20.2.6 (244)*
G04*
G04 Layer_Color=0*
%FSLAX43Y43*%
%MOMM*%
G71*
G04*
G04 #@! TF.SameCoordinates,50BE3A92-8E6F-42E2-A157-1F0C76B00AEB*
G04*
G04*
G04 #@! TF.FilePolarity,Positive*
G04*
G01*
G75*
%ADD26C,0.150*%
G36*
X134052Y66285D02*
X134077Y66280D01*
X134099Y66273D01*
X134118Y66265D01*
X134126Y66261D01*
X134133Y66257D01*
X134139Y66253D01*
X134144Y66249D01*
X134148Y66246D01*
X134150Y66245D01*
X134152Y66244D01*
X134153Y66243D01*
X134171Y66225D01*
X134185Y66205D01*
X134197Y66184D01*
X134206Y66164D01*
X134212Y66146D01*
X134214Y66138D01*
X134216Y66132D01*
X134217Y66126D01*
X134218Y66122D01*
X134219Y66120D01*
Y66119D01*
X134139Y66105D01*
X134135Y66125D01*
X134130Y66143D01*
X134123Y66158D01*
X134117Y66170D01*
X134110Y66180D01*
X134104Y66186D01*
X134101Y66191D01*
X134100Y66192D01*
X134088Y66201D01*
X134074Y66209D01*
X134062Y66214D01*
X134050Y66217D01*
X134039Y66219D01*
X134030Y66221D01*
X134023D01*
X134006Y66220D01*
X133991Y66216D01*
X133978Y66212D01*
X133966Y66207D01*
X133958Y66201D01*
X133951Y66197D01*
X133947Y66193D01*
X133946Y66192D01*
X133935Y66181D01*
X133928Y66168D01*
X133923Y66156D01*
X133919Y66145D01*
X133917Y66135D01*
X133916Y66127D01*
Y66121D01*
Y66120D01*
Y66120D01*
Y66109D01*
X133917Y66100D01*
X133922Y66084D01*
X133929Y66070D01*
X133936Y66058D01*
X133944Y66049D01*
X133950Y66042D01*
X133955Y66039D01*
X133956Y66038D01*
X133957D01*
X133973Y66029D01*
X133988Y66023D01*
X134004Y66018D01*
X134018Y66015D01*
X134030Y66013D01*
X134041Y66011D01*
X134053D01*
X134057Y66012D01*
X134061D01*
X134071Y65942D01*
X134058Y65945D01*
X134047Y65947D01*
X134038Y65949D01*
X134029Y65949D01*
X134023Y65950D01*
X134014D01*
X133994Y65949D01*
X133977Y65945D01*
X133961Y65939D01*
X133947Y65933D01*
X133937Y65926D01*
X133930Y65920D01*
X133925Y65917D01*
X133923Y65915D01*
X133911Y65901D01*
X133901Y65886D01*
X133895Y65871D01*
X133891Y65855D01*
X133888Y65843D01*
X133887Y65833D01*
X133886Y65829D01*
Y65826D01*
Y65824D01*
Y65824D01*
X133888Y65803D01*
X133893Y65784D01*
X133899Y65768D01*
X133906Y65754D01*
X133914Y65743D01*
X133919Y65734D01*
X133924Y65729D01*
X133926Y65727D01*
X133941Y65714D01*
X133957Y65704D01*
X133973Y65698D01*
X133988Y65693D01*
X134001Y65690D01*
X134011Y65689D01*
X134015Y65688D01*
X134021D01*
X134038Y65689D01*
X134054Y65693D01*
X134068Y65698D01*
X134079Y65703D01*
X134088Y65708D01*
X134096Y65713D01*
X134100Y65716D01*
X134102Y65717D01*
X134113Y65730D01*
X134122Y65746D01*
X134131Y65761D01*
X134137Y65778D01*
X134142Y65793D01*
X134144Y65799D01*
X134145Y65805D01*
X134146Y65809D01*
X134147Y65813D01*
X134148Y65815D01*
Y65816D01*
X134228Y65806D01*
X134226Y65791D01*
X134223Y65777D01*
X134214Y65750D01*
X134204Y65728D01*
X134198Y65718D01*
X134193Y65709D01*
X134187Y65700D01*
X134182Y65694D01*
X134177Y65687D01*
X134172Y65683D01*
X134169Y65679D01*
X134166Y65676D01*
X134165Y65674D01*
X134164Y65673D01*
X134152Y65665D01*
X134141Y65656D01*
X134130Y65650D01*
X134118Y65644D01*
X134094Y65635D01*
X134072Y65629D01*
X134061Y65627D01*
X134052Y65625D01*
X134043Y65624D01*
X134036Y65623D01*
X134030Y65622D01*
X134022D01*
X134004Y65623D01*
X133988Y65625D01*
X133972Y65628D01*
X133957Y65632D01*
X133943Y65636D01*
X133931Y65641D01*
X133918Y65647D01*
X133908Y65652D01*
X133898Y65657D01*
X133889Y65663D01*
X133882Y65668D01*
X133876Y65672D01*
X133871Y65676D01*
X133868Y65679D01*
X133866Y65681D01*
X133865Y65682D01*
X133854Y65693D01*
X133844Y65705D01*
X133836Y65717D01*
X133828Y65730D01*
X133822Y65741D01*
X133817Y65753D01*
X133809Y65776D01*
X133807Y65786D01*
X133806Y65795D01*
X133804Y65804D01*
X133803Y65811D01*
X133802Y65817D01*
Y65822D01*
Y65824D01*
Y65825D01*
X133803Y65848D01*
X133807Y65869D01*
X133812Y65886D01*
X133818Y65902D01*
X133823Y65914D01*
X133829Y65923D01*
X133833Y65929D01*
X133834Y65931D01*
X133847Y65945D01*
X133861Y65957D01*
X133876Y65966D01*
X133891Y65974D01*
X133904Y65980D01*
X133915Y65983D01*
X133918Y65984D01*
X133921Y65985D01*
X133923Y65986D01*
X133924D01*
X133908Y65995D01*
X133895Y66003D01*
X133884Y66012D01*
X133874Y66021D01*
X133867Y66028D01*
X133861Y66035D01*
X133858Y66039D01*
X133857Y66041D01*
X133850Y66054D01*
X133844Y66067D01*
X133839Y66080D01*
X133837Y66092D01*
X133835Y66103D01*
X133834Y66110D01*
Y66116D01*
Y66118D01*
X133835Y66134D01*
X133838Y66150D01*
X133841Y66164D01*
X133846Y66176D01*
X133851Y66186D01*
X133854Y66195D01*
X133857Y66199D01*
X133858Y66201D01*
X133868Y66215D01*
X133879Y66228D01*
X133890Y66238D01*
X133901Y66247D01*
X133911Y66254D01*
X133919Y66260D01*
X133925Y66262D01*
X133926Y66263D01*
X133927D01*
X133944Y66271D01*
X133961Y66276D01*
X133978Y66281D01*
X133993Y66284D01*
X134005Y66286D01*
X134015Y66287D01*
X134039D01*
X134052Y66285D01*
D02*
G37*
G36*
X134602Y66293D02*
X134632Y66289D01*
X134658Y66283D01*
X134670Y66279D01*
X134681Y66276D01*
X134692Y66272D01*
X134701Y66268D01*
X134709Y66265D01*
X134716Y66262D01*
X134721Y66260D01*
X134725Y66258D01*
X134728Y66257D01*
X134728Y66256D01*
X134754Y66240D01*
X134775Y66221D01*
X134794Y66202D01*
X134810Y66183D01*
X134822Y66167D01*
X134827Y66159D01*
X134831Y66152D01*
X134835Y66148D01*
X134837Y66144D01*
X134837Y66141D01*
X134838Y66140D01*
X134852Y66111D01*
X134861Y66081D01*
X134868Y66051D01*
X134872Y66024D01*
X134874Y66011D01*
X134875Y65999D01*
X134876Y65990D01*
Y65980D01*
X134877Y65974D01*
Y65968D01*
Y65964D01*
Y65964D01*
X134875Y65930D01*
X134871Y65897D01*
X134867Y65868D01*
X134863Y65854D01*
X134860Y65841D01*
X134857Y65830D01*
X134853Y65820D01*
X134851Y65810D01*
X134849Y65803D01*
X134846Y65797D01*
X134845Y65793D01*
X134843Y65790D01*
Y65789D01*
X134829Y65761D01*
X134813Y65735D01*
X134796Y65714D01*
X134788Y65705D01*
X134780Y65697D01*
X134773Y65689D01*
X134765Y65683D01*
X134759Y65677D01*
X134753Y65673D01*
X134749Y65669D01*
X134745Y65667D01*
X134744Y65666D01*
X134743Y65665D01*
X134729Y65657D01*
X134716Y65651D01*
X134688Y65640D01*
X134660Y65633D01*
X134633Y65628D01*
X134619Y65626D01*
X134608Y65624D01*
X134598Y65623D01*
X134589D01*
X134582Y65622D01*
X134572D01*
X134553Y65623D01*
X134535Y65625D01*
X134518Y65627D01*
X134502Y65631D01*
X134487Y65636D01*
X134473Y65640D01*
X134460Y65645D01*
X134447Y65651D01*
X134437Y65655D01*
X134427Y65660D01*
X134419Y65665D01*
X134412Y65669D01*
X134407Y65673D01*
X134402Y65675D01*
X134400Y65677D01*
X134400Y65678D01*
X134386Y65689D01*
X134375Y65700D01*
X134365Y65714D01*
X134354Y65727D01*
X134338Y65753D01*
X134324Y65779D01*
X134319Y65792D01*
X134314Y65803D01*
X134310Y65813D01*
X134307Y65822D01*
X134305Y65829D01*
X134303Y65835D01*
X134302Y65839D01*
Y65840D01*
X134388Y65861D01*
X134392Y65846D01*
X134397Y65832D01*
X134401Y65819D01*
X134406Y65807D01*
X134412Y65795D01*
X134417Y65786D01*
X134424Y65777D01*
X134430Y65768D01*
X134434Y65761D01*
X134440Y65755D01*
X134445Y65749D01*
X134448Y65745D01*
X134452Y65742D01*
X134455Y65739D01*
X134456Y65738D01*
X134457Y65737D01*
X134466Y65730D01*
X134477Y65724D01*
X134497Y65714D01*
X134517Y65706D01*
X134537Y65701D01*
X134554Y65698D01*
X134560Y65697D01*
X134567D01*
X134572Y65696D01*
X134579D01*
X134601Y65697D01*
X134621Y65700D01*
X134640Y65705D01*
X134657Y65711D01*
X134670Y65716D01*
X134676Y65719D01*
X134681Y65721D01*
X134684Y65723D01*
X134687Y65725D01*
X134689Y65726D01*
X134690D01*
X134708Y65739D01*
X134723Y65753D01*
X134736Y65769D01*
X134746Y65784D01*
X134755Y65797D01*
X134760Y65808D01*
X134762Y65813D01*
X134764Y65816D01*
X134765Y65818D01*
Y65819D01*
X134773Y65843D01*
X134778Y65868D01*
X134783Y65892D01*
X134786Y65915D01*
X134787Y65925D01*
X134788Y65934D01*
Y65943D01*
X134789Y65949D01*
Y65955D01*
Y65960D01*
Y65963D01*
Y65964D01*
X134788Y65988D01*
X134786Y66011D01*
X134782Y66031D01*
X134778Y66050D01*
X134775Y66066D01*
X134774Y66073D01*
X134772Y66078D01*
X134771Y66083D01*
X134770Y66086D01*
X134769Y66088D01*
Y66089D01*
X134759Y66110D01*
X134749Y66130D01*
X134738Y66146D01*
X134726Y66160D01*
X134715Y66171D01*
X134707Y66179D01*
X134700Y66183D01*
X134699Y66185D01*
X134698D01*
X134679Y66198D01*
X134657Y66207D01*
X134636Y66214D01*
X134617Y66217D01*
X134599Y66220D01*
X134591Y66221D01*
X134585D01*
X134580Y66222D01*
X134572D01*
X134549Y66221D01*
X134527Y66217D01*
X134510Y66212D01*
X134494Y66206D01*
X134481Y66199D01*
X134472Y66195D01*
X134466Y66191D01*
X134464Y66189D01*
X134449Y66175D01*
X134435Y66159D01*
X134424Y66142D01*
X134415Y66125D01*
X134407Y66110D01*
X134404Y66103D01*
X134402Y66097D01*
X134400Y66092D01*
X134399Y66089D01*
X134398Y66087D01*
Y66086D01*
X134313Y66105D01*
X134319Y66122D01*
X134324Y66137D01*
X134332Y66152D01*
X134338Y66166D01*
X134346Y66178D01*
X134354Y66189D01*
X134362Y66200D01*
X134369Y66210D01*
X134377Y66217D01*
X134384Y66225D01*
X134390Y66231D01*
X134395Y66236D01*
X134400Y66241D01*
X134403Y66244D01*
X134405Y66245D01*
X134406Y66245D01*
X134419Y66254D01*
X134432Y66262D01*
X134446Y66269D01*
X134460Y66275D01*
X134488Y66283D01*
X134513Y66289D01*
X134525Y66292D01*
X134536Y66292D01*
X134546Y66293D01*
X134555Y66294D01*
X134561Y66295D01*
X134571D01*
X134602Y66293D01*
D02*
G37*
G36*
X133536Y66285D02*
X133559Y66281D01*
X133579Y66275D01*
X133596Y66268D01*
X133610Y66261D01*
X133616Y66258D01*
X133620Y66254D01*
X133624Y66252D01*
X133627Y66250D01*
X133628Y66248D01*
X133629D01*
X133646Y66233D01*
X133660Y66215D01*
X133672Y66198D01*
X133682Y66181D01*
X133689Y66165D01*
X133693Y66158D01*
X133695Y66152D01*
X133697Y66147D01*
X133698Y66143D01*
X133699Y66141D01*
Y66140D01*
X133703Y66126D01*
X133707Y66112D01*
X133713Y66081D01*
X133717Y66050D01*
X133720Y66021D01*
X133721Y66007D01*
X133722Y65995D01*
Y65983D01*
X133723Y65973D01*
Y65965D01*
Y65959D01*
Y65955D01*
Y65954D01*
X133722Y65921D01*
X133720Y65890D01*
X133717Y65862D01*
X133713Y65836D01*
X133708Y65811D01*
X133702Y65790D01*
X133697Y65770D01*
X133691Y65753D01*
X133685Y65738D01*
X133679Y65725D01*
X133674Y65714D01*
X133669Y65705D01*
X133665Y65698D01*
X133662Y65693D01*
X133660Y65690D01*
X133659Y65689D01*
X133649Y65678D01*
X133637Y65668D01*
X133625Y65658D01*
X133613Y65651D01*
X133601Y65644D01*
X133588Y65638D01*
X133576Y65635D01*
X133565Y65631D01*
X133554Y65628D01*
X133543Y65626D01*
X133534Y65624D01*
X133526Y65623D01*
X133520Y65622D01*
X133510D01*
X133485Y65624D01*
X133462Y65628D01*
X133442Y65635D01*
X133425Y65641D01*
X133411Y65648D01*
X133406Y65652D01*
X133401Y65654D01*
X133398Y65656D01*
X133395Y65658D01*
X133394Y65660D01*
X133393D01*
X133376Y65676D01*
X133362Y65693D01*
X133350Y65712D01*
X133340Y65729D01*
X133333Y65745D01*
X133329Y65751D01*
X133327Y65758D01*
X133325Y65762D01*
X133323Y65766D01*
X133323Y65768D01*
Y65769D01*
X133318Y65783D01*
X133314Y65797D01*
X133308Y65827D01*
X133304Y65858D01*
X133301Y65888D01*
X133300Y65902D01*
X133299Y65914D01*
Y65925D01*
X133298Y65935D01*
Y65943D01*
Y65949D01*
Y65953D01*
Y65954D01*
Y65972D01*
X133299Y65989D01*
Y66004D01*
X133300Y66019D01*
X133302Y66032D01*
X133303Y66045D01*
X133304Y66057D01*
X133306Y66067D01*
X133307Y66076D01*
X133308Y66085D01*
X133309Y66091D01*
X133310Y66097D01*
X133311Y66102D01*
X133312Y66105D01*
X133313Y66106D01*
Y66107D01*
X133319Y66128D01*
X133325Y66147D01*
X133333Y66163D01*
X133339Y66177D01*
X133345Y66189D01*
X133349Y66198D01*
X133353Y66202D01*
X133354Y66204D01*
X133364Y66218D01*
X133374Y66230D01*
X133385Y66241D01*
X133396Y66250D01*
X133405Y66257D01*
X133413Y66261D01*
X133417Y66264D01*
X133418Y66265D01*
X133419D01*
X133434Y66273D01*
X133450Y66277D01*
X133465Y66281D01*
X133479Y66284D01*
X133492Y66286D01*
X133502Y66287D01*
X133510D01*
X133536Y66285D01*
D02*
G37*
G36*
X134026Y63618D02*
X134052Y63613D01*
X134073Y63606D01*
X134092Y63598D01*
X134101Y63594D01*
X134107Y63590D01*
X134114Y63586D01*
X134119Y63582D01*
X134122Y63579D01*
X134125Y63578D01*
X134127Y63577D01*
X134128Y63576D01*
X134146Y63558D01*
X134160Y63538D01*
X134171Y63517D01*
X134181Y63497D01*
X134186Y63479D01*
X134189Y63471D01*
X134191Y63465D01*
X134192Y63459D01*
X134193Y63455D01*
X134194Y63453D01*
Y63452D01*
X134114Y63438D01*
X134110Y63458D01*
X134104Y63476D01*
X134098Y63491D01*
X134091Y63503D01*
X134085Y63513D01*
X134079Y63519D01*
X134075Y63524D01*
X134074Y63525D01*
X134062Y63534D01*
X134049Y63542D01*
X134037Y63547D01*
X134025Y63550D01*
X134013Y63552D01*
X134005Y63554D01*
X133997D01*
X133980Y63553D01*
X133965Y63549D01*
X133952Y63545D01*
X133941Y63540D01*
X133932Y63534D01*
X133926Y63530D01*
X133921Y63526D01*
X133920Y63525D01*
X133910Y63514D01*
X133902Y63501D01*
X133898Y63489D01*
X133894Y63478D01*
X133892Y63468D01*
X133890Y63460D01*
Y63454D01*
Y63453D01*
Y63453D01*
Y63442D01*
X133892Y63433D01*
X133897Y63417D01*
X133903Y63403D01*
X133911Y63391D01*
X133918Y63382D01*
X133925Y63375D01*
X133930Y63372D01*
X133931Y63371D01*
X133931D01*
X133947Y63362D01*
X133963Y63356D01*
X133978Y63351D01*
X133993Y63348D01*
X134005Y63346D01*
X134015Y63344D01*
X134027D01*
X134031Y63345D01*
X134036D01*
X134045Y63275D01*
X134033Y63278D01*
X134022Y63280D01*
X134012Y63282D01*
X134004Y63282D01*
X133997Y63283D01*
X133989D01*
X133969Y63282D01*
X133951Y63278D01*
X133935Y63272D01*
X133922Y63266D01*
X133912Y63259D01*
X133904Y63253D01*
X133900Y63250D01*
X133898Y63248D01*
X133885Y63234D01*
X133876Y63219D01*
X133869Y63204D01*
X133866Y63188D01*
X133863Y63176D01*
X133862Y63166D01*
X133861Y63162D01*
Y63159D01*
Y63157D01*
Y63157D01*
X133863Y63136D01*
X133868Y63117D01*
X133873Y63101D01*
X133881Y63087D01*
X133888Y63076D01*
X133894Y63067D01*
X133899Y63062D01*
X133900Y63060D01*
X133916Y63047D01*
X133931Y63037D01*
X133947Y63031D01*
X133963Y63026D01*
X133976Y63023D01*
X133986Y63022D01*
X133990Y63021D01*
X133995D01*
X134012Y63022D01*
X134028Y63026D01*
X134042Y63031D01*
X134054Y63036D01*
X134063Y63041D01*
X134071Y63046D01*
X134074Y63049D01*
X134076Y63050D01*
X134087Y63063D01*
X134097Y63079D01*
X134105Y63094D01*
X134112Y63111D01*
X134117Y63126D01*
X134119Y63132D01*
X134119Y63138D01*
X134120Y63142D01*
X134121Y63146D01*
X134122Y63148D01*
Y63149D01*
X134202Y63139D01*
X134200Y63124D01*
X134197Y63110D01*
X134189Y63083D01*
X134179Y63061D01*
X134173Y63051D01*
X134167Y63042D01*
X134162Y63033D01*
X134156Y63027D01*
X134151Y63020D01*
X134147Y63016D01*
X134144Y63012D01*
X134141Y63009D01*
X134139Y63007D01*
X134138Y63006D01*
X134127Y62998D01*
X134116Y62989D01*
X134104Y62983D01*
X134092Y62977D01*
X134069Y62968D01*
X134046Y62962D01*
X134036Y62960D01*
X134026Y62958D01*
X134018Y62957D01*
X134010Y62956D01*
X134005Y62955D01*
X133996D01*
X133978Y62956D01*
X133963Y62958D01*
X133947Y62961D01*
X133931Y62965D01*
X133917Y62970D01*
X133905Y62974D01*
X133893Y62980D01*
X133883Y62985D01*
X133872Y62990D01*
X133864Y62996D01*
X133856Y63001D01*
X133851Y63005D01*
X133846Y63009D01*
X133842Y63012D01*
X133840Y63014D01*
X133839Y63015D01*
X133828Y63026D01*
X133819Y63038D01*
X133810Y63050D01*
X133803Y63063D01*
X133797Y63074D01*
X133791Y63086D01*
X133784Y63109D01*
X133782Y63119D01*
X133780Y63128D01*
X133778Y63137D01*
X133777Y63144D01*
X133776Y63150D01*
Y63155D01*
Y63157D01*
Y63158D01*
X133777Y63181D01*
X133781Y63202D01*
X133787Y63219D01*
X133792Y63235D01*
X133798Y63247D01*
X133804Y63256D01*
X133807Y63262D01*
X133808Y63264D01*
X133822Y63278D01*
X133836Y63290D01*
X133851Y63299D01*
X133866Y63307D01*
X133879Y63313D01*
X133889Y63316D01*
X133893Y63317D01*
X133896Y63318D01*
X133898Y63319D01*
X133899D01*
X133883Y63328D01*
X133869Y63336D01*
X133858Y63345D01*
X133849Y63354D01*
X133841Y63361D01*
X133836Y63368D01*
X133833Y63372D01*
X133832Y63374D01*
X133824Y63387D01*
X133819Y63400D01*
X133814Y63413D01*
X133811Y63425D01*
X133809Y63436D01*
X133808Y63443D01*
Y63449D01*
Y63451D01*
X133809Y63467D01*
X133812Y63483D01*
X133816Y63497D01*
X133821Y63509D01*
X133825Y63519D01*
X133829Y63528D01*
X133832Y63532D01*
X133833Y63534D01*
X133842Y63548D01*
X133853Y63561D01*
X133865Y63571D01*
X133876Y63580D01*
X133885Y63587D01*
X133894Y63593D01*
X133900Y63595D01*
X133900Y63596D01*
X133901D01*
X133918Y63604D01*
X133935Y63610D01*
X133952Y63614D01*
X133967Y63617D01*
X133979Y63619D01*
X133990Y63620D01*
X134013D01*
X134026Y63618D01*
D02*
G37*
G36*
X133458Y63604D02*
X133468Y63589D01*
X133480Y63574D01*
X133492Y63561D01*
X133503Y63549D01*
X133511Y63540D01*
X133515Y63537D01*
X133518Y63534D01*
X133519Y63533D01*
X133520Y63532D01*
X133540Y63516D01*
X133559Y63501D01*
X133578Y63488D01*
X133597Y63478D01*
X133613Y63469D01*
X133619Y63465D01*
X133625Y63462D01*
X133630Y63459D01*
X133634Y63458D01*
X133635Y63456D01*
X133636D01*
Y63379D01*
X133622Y63385D01*
X133608Y63391D01*
X133594Y63398D01*
X133581Y63405D01*
X133570Y63410D01*
X133560Y63415D01*
X133555Y63419D01*
X133554Y63420D01*
X133553D01*
X133536Y63430D01*
X133521Y63440D01*
X133508Y63450D01*
X133497Y63458D01*
X133488Y63465D01*
X133482Y63470D01*
X133478Y63474D01*
X133477Y63475D01*
Y62967D01*
X133397D01*
Y63620D01*
X133448D01*
X133458Y63604D01*
D02*
G37*
G36*
X134576Y63626D02*
X134606Y63622D01*
X134633Y63616D01*
X134645Y63612D01*
X134656Y63609D01*
X134666Y63605D01*
X134676Y63601D01*
X134683Y63598D01*
X134691Y63595D01*
X134696Y63593D01*
X134699Y63591D01*
X134702Y63590D01*
X134703Y63589D01*
X134728Y63573D01*
X134750Y63554D01*
X134769Y63535D01*
X134785Y63516D01*
X134797Y63500D01*
X134802Y63492D01*
X134806Y63485D01*
X134809Y63481D01*
X134811Y63477D01*
X134812Y63474D01*
X134813Y63473D01*
X134826Y63444D01*
X134836Y63414D01*
X134842Y63384D01*
X134847Y63357D01*
X134849Y63344D01*
X134850Y63332D01*
X134851Y63323D01*
Y63313D01*
X134852Y63307D01*
Y63301D01*
Y63297D01*
Y63297D01*
X134850Y63263D01*
X134846Y63230D01*
X134841Y63201D01*
X134837Y63187D01*
X134835Y63174D01*
X134832Y63163D01*
X134828Y63153D01*
X134825Y63143D01*
X134823Y63136D01*
X134821Y63130D01*
X134820Y63126D01*
X134818Y63123D01*
Y63122D01*
X134804Y63094D01*
X134788Y63068D01*
X134771Y63047D01*
X134762Y63038D01*
X134755Y63030D01*
X134747Y63022D01*
X134740Y63016D01*
X134733Y63010D01*
X134728Y63006D01*
X134724Y63002D01*
X134720Y63000D01*
X134718Y62999D01*
X134717Y62998D01*
X134704Y62990D01*
X134691Y62984D01*
X134663Y62973D01*
X134634Y62966D01*
X134607Y62961D01*
X134594Y62959D01*
X134583Y62957D01*
X134572Y62956D01*
X134564D01*
X134556Y62955D01*
X134546D01*
X134527Y62956D01*
X134509Y62958D01*
X134493Y62960D01*
X134477Y62964D01*
X134462Y62969D01*
X134447Y62973D01*
X134434Y62978D01*
X134422Y62984D01*
X134412Y62988D01*
X134401Y62993D01*
X134394Y62998D01*
X134386Y63002D01*
X134382Y63006D01*
X134377Y63008D01*
X134375Y63010D01*
X134374Y63011D01*
X134361Y63022D01*
X134350Y63033D01*
X134339Y63047D01*
X134329Y63060D01*
X134312Y63086D01*
X134299Y63112D01*
X134293Y63125D01*
X134289Y63136D01*
X134285Y63146D01*
X134282Y63155D01*
X134279Y63162D01*
X134277Y63168D01*
X134276Y63172D01*
Y63173D01*
X134363Y63194D01*
X134367Y63179D01*
X134371Y63165D01*
X134376Y63152D01*
X134381Y63140D01*
X134386Y63128D01*
X134392Y63119D01*
X134399Y63110D01*
X134404Y63101D01*
X134409Y63094D01*
X134415Y63088D01*
X134419Y63082D01*
X134423Y63078D01*
X134427Y63075D01*
X134430Y63072D01*
X134431Y63071D01*
X134431Y63070D01*
X134441Y63063D01*
X134451Y63057D01*
X134472Y63047D01*
X134492Y63039D01*
X134511Y63034D01*
X134528Y63031D01*
X134535Y63030D01*
X134541D01*
X134547Y63029D01*
X134554D01*
X134575Y63030D01*
X134596Y63033D01*
X134615Y63038D01*
X134632Y63044D01*
X134645Y63049D01*
X134650Y63052D01*
X134655Y63054D01*
X134659Y63056D01*
X134662Y63058D01*
X134664Y63059D01*
X134665D01*
X134682Y63072D01*
X134697Y63086D01*
X134711Y63102D01*
X134721Y63117D01*
X134729Y63130D01*
X134735Y63141D01*
X134737Y63146D01*
X134739Y63149D01*
X134740Y63151D01*
Y63152D01*
X134747Y63176D01*
X134753Y63201D01*
X134758Y63225D01*
X134760Y63248D01*
X134761Y63258D01*
X134762Y63267D01*
Y63276D01*
X134763Y63282D01*
Y63288D01*
Y63293D01*
Y63296D01*
Y63297D01*
X134762Y63321D01*
X134760Y63344D01*
X134757Y63364D01*
X134753Y63383D01*
X134750Y63399D01*
X134748Y63406D01*
X134746Y63411D01*
X134745Y63416D01*
X134744Y63419D01*
X134743Y63421D01*
Y63422D01*
X134734Y63443D01*
X134724Y63463D01*
X134712Y63479D01*
X134700Y63493D01*
X134690Y63504D01*
X134681Y63512D01*
X134675Y63516D01*
X134674Y63518D01*
X134673D01*
X134653Y63531D01*
X134632Y63540D01*
X134611Y63547D01*
X134591Y63550D01*
X134573Y63553D01*
X134566Y63554D01*
X134559D01*
X134555Y63555D01*
X134547D01*
X134524Y63554D01*
X134502Y63550D01*
X134484Y63545D01*
X134468Y63539D01*
X134456Y63532D01*
X134447Y63528D01*
X134441Y63524D01*
X134439Y63522D01*
X134424Y63508D01*
X134410Y63492D01*
X134399Y63475D01*
X134389Y63458D01*
X134382Y63443D01*
X134379Y63436D01*
X134377Y63430D01*
X134375Y63425D01*
X134373Y63422D01*
X134372Y63420D01*
Y63419D01*
X134288Y63438D01*
X134293Y63455D01*
X134299Y63470D01*
X134306Y63485D01*
X134313Y63499D01*
X134321Y63511D01*
X134329Y63522D01*
X134337Y63533D01*
X134344Y63543D01*
X134352Y63550D01*
X134358Y63558D01*
X134365Y63564D01*
X134369Y63569D01*
X134374Y63574D01*
X134378Y63577D01*
X134380Y63578D01*
X134381Y63578D01*
X134394Y63587D01*
X134407Y63595D01*
X134420Y63602D01*
X134434Y63608D01*
X134462Y63616D01*
X134488Y63622D01*
X134500Y63625D01*
X134510Y63625D01*
X134521Y63626D01*
X134529Y63627D01*
X134536Y63628D01*
X134545D01*
X134576Y63626D01*
D02*
G37*
%LPC*%
G36*
X133517Y66221D02*
X133511D01*
X133501Y66220D01*
X133491Y66219D01*
X133481Y66216D01*
X133473Y66213D01*
X133457Y66204D01*
X133443Y66195D01*
X133432Y66184D01*
X133424Y66176D01*
X133421Y66172D01*
X133419Y66169D01*
X133417Y66168D01*
Y66167D01*
X133411Y66156D01*
X133405Y66143D01*
X133400Y66128D01*
X133396Y66112D01*
X133392Y66095D01*
X133389Y66077D01*
X133385Y66042D01*
X133383Y66024D01*
X133382Y66008D01*
X133381Y65993D01*
Y65980D01*
X133380Y65969D01*
Y65961D01*
Y65956D01*
Y65955D01*
Y65954D01*
Y65925D01*
X133382Y65899D01*
X133384Y65875D01*
X133385Y65853D01*
X133388Y65834D01*
X133392Y65816D01*
X133396Y65801D01*
X133399Y65787D01*
X133402Y65776D01*
X133406Y65766D01*
X133409Y65758D01*
X133413Y65751D01*
X133415Y65746D01*
X133417Y65744D01*
X133418Y65742D01*
Y65741D01*
X133426Y65731D01*
X133433Y65724D01*
X133441Y65716D01*
X133448Y65711D01*
X133464Y65701D01*
X133479Y65695D01*
X133492Y65691D01*
X133501Y65689D01*
X133505Y65688D01*
X133510D01*
X133521Y65689D01*
X133530Y65690D01*
X133548Y65697D01*
X133564Y65705D01*
X133578Y65715D01*
X133588Y65724D01*
X133597Y65732D01*
X133602Y65739D01*
X133604Y65740D01*
Y65741D01*
X133610Y65752D01*
X133616Y65765D01*
X133621Y65780D01*
X133625Y65796D01*
X133629Y65813D01*
X133632Y65831D01*
X133636Y65868D01*
X133638Y65885D01*
X133639Y65901D01*
X133640Y65916D01*
Y65928D01*
X133641Y65939D01*
Y65948D01*
Y65952D01*
Y65954D01*
X133640Y65983D01*
X133639Y66010D01*
X133637Y66034D01*
X133635Y66057D01*
X133632Y66076D01*
X133628Y66094D01*
X133624Y66110D01*
X133620Y66124D01*
X133617Y66136D01*
X133614Y66147D01*
X133610Y66155D01*
X133607Y66163D01*
X133604Y66167D01*
X133603Y66171D01*
X133601Y66173D01*
Y66174D01*
X133594Y66183D01*
X133588Y66190D01*
X133580Y66196D01*
X133573Y66201D01*
X133557Y66210D01*
X133543Y66215D01*
X133531Y66218D01*
X133521Y66220D01*
X133517Y66221D01*
D02*
G37*
%LPD*%
D26*
X131862Y64938D02*
X135862D01*
X131862Y66938D02*
X135862D01*
Y64938D02*
Y66938D01*
X131862Y64938D02*
Y66938D01*
X131836Y62271D02*
X135836D01*
X131836Y64271D02*
X135836D01*
Y62271D02*
Y64271D01*
X131836Y62271D02*
Y64271D01*
M02*
