G04*
G04 #@! TF.GenerationSoftware,Altium Limited,Altium Designer,20.2.6 (244)*
G04*
G04 Layer_Color=2752767*
%FSLAX43Y43*%
%MOMM*%
G71*
G04*
G04 #@! TF.SameCoordinates,50BE3A92-8E6F-42E2-A157-1F0C76B00AEB*
G04*
G04*
G04 #@! TF.FilePolarity,Positive*
G04*
G01*
G75*
%ADD10C,0.051*%
%ADD187C,0.068*%
%ADD188C,0.034*%
D10*
X49454Y65080D02*
Y65487D01*
X49860D01*
Y65080D01*
X49454D01*
Y62580D02*
Y62987D01*
X49860D01*
Y62580D01*
X49454D01*
X49835Y69621D02*
X49632Y70028D01*
X50038D01*
X49835Y69621D01*
X47295D02*
X47092Y70028D01*
X47498D01*
X47295Y69621D01*
X111815Y68961D02*
X111916Y69063D01*
X112018D01*
X111916Y69164D01*
X112018Y69266D01*
X111916D01*
X111815Y69367D01*
X111713Y69266D01*
X111611D01*
X111713Y69164D01*
X111611Y69063D01*
X111713D01*
X111815Y68961D01*
Y76581D02*
X111916Y76683D01*
X112018D01*
X111916Y76784D01*
X112018Y76886D01*
X111916D01*
X111815Y76987D01*
X111713Y76886D01*
X111611D01*
X111713Y76784D01*
X111611Y76683D01*
X111713D01*
X111815Y76581D01*
X94035D02*
X94136Y76683D01*
X94238D01*
X94136Y76784D01*
X94238Y76886D01*
X94136D01*
X94035Y76987D01*
X93933Y76886D01*
X93831D01*
X93933Y76784D01*
X93831Y76683D01*
X93933D01*
X94035Y76581D01*
X101655D02*
X101756Y76683D01*
X101858D01*
X101756Y76784D01*
X101858Y76886D01*
X101756D01*
X101655Y76987D01*
X101553Y76886D01*
X101451D01*
X101553Y76784D01*
X101451Y76683D01*
X101553D01*
X101655Y76581D01*
X79938Y80213D02*
X80039Y80416D01*
X79938Y80620D01*
X80141Y80518D01*
X80344Y80620D01*
X80242Y80416D01*
X80344Y80213D01*
X80141Y80315D01*
X79938Y80213D01*
Y82753D02*
X80039Y82956D01*
X79938Y83160D01*
X80141Y83058D01*
X80344Y83160D01*
X80242Y82956D01*
X80344Y82753D01*
X80141Y82855D01*
X79938Y82753D01*
X77398D02*
X77499Y82956D01*
X77398Y83160D01*
X77601Y83058D01*
X77804Y83160D01*
X77702Y82956D01*
X77804Y82753D01*
X77601Y82855D01*
X77398Y82753D01*
Y80213D02*
X77499Y80416D01*
X77398Y80620D01*
X77601Y80518D01*
X77804Y80620D01*
X77702Y80416D01*
X77804Y80213D01*
X77601Y80315D01*
X77398Y80213D01*
X75340D02*
X75442Y80416D01*
X75340Y80620D01*
X75543Y80518D01*
X75747Y80620D01*
X75645Y80416D01*
X75747Y80213D01*
X75543Y80315D01*
X75340Y80213D01*
Y82753D02*
X75442Y82956D01*
X75340Y83160D01*
X75543Y83058D01*
X75747Y83160D01*
X75645Y82956D01*
X75747Y82753D01*
X75543Y82855D01*
X75340Y82753D01*
X72800D02*
X72902Y82956D01*
X72800Y83160D01*
X73003Y83058D01*
X73207Y83160D01*
X73105Y82956D01*
X73207Y82753D01*
X73003Y82855D01*
X72800Y82753D01*
Y80213D02*
X72902Y80416D01*
X72800Y80620D01*
X73003Y80518D01*
X73207Y80620D01*
X73105Y80416D01*
X73207Y80213D01*
X73003Y80315D01*
X72800Y80213D01*
X70743D02*
X70844Y80416D01*
X70743Y80620D01*
X70946Y80518D01*
X71149Y80620D01*
X71048Y80416D01*
X71149Y80213D01*
X70946Y80315D01*
X70743Y80213D01*
Y82753D02*
X70844Y82956D01*
X70743Y83160D01*
X70946Y83058D01*
X71149Y83160D01*
X71048Y82956D01*
X71149Y82753D01*
X70946Y82855D01*
X70743Y82753D01*
X68203D02*
X68304Y82956D01*
X68203Y83160D01*
X68406Y83058D01*
X68609Y83160D01*
X68508Y82956D01*
X68609Y82753D01*
X68406Y82855D01*
X68203Y82753D01*
Y80213D02*
X68304Y80416D01*
X68203Y80620D01*
X68406Y80518D01*
X68609Y80620D01*
X68508Y80416D01*
X68609Y80213D01*
X68406Y80315D01*
X68203Y80213D01*
X33198Y58088D02*
Y58494D01*
X33604D01*
Y58088D01*
X33198D01*
X35865D02*
Y58494D01*
X36271D01*
Y58088D01*
X35865D01*
X40796Y57937D02*
Y58344D01*
X41203D01*
Y57937D01*
X40796D01*
X45898Y57961D02*
Y58367D01*
X46304D01*
Y57961D01*
X45898D01*
X58424Y85496D02*
Y85395D01*
X58627D01*
Y85496D01*
X58729D01*
Y85700D01*
X58627D01*
Y85801D01*
X58424D01*
Y85700D01*
X58322D01*
Y85496D01*
X58424D01*
X62234D02*
Y85395D01*
X62437D01*
Y85496D01*
X62539D01*
Y85700D01*
X62437D01*
Y85801D01*
X62234D01*
Y85700D01*
X62132D01*
Y85496D01*
X62234D01*
X54614D02*
Y85395D01*
X54817D01*
Y85496D01*
X54919D01*
Y85700D01*
X54817D01*
Y85801D01*
X54614D01*
Y85700D01*
X54512D01*
Y85496D01*
X54614D01*
X17047Y59385D02*
X17149D01*
X17250Y59487D01*
X17352Y59385D01*
X17454D01*
Y59487D01*
X17352Y59588D01*
X17454Y59690D01*
Y59792D01*
X17352D01*
X17250Y59690D01*
X17149Y59792D01*
X17047D01*
Y59690D01*
X17149Y59588D01*
X17047Y59487D01*
Y59385D01*
Y67005D02*
X17149D01*
X17250Y67107D01*
X17352Y67005D01*
X17454D01*
Y67107D01*
X17352Y67208D01*
X17454Y67310D01*
Y67412D01*
X17352D01*
X17250Y67310D01*
X17149Y67412D01*
X17047D01*
Y67310D01*
X17149Y67208D01*
X17047Y67107D01*
Y67005D01*
X24667D02*
X24769D01*
X24870Y67107D01*
X24972Y67005D01*
X25074D01*
Y67107D01*
X24972Y67208D01*
X25074Y67310D01*
Y67412D01*
X24972D01*
X24870Y67310D01*
X24769Y67412D01*
X24667D01*
Y67310D01*
X24769Y67208D01*
X24667Y67107D01*
Y67005D01*
Y59385D02*
X24769D01*
X24870Y59487D01*
X24972Y59385D01*
X25074D01*
Y59487D01*
X24972Y59588D01*
X25074Y59690D01*
Y59792D01*
X24972D01*
X24870Y59690D01*
X24769Y59792D01*
X24667D01*
Y59690D01*
X24769Y59588D01*
X24667Y59487D01*
Y59385D01*
X40742Y65481D02*
Y65380D01*
X40945D01*
Y65481D01*
X41046D01*
Y65684D01*
X40945D01*
Y65786D01*
X40742D01*
Y65684D01*
X40640D01*
Y65481D01*
X40742D01*
X38202D02*
Y65380D01*
X38405D01*
Y65481D01*
X38506D01*
Y65684D01*
X38405D01*
Y65786D01*
X38202D01*
Y65684D01*
X38100D01*
Y65481D01*
X38202D01*
X35662D02*
Y65380D01*
X35865D01*
Y65481D01*
X35966D01*
Y65684D01*
X35865D01*
Y65786D01*
X35662D01*
Y65684D01*
X35560D01*
Y65481D01*
X35662D01*
X33122D02*
Y65380D01*
X33325D01*
Y65481D01*
X33426D01*
Y65684D01*
X33325D01*
Y65786D01*
X33122D01*
Y65684D01*
X33020D01*
Y65481D01*
X33122D01*
X99978Y85090D02*
X100181Y85293D01*
X100385Y85090D01*
X100181Y84887D01*
X99978Y85090D01*
X94898D02*
X95101Y85293D01*
X95305Y85090D01*
X95101Y84887D01*
X94898Y85090D01*
X92358Y15773D02*
X92561Y15977D01*
X92765Y15773D01*
X92561Y15570D01*
X92358Y15773D01*
X97438D02*
X97641Y15977D01*
X97845Y15773D01*
X97641Y15570D01*
X97438Y15773D01*
X89615Y85090D02*
X89818Y85293D01*
X90021Y85090D01*
X89818Y84887D01*
X89615Y85090D01*
X84535D02*
X84738Y85293D01*
X84941Y85090D01*
X84738Y84887D01*
X84535Y85090D01*
X110316D02*
X110519Y85293D01*
X110722Y85090D01*
X110519Y84887D01*
X110316Y85090D01*
X105236D02*
X105439Y85293D01*
X105642Y85090D01*
X105439Y84887D01*
X105236Y85090D01*
X137088Y36170D02*
Y36576D01*
X137494D01*
Y36170D01*
X137088D01*
X137189Y36271D02*
Y36474D01*
X137392D01*
Y36271D01*
X137189D01*
X137088Y33630D02*
Y34036D01*
X137494D01*
Y33630D01*
X137088D01*
X137189Y33731D02*
Y33934D01*
X137392D01*
Y33731D01*
X137189D01*
X137088Y31090D02*
Y31496D01*
X137494D01*
Y31090D01*
X137088D01*
X137189Y31191D02*
Y31394D01*
X137392D01*
Y31191D01*
X137189D01*
X137088Y28550D02*
Y28956D01*
X137494D01*
Y28550D01*
X137088D01*
X137189Y28651D02*
Y28854D01*
X137392D01*
Y28651D01*
X137189D01*
X137088Y26010D02*
Y26416D01*
X137494D01*
Y26010D01*
X137088D01*
X137189Y26111D02*
Y26314D01*
X137392D01*
Y26111D01*
X137189D01*
X137088Y23470D02*
Y23876D01*
X137494D01*
Y23470D01*
X137088D01*
X137189Y23571D02*
Y23774D01*
X137392D01*
Y23571D01*
X137189D01*
X137088Y20930D02*
Y21336D01*
X137494D01*
Y20930D01*
X137088D01*
X137189Y21031D02*
Y21234D01*
X137392D01*
Y21031D01*
X137189D01*
X35509Y37516D02*
Y37922D01*
X35916D01*
Y37516D01*
X35509D01*
X35611Y37617D02*
Y37821D01*
X35814D01*
Y37617D01*
X35611D01*
X40589Y37516D02*
Y37922D01*
X40996D01*
Y37516D01*
X40589D01*
X40691Y37617D02*
Y37821D01*
X40894D01*
Y37617D01*
X40691D01*
X24845Y50648D02*
Y51054D01*
X25251D01*
Y50648D01*
X24845D01*
X24947Y50749D02*
Y50952D01*
X25150D01*
Y50749D01*
X24947D01*
X19765Y50648D02*
Y51054D01*
X20171D01*
Y50648D01*
X19765D01*
X19867Y50749D02*
Y50952D01*
X20070D01*
Y50749D01*
X19867D01*
X35234Y79146D02*
X35030Y79553D01*
X35437D01*
X35234Y79146D01*
Y79248D02*
X35132Y79451D01*
X35335D01*
X35234Y79248D01*
X47883Y79146D02*
X47680Y79553D01*
X48086D01*
X47883Y79146D01*
Y79248D02*
X47781Y79451D01*
X47984D01*
X47883Y79248D01*
X60350Y32487D02*
X60452Y32588D01*
X60554D01*
X60452Y32690D01*
X60554Y32791D01*
X60452D01*
X60350Y32893D01*
X60249Y32791D01*
X60147D01*
X60249Y32690D01*
X60147Y32588D01*
X60249D01*
X60350Y32487D01*
Y32588D02*
X60401Y32639D01*
X60452D01*
X60401Y32690D01*
X60452Y32741D01*
X60401D01*
X60350Y32791D01*
X60300Y32741D01*
X60249D01*
X60300Y32690D01*
X60249Y32639D01*
X60300D01*
X60350Y32588D01*
X62890Y32487D02*
X62992Y32588D01*
X63094D01*
X62992Y32690D01*
X63094Y32791D01*
X62992D01*
X62890Y32893D01*
X62789Y32791D01*
X62687D01*
X62789Y32690D01*
X62687Y32588D01*
X62789D01*
X62890Y32487D01*
Y32588D02*
X62941Y32639D01*
X62992D01*
X62941Y32690D01*
X62992Y32741D01*
X62941D01*
X62890Y32791D01*
X62840Y32741D01*
X62789D01*
X62840Y32690D01*
X62789Y32639D01*
X62840D01*
X62890Y32588D01*
X60350Y29947D02*
X60452Y30048D01*
X60554D01*
X60452Y30150D01*
X60554Y30251D01*
X60452D01*
X60350Y30353D01*
X60249Y30251D01*
X60147D01*
X60249Y30150D01*
X60147Y30048D01*
X60249D01*
X60350Y29947D01*
Y30048D02*
X60401Y30099D01*
X60452D01*
X60401Y30150D01*
X60452Y30201D01*
X60401D01*
X60350Y30251D01*
X60300Y30201D01*
X60249D01*
X60300Y30150D01*
X60249Y30099D01*
X60300D01*
X60350Y30048D01*
X62890Y29947D02*
X62992Y30048D01*
X63094D01*
X62992Y30150D01*
X63094Y30251D01*
X62992D01*
X62890Y30353D01*
X62789Y30251D01*
X62687D01*
X62789Y30150D01*
X62687Y30048D01*
X62789D01*
X62890Y29947D01*
Y30048D02*
X62941Y30099D01*
X62992D01*
X62941Y30150D01*
X62992Y30201D01*
X62941D01*
X62890Y30251D01*
X62840Y30201D01*
X62789D01*
X62840Y30150D01*
X62789Y30099D01*
X62840D01*
X62890Y30048D01*
X60350Y27407D02*
X60452Y27508D01*
X60554D01*
X60452Y27610D01*
X60554Y27711D01*
X60452D01*
X60350Y27813D01*
X60249Y27711D01*
X60147D01*
X60249Y27610D01*
X60147Y27508D01*
X60249D01*
X60350Y27407D01*
Y27508D02*
X60401Y27559D01*
X60452D01*
X60401Y27610D01*
X60452Y27661D01*
X60401D01*
X60350Y27711D01*
X60300Y27661D01*
X60249D01*
X60300Y27610D01*
X60249Y27559D01*
X60300D01*
X60350Y27508D01*
X62890Y27407D02*
X62992Y27508D01*
X63094D01*
X62992Y27610D01*
X63094Y27711D01*
X62992D01*
X62890Y27813D01*
X62789Y27711D01*
X62687D01*
X62789Y27610D01*
X62687Y27508D01*
X62789D01*
X62890Y27407D01*
Y27508D02*
X62941Y27559D01*
X62992D01*
X62941Y27610D01*
X62992Y27661D01*
X62941D01*
X62890Y27711D01*
X62840Y27661D01*
X62789D01*
X62840Y27610D01*
X62789Y27559D01*
X62840D01*
X62890Y27508D01*
X60350Y24867D02*
X60452Y24968D01*
X60554D01*
X60452Y25070D01*
X60554Y25171D01*
X60452D01*
X60350Y25273D01*
X60249Y25171D01*
X60147D01*
X60249Y25070D01*
X60147Y24968D01*
X60249D01*
X60350Y24867D01*
Y24968D02*
X60401Y25019D01*
X60452D01*
X60401Y25070D01*
X60452Y25121D01*
X60401D01*
X60350Y25171D01*
X60300Y25121D01*
X60249D01*
X60300Y25070D01*
X60249Y25019D01*
X60300D01*
X60350Y24968D01*
X62890Y24867D02*
X62992Y24968D01*
X63094D01*
X62992Y25070D01*
X63094Y25171D01*
X62992D01*
X62890Y25273D01*
X62789Y25171D01*
X62687D01*
X62789Y25070D01*
X62687Y24968D01*
X62789D01*
X62890Y24867D01*
Y24968D02*
X62941Y25019D01*
X62992D01*
X62941Y25070D01*
X62992Y25121D01*
X62941D01*
X62890Y25171D01*
X62840Y25121D01*
X62789D01*
X62840Y25070D01*
X62789Y25019D01*
X62840D01*
X62890Y24968D01*
X60350Y22327D02*
X60452Y22428D01*
X60554D01*
X60452Y22530D01*
X60554Y22631D01*
X60452D01*
X60350Y22733D01*
X60249Y22631D01*
X60147D01*
X60249Y22530D01*
X60147Y22428D01*
X60249D01*
X60350Y22327D01*
Y22428D02*
X60401Y22479D01*
X60452D01*
X60401Y22530D01*
X60452Y22581D01*
X60401D01*
X60350Y22631D01*
X60300Y22581D01*
X60249D01*
X60300Y22530D01*
X60249Y22479D01*
X60300D01*
X60350Y22428D01*
X62890Y22327D02*
X62992Y22428D01*
X63094D01*
X62992Y22530D01*
X63094Y22631D01*
X62992D01*
X62890Y22733D01*
X62789Y22631D01*
X62687D01*
X62789Y22530D01*
X62687Y22428D01*
X62789D01*
X62890Y22327D01*
Y22428D02*
X62941Y22479D01*
X62992D01*
X62941Y22530D01*
X62992Y22581D01*
X62941D01*
X62890Y22631D01*
X62840Y22581D01*
X62789D01*
X62840Y22530D01*
X62789Y22479D01*
X62840D01*
X62890Y22428D01*
X47981Y32614D02*
X48082Y32715D01*
X48184D01*
X48082Y32817D01*
X48184Y32918D01*
X48082D01*
X47981Y33020D01*
X47879Y32918D01*
X47777D01*
X47879Y32817D01*
X47777Y32715D01*
X47879D01*
X47981Y32614D01*
Y32715D02*
X48031Y32766D01*
X48082D01*
X48031Y32817D01*
X48082Y32868D01*
X48031D01*
X47981Y32918D01*
X47930Y32868D01*
X47879D01*
X47930Y32817D01*
X47879Y32766D01*
X47930D01*
X47981Y32715D01*
X50521Y32614D02*
X50622Y32715D01*
X50724D01*
X50622Y32817D01*
X50724Y32918D01*
X50622D01*
X50521Y33020D01*
X50419Y32918D01*
X50317D01*
X50419Y32817D01*
X50317Y32715D01*
X50419D01*
X50521Y32614D01*
Y32715D02*
X50571Y32766D01*
X50622D01*
X50571Y32817D01*
X50622Y32868D01*
X50571D01*
X50521Y32918D01*
X50470Y32868D01*
X50419D01*
X50470Y32817D01*
X50419Y32766D01*
X50470D01*
X50521Y32715D01*
X47981Y30074D02*
X48082Y30175D01*
X48184D01*
X48082Y30277D01*
X48184Y30378D01*
X48082D01*
X47981Y30480D01*
X47879Y30378D01*
X47777D01*
X47879Y30277D01*
X47777Y30175D01*
X47879D01*
X47981Y30074D01*
Y30175D02*
X48031Y30226D01*
X48082D01*
X48031Y30277D01*
X48082Y30328D01*
X48031D01*
X47981Y30378D01*
X47930Y30328D01*
X47879D01*
X47930Y30277D01*
X47879Y30226D01*
X47930D01*
X47981Y30175D01*
X50521Y30074D02*
X50622Y30175D01*
X50724D01*
X50622Y30277D01*
X50724Y30378D01*
X50622D01*
X50521Y30480D01*
X50419Y30378D01*
X50317D01*
X50419Y30277D01*
X50317Y30175D01*
X50419D01*
X50521Y30074D01*
Y30175D02*
X50571Y30226D01*
X50622D01*
X50571Y30277D01*
X50622Y30328D01*
X50571D01*
X50521Y30378D01*
X50470Y30328D01*
X50419D01*
X50470Y30277D01*
X50419Y30226D01*
X50470D01*
X50521Y30175D01*
X47981Y27534D02*
X48082Y27635D01*
X48184D01*
X48082Y27737D01*
X48184Y27838D01*
X48082D01*
X47981Y27940D01*
X47879Y27838D01*
X47777D01*
X47879Y27737D01*
X47777Y27635D01*
X47879D01*
X47981Y27534D01*
Y27635D02*
X48031Y27686D01*
X48082D01*
X48031Y27737D01*
X48082Y27788D01*
X48031D01*
X47981Y27838D01*
X47930Y27788D01*
X47879D01*
X47930Y27737D01*
X47879Y27686D01*
X47930D01*
X47981Y27635D01*
X50521Y27534D02*
X50622Y27635D01*
X50724D01*
X50622Y27737D01*
X50724Y27838D01*
X50622D01*
X50521Y27940D01*
X50419Y27838D01*
X50317D01*
X50419Y27737D01*
X50317Y27635D01*
X50419D01*
X50521Y27534D01*
Y27635D02*
X50571Y27686D01*
X50622D01*
X50571Y27737D01*
X50622Y27788D01*
X50571D01*
X50521Y27838D01*
X50470Y27788D01*
X50419D01*
X50470Y27737D01*
X50419Y27686D01*
X50470D01*
X50521Y27635D01*
X47981Y24994D02*
X48082Y25095D01*
X48184D01*
X48082Y25197D01*
X48184Y25298D01*
X48082D01*
X47981Y25400D01*
X47879Y25298D01*
X47777D01*
X47879Y25197D01*
X47777Y25095D01*
X47879D01*
X47981Y24994D01*
Y25095D02*
X48031Y25146D01*
X48082D01*
X48031Y25197D01*
X48082Y25248D01*
X48031D01*
X47981Y25298D01*
X47930Y25248D01*
X47879D01*
X47930Y25197D01*
X47879Y25146D01*
X47930D01*
X47981Y25095D01*
X50521Y24994D02*
X50622Y25095D01*
X50724D01*
X50622Y25197D01*
X50724Y25298D01*
X50622D01*
X50521Y25400D01*
X50419Y25298D01*
X50317D01*
X50419Y25197D01*
X50317Y25095D01*
X50419D01*
X50521Y24994D01*
Y25095D02*
X50571Y25146D01*
X50622D01*
X50571Y25197D01*
X50622Y25248D01*
X50571D01*
X50521Y25298D01*
X50470Y25248D01*
X50419D01*
X50470Y25197D01*
X50419Y25146D01*
X50470D01*
X50521Y25095D01*
X47981Y22454D02*
X48082Y22555D01*
X48184D01*
X48082Y22657D01*
X48184Y22758D01*
X48082D01*
X47981Y22860D01*
X47879Y22758D01*
X47777D01*
X47879Y22657D01*
X47777Y22555D01*
X47879D01*
X47981Y22454D01*
Y22555D02*
X48031Y22606D01*
X48082D01*
X48031Y22657D01*
X48082Y22708D01*
X48031D01*
X47981Y22758D01*
X47930Y22708D01*
X47879D01*
X47930Y22657D01*
X47879Y22606D01*
X47930D01*
X47981Y22555D01*
X50521Y22454D02*
X50622Y22555D01*
X50724D01*
X50622Y22657D01*
X50724Y22758D01*
X50622D01*
X50521Y22860D01*
X50419Y22758D01*
X50317D01*
X50419Y22657D01*
X50317Y22555D01*
X50419D01*
X50521Y22454D01*
Y22555D02*
X50571Y22606D01*
X50622D01*
X50571Y22657D01*
X50622Y22708D01*
X50571D01*
X50521Y22758D01*
X50470Y22708D01*
X50419D01*
X50470Y22657D01*
X50419Y22606D01*
X50470D01*
X50521Y22555D01*
X118012Y15773D02*
X118215Y15977D01*
X118419Y15773D01*
X118215Y15570D01*
X118012Y15773D01*
X112932D02*
X113135Y15977D01*
X113339Y15773D01*
X113135Y15570D01*
X112932Y15773D01*
X107725D02*
X107928Y15977D01*
X108132Y15773D01*
X107928Y15570D01*
X107725Y15773D01*
X102645D02*
X102848Y15977D01*
X103052Y15773D01*
X102848Y15570D01*
X102645Y15773D01*
X87151D02*
X87354Y15977D01*
X87558Y15773D01*
X87354Y15570D01*
X87151Y15773D01*
X82071D02*
X82274Y15977D01*
X82478Y15773D01*
X82274Y15570D01*
X82071Y15773D01*
X76864D02*
X77067Y15977D01*
X77271Y15773D01*
X77067Y15570D01*
X76864Y15773D01*
X71784D02*
X71987Y15977D01*
X72191Y15773D01*
X71987Y15570D01*
X71784Y15773D01*
X139297Y66370D02*
X139094Y66777D01*
X139501D01*
X139297Y66370D01*
Y68910D02*
X139094Y69317D01*
X139501D01*
X139297Y68910D01*
X121060Y41415D02*
X121162Y41618D01*
X121060Y41822D01*
X121263Y41720D01*
X121467Y41822D01*
X121365Y41618D01*
X121467Y41415D01*
X121263Y41517D01*
X121060Y41415D01*
X121162Y41517D02*
X121213Y41618D01*
X121162Y41720D01*
X121263Y41669D01*
X121365Y41720D01*
X121314Y41618D01*
X121365Y41517D01*
X121263Y41568D01*
X121162Y41517D01*
Y49017D02*
Y48915D01*
X121365D01*
Y49017D01*
X121467D01*
Y49220D01*
X121365D01*
Y49322D01*
X121162D01*
Y49220D01*
X121060D01*
Y49017D01*
X121162D01*
X121213Y49068D02*
Y49017D01*
X121314D01*
Y49068D01*
X121365D01*
Y49169D01*
X121314D01*
Y49220D01*
X121213D01*
Y49169D01*
X121162D01*
Y49068D01*
X121213D01*
X21721Y75641D02*
X21822D01*
X21924Y75743D01*
X22026Y75641D01*
X22127D01*
Y75743D01*
X22026Y75844D01*
X22127Y75946D01*
Y76048D01*
X22026D01*
X21924Y75946D01*
X21822Y76048D01*
X21721D01*
Y75946D01*
X21822Y75844D01*
X21721Y75743D01*
Y75641D01*
X21822Y75743D02*
X21873D01*
X21924Y75794D01*
X21975Y75743D01*
X22026D01*
Y75794D01*
X21975Y75844D01*
X22026Y75895D01*
Y75946D01*
X21975D01*
X21924Y75895D01*
X21873Y75946D01*
X21822D01*
Y75895D01*
X21873Y75844D01*
X21822Y75794D01*
Y75743D01*
X28731Y75641D02*
X28833D01*
X28934Y75743D01*
X29036Y75641D01*
X29138D01*
Y75743D01*
X29036Y75844D01*
X29138Y75946D01*
Y76048D01*
X29036D01*
X28934Y75946D01*
X28833Y76048D01*
X28731D01*
Y75946D01*
X28833Y75844D01*
X28731Y75743D01*
Y75641D01*
X28833Y75743D02*
X28884D01*
X28934Y75794D01*
X28985Y75743D01*
X29036D01*
Y75794D01*
X28985Y75844D01*
X29036Y75895D01*
Y75946D01*
X28985D01*
X28934Y75895D01*
X28884Y75946D01*
X28833D01*
Y75895D01*
X28884Y75844D01*
X28833Y75794D01*
Y75743D01*
X12856Y54940D02*
X12958D01*
X13059Y55042D01*
X13161Y54940D01*
X13263D01*
Y55042D01*
X13161Y55143D01*
X13263Y55245D01*
Y55347D01*
X13161D01*
X13059Y55245D01*
X12958Y55347D01*
X12856D01*
Y55245D01*
X12958Y55143D01*
X12856Y55042D01*
Y54940D01*
X12958Y55042D02*
X13009D01*
X13059Y55093D01*
X13110Y55042D01*
X13161D01*
Y55093D01*
X13110Y55143D01*
X13161Y55194D01*
Y55245D01*
X13110D01*
X13059Y55194D01*
X13009Y55245D01*
X12958D01*
Y55194D01*
X13009Y55143D01*
X12958Y55093D01*
Y55042D01*
X12856Y47930D02*
X12958D01*
X13059Y48031D01*
X13161Y47930D01*
X13263D01*
Y48031D01*
X13161Y48133D01*
X13263Y48235D01*
Y48336D01*
X13161D01*
X13059Y48235D01*
X12958Y48336D01*
X12856D01*
Y48235D01*
X12958Y48133D01*
X12856Y48031D01*
Y47930D01*
X12958Y48031D02*
X13009D01*
X13059Y48082D01*
X13110Y48031D01*
X13161D01*
Y48082D01*
X13110Y48133D01*
X13161Y48184D01*
Y48235D01*
X13110D01*
X13059Y48184D01*
X13009Y48235D01*
X12958D01*
Y48184D01*
X13009Y48133D01*
X12958Y48082D01*
Y48031D01*
X55604Y41097D02*
X55706Y41199D01*
X55808D01*
X55706Y41300D01*
X55808Y41402D01*
X55706D01*
X55604Y41504D01*
X55503Y41402D01*
X55401D01*
X55503Y41300D01*
X55401Y41199D01*
X55503D01*
X55604Y41097D01*
Y41199D02*
X55655Y41250D01*
X55706D01*
X55655Y41300D01*
X55706Y41351D01*
X55655D01*
X55604Y41402D01*
X55554Y41351D01*
X55503D01*
X55554Y41300D01*
X55503Y41250D01*
X55554D01*
X55604Y41199D01*
X58144Y41097D02*
X58246Y41199D01*
X58348D01*
X58246Y41300D01*
X58348Y41402D01*
X58246D01*
X58144Y41504D01*
X58043Y41402D01*
X57941D01*
X58043Y41300D01*
X57941Y41199D01*
X58043D01*
X58144Y41097D01*
Y41199D02*
X58195Y41250D01*
X58246D01*
X58195Y41300D01*
X58246Y41351D01*
X58195D01*
X58144Y41402D01*
X58094Y41351D01*
X58043D01*
X58094Y41300D01*
X58043Y41250D01*
X58094D01*
X58144Y41199D01*
X60684Y41097D02*
X60786Y41199D01*
X60888D01*
X60786Y41300D01*
X60888Y41402D01*
X60786D01*
X60684Y41504D01*
X60583Y41402D01*
X60481D01*
X60583Y41300D01*
X60481Y41199D01*
X60583D01*
X60684Y41097D01*
Y41199D02*
X60735Y41250D01*
X60786D01*
X60735Y41300D01*
X60786Y41351D01*
X60735D01*
X60684Y41402D01*
X60634Y41351D01*
X60583D01*
X60634Y41300D01*
X60583Y41250D01*
X60634D01*
X60684Y41199D01*
X63224Y41097D02*
X63326Y41199D01*
X63428D01*
X63326Y41300D01*
X63428Y41402D01*
X63326D01*
X63224Y41504D01*
X63123Y41402D01*
X63021D01*
X63123Y41300D01*
X63021Y41199D01*
X63123D01*
X63224Y41097D01*
Y41199D02*
X63275Y41250D01*
X63326D01*
X63275Y41300D01*
X63326Y41351D01*
X63275D01*
X63224Y41402D01*
X63174Y41351D01*
X63123D01*
X63174Y41300D01*
X63123Y41250D01*
X63174D01*
X63224Y41199D01*
X55604Y43637D02*
X55706Y43739D01*
X55808D01*
X55706Y43840D01*
X55808Y43942D01*
X55706D01*
X55604Y44044D01*
X55503Y43942D01*
X55401D01*
X55503Y43840D01*
X55401Y43739D01*
X55503D01*
X55604Y43637D01*
Y43739D02*
X55655Y43790D01*
X55706D01*
X55655Y43840D01*
X55706Y43891D01*
X55655D01*
X55604Y43942D01*
X55554Y43891D01*
X55503D01*
X55554Y43840D01*
X55503Y43790D01*
X55554D01*
X55604Y43739D01*
X58144Y43637D02*
X58246Y43739D01*
X58348D01*
X58246Y43840D01*
X58348Y43942D01*
X58246D01*
X58144Y44044D01*
X58043Y43942D01*
X57941D01*
X58043Y43840D01*
X57941Y43739D01*
X58043D01*
X58144Y43637D01*
Y43739D02*
X58195Y43790D01*
X58246D01*
X58195Y43840D01*
X58246Y43891D01*
X58195D01*
X58144Y43942D01*
X58094Y43891D01*
X58043D01*
X58094Y43840D01*
X58043Y43790D01*
X58094D01*
X58144Y43739D01*
X60684Y43637D02*
X60786Y43739D01*
X60888D01*
X60786Y43840D01*
X60888Y43942D01*
X60786D01*
X60684Y44044D01*
X60583Y43942D01*
X60481D01*
X60583Y43840D01*
X60481Y43739D01*
X60583D01*
X60684Y43637D01*
Y43739D02*
X60735Y43790D01*
X60786D01*
X60735Y43840D01*
X60786Y43891D01*
X60735D01*
X60684Y43942D01*
X60634Y43891D01*
X60583D01*
X60634Y43840D01*
X60583Y43790D01*
X60634D01*
X60684Y43739D01*
X63224Y43637D02*
X63326Y43739D01*
X63428D01*
X63326Y43840D01*
X63428Y43942D01*
X63326D01*
X63224Y44044D01*
X63123Y43942D01*
X63021D01*
X63123Y43840D01*
X63021Y43739D01*
X63123D01*
X63224Y43637D01*
Y43739D02*
X63275Y43790D01*
X63326D01*
X63275Y43840D01*
X63326Y43891D01*
X63275D01*
X63224Y43942D01*
X63174Y43891D01*
X63123D01*
X63174Y43840D01*
X63123Y43790D01*
X63174D01*
X63224Y43739D01*
X22635Y84861D02*
X22838Y85065D01*
X23042Y84861D01*
X22838Y84658D01*
X22635Y84861D01*
X27715D02*
X27918Y85065D01*
X28122Y84861D01*
X27918Y84658D01*
X27715Y84861D01*
X3230Y3150D02*
Y3488D01*
X3399Y3657D01*
X3568Y3488D01*
Y3150D01*
Y3404D01*
X3230D01*
X153445Y3226D02*
Y3564D01*
X153615Y3734D01*
X153784Y3564D01*
Y3226D01*
Y3480D01*
X153445D01*
Y96876D02*
Y97214D01*
X153615Y97383D01*
X153784Y97214D01*
Y96876D01*
Y97130D01*
X153445D01*
X3179Y96977D02*
Y97316D01*
X3348Y97485D01*
X3517Y97316D01*
Y96977D01*
Y97231D01*
X3179D01*
X71907Y71196D02*
Y70688D01*
X72161D01*
X72246Y70773D01*
Y70857D01*
X72161Y70942D01*
X71907D01*
X72161D01*
X72246Y71027D01*
Y71111D01*
X72161Y71196D01*
X71907D01*
X71374Y58445D02*
Y57937D01*
X71628D01*
X71713Y58022D01*
Y58107D01*
X71628Y58191D01*
X71374D01*
X71628D01*
X71713Y58276D01*
Y58361D01*
X71628Y58445D01*
X71374D01*
X56566Y20879D02*
Y20371D01*
X56820D01*
X56904Y20455D01*
Y20540D01*
X56820Y20625D01*
X56566D01*
X56820D01*
X56904Y20709D01*
Y20794D01*
X56820Y20879D01*
X56566D01*
X56540Y19405D02*
Y18898D01*
X56794D01*
X56879Y18982D01*
Y19067D01*
X56794Y19152D01*
X56540D01*
X56794D01*
X56879Y19236D01*
Y19321D01*
X56794Y19405D01*
X56540D01*
X56566Y20142D02*
Y19634D01*
X56820D01*
X56904Y19719D01*
Y19803D01*
X56820Y19888D01*
X56566D01*
X56820D01*
X56904Y19973D01*
Y20057D01*
X56820Y20142D01*
X56566D01*
X57328Y25171D02*
Y24663D01*
X57582D01*
X57666Y24748D01*
Y24833D01*
X57582Y24917D01*
X57328D01*
X57582D01*
X57666Y25002D01*
Y25087D01*
X57582Y25171D01*
X57328D01*
X137011Y85496D02*
Y84988D01*
X137265D01*
X137350Y85073D01*
Y85158D01*
X137265Y85242D01*
X137011D01*
X137265D01*
X137350Y85327D01*
Y85412D01*
X137265Y85496D01*
X137011D01*
X139551Y80416D02*
Y79908D01*
X139805D01*
X139890Y79993D01*
Y80078D01*
X139805Y80162D01*
X139551D01*
X139805D01*
X139890Y80247D01*
Y80332D01*
X139805Y80416D01*
X139551D01*
Y60096D02*
Y59588D01*
X139805D01*
X139890Y59673D01*
Y59758D01*
X139805Y59842D01*
X139551D01*
X139805D01*
X139890Y59927D01*
Y60012D01*
X139805Y60096D01*
X139551D01*
Y39776D02*
Y39268D01*
X139805D01*
X139890Y39353D01*
Y39438D01*
X139805Y39522D01*
X139551D01*
X139805D01*
X139890Y39607D01*
Y39692D01*
X139805Y39776D01*
X139551D01*
Y29616D02*
Y29108D01*
X139805D01*
X139890Y29193D01*
Y29278D01*
X139805Y29362D01*
X139551D01*
X139805D01*
X139890Y29447D01*
Y29532D01*
X139805Y29616D01*
X139551D01*
Y19456D02*
Y18948D01*
X139805D01*
X139890Y19033D01*
Y19118D01*
X139805Y19202D01*
X139551D01*
X139805D01*
X139890Y19287D01*
Y19372D01*
X139805Y19456D01*
X139551D01*
X137011Y14376D02*
Y13868D01*
X137265D01*
X137350Y13953D01*
Y14038D01*
X137265Y14122D01*
X137011D01*
X137265D01*
X137350Y14207D01*
Y14292D01*
X137265Y14376D01*
X137011D01*
X131931Y85496D02*
Y84988D01*
X132185D01*
X132270Y85073D01*
Y85158D01*
X132185Y85242D01*
X131931D01*
X132185D01*
X132270Y85327D01*
Y85412D01*
X132185Y85496D01*
X131931D01*
X134471Y80416D02*
Y79908D01*
X134725D01*
X134810Y79993D01*
Y80078D01*
X134725Y80162D01*
X134471D01*
X134725D01*
X134810Y80247D01*
Y80332D01*
X134725Y80416D01*
X134471D01*
X131931Y34696D02*
Y34188D01*
X132185D01*
X132270Y34273D01*
Y34358D01*
X132185Y34442D01*
X131931D01*
X132185D01*
X132270Y34527D01*
Y34612D01*
X132185Y34696D01*
X131931D01*
Y14376D02*
Y13868D01*
X132185D01*
X132270Y13953D01*
Y14038D01*
X132185Y14122D01*
X131931D01*
X132185D01*
X132270Y14207D01*
Y14292D01*
X132185Y14376D01*
X131931D01*
X129391Y80416D02*
Y79908D01*
X129645D01*
X129730Y79993D01*
Y80078D01*
X129645Y80162D01*
X129391D01*
X129645D01*
X129730Y80247D01*
Y80332D01*
X129645Y80416D01*
X129391D01*
X126851Y44856D02*
Y44348D01*
X127105D01*
X127190Y44433D01*
Y44518D01*
X127105Y44602D01*
X126851D01*
X127105D01*
X127190Y44687D01*
Y44772D01*
X127105Y44856D01*
X126851D01*
Y34696D02*
Y34188D01*
X127105D01*
X127190Y34273D01*
Y34358D01*
X127105Y34442D01*
X126851D01*
X127105D01*
X127190Y34527D01*
Y34612D01*
X127105Y34696D01*
X126851D01*
X129391Y19456D02*
Y18948D01*
X129645D01*
X129730Y19033D01*
Y19118D01*
X129645Y19202D01*
X129391D01*
X129645D01*
X129730Y19287D01*
Y19372D01*
X129645Y19456D01*
X129391D01*
X126851Y14376D02*
Y13868D01*
X127105D01*
X127190Y13953D01*
Y14038D01*
X127105Y14122D01*
X126851D01*
X127105D01*
X127190Y14207D01*
Y14292D01*
X127105Y14376D01*
X126851D01*
X124311Y49936D02*
Y49428D01*
X124565D01*
X124650Y49513D01*
Y49598D01*
X124565Y49682D01*
X124311D01*
X124565D01*
X124650Y49767D01*
Y49852D01*
X124565Y49936D01*
X124311D01*
Y39776D02*
Y39268D01*
X124565D01*
X124650Y39353D01*
Y39438D01*
X124565Y39522D01*
X124311D01*
X124565D01*
X124650Y39607D01*
Y39692D01*
X124565Y39776D01*
X124311D01*
X121771Y34696D02*
Y34188D01*
X122025D01*
X122110Y34273D01*
Y34358D01*
X122025Y34442D01*
X121771D01*
X122025D01*
X122110Y34527D01*
Y34612D01*
X122025Y34696D01*
X121771D01*
X124311Y19456D02*
Y18948D01*
X124565D01*
X124650Y19033D01*
Y19118D01*
X124565Y19202D01*
X124311D01*
X124565D01*
X124650Y19287D01*
Y19372D01*
X124565Y19456D01*
X124311D01*
X116691Y55016D02*
Y54508D01*
X116945D01*
X117030Y54593D01*
Y54678D01*
X116945Y54762D01*
X116691D01*
X116945D01*
X117030Y54847D01*
Y54932D01*
X116945Y55016D01*
X116691D01*
X119231Y49936D02*
Y49428D01*
X119485D01*
X119570Y49513D01*
Y49598D01*
X119485Y49682D01*
X119231D01*
X119485D01*
X119570Y49767D01*
Y49852D01*
X119485Y49936D01*
X119231D01*
Y39776D02*
Y39268D01*
X119485D01*
X119570Y39353D01*
Y39438D01*
X119485Y39522D01*
X119231D01*
X119485D01*
X119570Y39607D01*
Y39692D01*
X119485Y39776D01*
X119231D01*
X116691Y34696D02*
Y34188D01*
X116945D01*
X117030Y34273D01*
Y34358D01*
X116945Y34442D01*
X116691D01*
X116945D01*
X117030Y34527D01*
Y34612D01*
X116945Y34696D01*
X116691D01*
X119231Y19456D02*
Y18948D01*
X119485D01*
X119570Y19033D01*
Y19118D01*
X119485Y19202D01*
X119231D01*
X119485D01*
X119570Y19287D01*
Y19372D01*
X119485Y19456D01*
X119231D01*
X111611Y55016D02*
Y54508D01*
X111865D01*
X111950Y54593D01*
Y54678D01*
X111865Y54762D01*
X111611D01*
X111865D01*
X111950Y54847D01*
Y54932D01*
X111865Y55016D01*
X111611D01*
X114151Y49936D02*
Y49428D01*
X114405D01*
X114490Y49513D01*
Y49598D01*
X114405Y49682D01*
X114151D01*
X114405D01*
X114490Y49767D01*
Y49852D01*
X114405Y49936D01*
X114151D01*
Y39776D02*
Y39268D01*
X114405D01*
X114490Y39353D01*
Y39438D01*
X114405Y39522D01*
X114151D01*
X114405D01*
X114490Y39607D01*
Y39692D01*
X114405Y39776D01*
X114151D01*
X111611Y34696D02*
Y34188D01*
X111865D01*
X111950Y34273D01*
Y34358D01*
X111865Y34442D01*
X111611D01*
X111865D01*
X111950Y34527D01*
Y34612D01*
X111865Y34696D01*
X111611D01*
X101451Y55016D02*
Y54508D01*
X101705D01*
X101790Y54593D01*
Y54678D01*
X101705Y54762D01*
X101451D01*
X101705D01*
X101790Y54847D01*
Y54932D01*
X101705Y55016D01*
X101451D01*
X96371Y44856D02*
Y44348D01*
X96625D01*
X96710Y44433D01*
Y44518D01*
X96625Y44602D01*
X96371D01*
X96625D01*
X96710Y44687D01*
Y44772D01*
X96625Y44856D01*
X96371D01*
X81131Y55016D02*
Y54508D01*
X81385D01*
X81470Y54593D01*
Y54678D01*
X81385Y54762D01*
X81131D01*
X81385D01*
X81470Y54847D01*
Y54932D01*
X81385Y55016D01*
X81131D01*
Y14376D02*
Y13868D01*
X81385D01*
X81470Y13953D01*
Y14038D01*
X81385Y14122D01*
X81131D01*
X81385D01*
X81470Y14207D01*
Y14292D01*
X81385Y14376D01*
X81131D01*
X76051Y55016D02*
Y54508D01*
X76305D01*
X76390Y54593D01*
Y54678D01*
X76305Y54762D01*
X76051D01*
X76305D01*
X76390Y54847D01*
Y54932D01*
X76305Y55016D01*
X76051D01*
Y14376D02*
Y13868D01*
X76305D01*
X76390Y13953D01*
Y14038D01*
X76305Y14122D01*
X76051D01*
X76305D01*
X76390Y14207D01*
Y14292D01*
X76305Y14376D01*
X76051D01*
X70971Y85496D02*
Y84988D01*
X71225D01*
X71310Y85073D01*
Y85158D01*
X71225Y85242D01*
X70971D01*
X71225D01*
X71310Y85327D01*
Y85412D01*
X71225Y85496D01*
X70971D01*
X73511Y60096D02*
Y59588D01*
X73765D01*
X73850Y59673D01*
Y59758D01*
X73765Y59842D01*
X73511D01*
X73765D01*
X73850Y59927D01*
Y60012D01*
X73765Y60096D01*
X73511D01*
X70971Y34696D02*
Y34188D01*
X71225D01*
X71310Y34273D01*
Y34358D01*
X71225Y34442D01*
X70971D01*
X71225D01*
X71310Y34527D01*
Y34612D01*
X71225Y34696D01*
X70971D01*
X73511Y29616D02*
Y29108D01*
X73765D01*
X73850Y29193D01*
Y29278D01*
X73765Y29362D01*
X73511D01*
X73765D01*
X73850Y29447D01*
Y29532D01*
X73765Y29616D01*
X73511D01*
X70971Y24536D02*
Y24028D01*
X71225D01*
X71310Y24113D01*
Y24198D01*
X71225Y24282D01*
X70971D01*
X71225D01*
X71310Y24367D01*
Y24452D01*
X71225Y24536D01*
X70971D01*
Y14376D02*
Y13868D01*
X71225D01*
X71310Y13953D01*
Y14038D01*
X71225Y14122D01*
X70971D01*
X71225D01*
X71310Y14207D01*
Y14292D01*
X71225Y14376D01*
X70971D01*
X65891Y85496D02*
Y84988D01*
X66145D01*
X66230Y85073D01*
Y85158D01*
X66145Y85242D01*
X65891D01*
X66145D01*
X66230Y85327D01*
Y85412D01*
X66145Y85496D01*
X65891D01*
X68431Y29616D02*
Y29108D01*
X68685D01*
X68770Y29193D01*
Y29278D01*
X68685Y29362D01*
X68431D01*
X68685D01*
X68770Y29447D01*
Y29532D01*
X68685Y29616D01*
X68431D01*
X65891Y24536D02*
Y24028D01*
X66145D01*
X66230Y24113D01*
Y24198D01*
X66145Y24282D01*
X65891D01*
X66145D01*
X66230Y24367D01*
Y24452D01*
X66145Y24536D01*
X65891D01*
X60811Y34696D02*
Y34188D01*
X61065D01*
X61150Y34273D01*
Y34358D01*
X61065Y34442D01*
X60811D01*
X61065D01*
X61150Y34527D01*
Y34612D01*
X61065Y34696D01*
X60811D01*
X58271Y39776D02*
Y39268D01*
X58525D01*
X58610Y39353D01*
Y39438D01*
X58525Y39522D01*
X58271D01*
X58525D01*
X58610Y39607D01*
Y39692D01*
X58525Y39776D01*
X58271D01*
X50651Y34696D02*
Y34188D01*
X50905D01*
X50990Y34273D01*
Y34358D01*
X50905Y34442D01*
X50651D01*
X50905D01*
X50990Y34527D01*
Y34612D01*
X50905Y34696D01*
X50651D01*
Y14376D02*
Y13868D01*
X50905D01*
X50990Y13953D01*
Y14038D01*
X50905Y14122D01*
X50651D01*
X50905D01*
X50990Y14207D01*
Y14292D01*
X50905Y14376D01*
X50651D01*
X45571Y75336D02*
Y74828D01*
X45825D01*
X45910Y74913D01*
Y74998D01*
X45825Y75082D01*
X45571D01*
X45825D01*
X45910Y75167D01*
Y75252D01*
X45825Y75336D01*
X45571D01*
Y24536D02*
Y24028D01*
X45825D01*
X45910Y24113D01*
Y24198D01*
X45825Y24282D01*
X45571D01*
X45825D01*
X45910Y24367D01*
Y24452D01*
X45825Y24536D01*
X45571D01*
X43031Y80416D02*
Y79908D01*
X43285D01*
X43370Y79993D01*
Y80078D01*
X43285Y80162D01*
X43031D01*
X43285D01*
X43370Y80247D01*
Y80332D01*
X43285Y80416D01*
X43031D01*
Y60096D02*
Y59588D01*
X43285D01*
X43370Y59673D01*
Y59758D01*
X43285Y59842D01*
X43031D01*
X43285D01*
X43370Y59927D01*
Y60012D01*
X43285Y60096D01*
X43031D01*
Y19456D02*
Y18948D01*
X43285D01*
X43370Y19033D01*
Y19118D01*
X43285Y19202D01*
X43031D01*
X43285D01*
X43370Y19287D01*
Y19372D01*
X43285Y19456D01*
X43031D01*
X40491Y14376D02*
Y13868D01*
X40745D01*
X40830Y13953D01*
Y14038D01*
X40745Y14122D01*
X40491D01*
X40745D01*
X40830Y14207D01*
Y14292D01*
X40745Y14376D01*
X40491D01*
X35411D02*
Y13868D01*
X35665D01*
X35750Y13953D01*
Y14038D01*
X35665Y14122D01*
X35411D01*
X35665D01*
X35750Y14207D01*
Y14292D01*
X35665Y14376D01*
X35411D01*
X32871Y29616D02*
Y29108D01*
X33125D01*
X33210Y29193D01*
Y29278D01*
X33125Y29362D01*
X32871D01*
X33125D01*
X33210Y29447D01*
Y29532D01*
X33125Y29616D01*
X32871D01*
X30331Y14376D02*
Y13868D01*
X30585D01*
X30670Y13953D01*
Y14038D01*
X30585Y14122D01*
X30331D01*
X30585D01*
X30670Y14207D01*
Y14292D01*
X30585Y14376D01*
X30331D01*
X17631Y29616D02*
Y29108D01*
X17885D01*
X17970Y29193D01*
Y29278D01*
X17885Y29362D01*
X17631D01*
X17885D01*
X17970Y29447D01*
Y29532D01*
X17885Y29616D01*
X17631D01*
X15091Y14376D02*
Y13868D01*
X15345D01*
X15430Y13953D01*
Y14038D01*
X15345Y14122D01*
X15091D01*
X15345D01*
X15430Y14207D01*
Y14292D01*
X15345Y14376D01*
X15091D01*
X53049Y52952D02*
Y52444D01*
X53303D01*
X53388Y52529D01*
Y52613D01*
X53303Y52698D01*
X53049D01*
X53303D01*
X53388Y52783D01*
Y52867D01*
X53303Y52952D01*
X53049D01*
X85954Y44501D02*
Y43993D01*
X86208D01*
X86292Y44077D01*
Y44162D01*
X86208Y44247D01*
X85954D01*
X86208D01*
X86292Y44331D01*
Y44416D01*
X86208Y44501D01*
X85954D01*
X92685Y43434D02*
Y42926D01*
X92939D01*
X93023Y43011D01*
Y43095D01*
X92939Y43180D01*
X92685D01*
X92939D01*
X93023Y43265D01*
Y43349D01*
X92939Y43434D01*
X92685D01*
X103784Y62636D02*
Y62128D01*
X104038D01*
X104123Y62213D01*
Y62298D01*
X104038Y62382D01*
X103784D01*
X104038D01*
X104123Y62467D01*
Y62552D01*
X104038Y62636D01*
X103784D01*
X120345Y62738D02*
Y62230D01*
X120599D01*
X120684Y62315D01*
Y62399D01*
X120599Y62484D01*
X120345D01*
X120599D01*
X120684Y62569D01*
Y62653D01*
X120599Y62738D01*
X120345D01*
X109880Y62535D02*
Y62027D01*
X110134D01*
X110219Y62111D01*
Y62196D01*
X110134Y62281D01*
X109880D01*
X110134D01*
X110219Y62365D01*
Y62450D01*
X110134Y62535D01*
X109880D01*
X102743Y58648D02*
Y58141D01*
X102997D01*
X103082Y58225D01*
Y58310D01*
X102997Y58395D01*
X102743D01*
X102997D01*
X103082Y58479D01*
Y58564D01*
X102997Y58648D01*
X102743D01*
X98984Y61646D02*
Y61138D01*
X99238D01*
X99322Y61222D01*
Y61307D01*
X99238Y61392D01*
X98984D01*
X99238D01*
X99322Y61476D01*
Y61561D01*
X99238Y61646D01*
X98984D01*
X41605Y35306D02*
Y34798D01*
X41859D01*
X41944Y34883D01*
Y34967D01*
X41859Y35052D01*
X41605D01*
X41859D01*
X41944Y35137D01*
Y35221D01*
X41859Y35306D01*
X41605D01*
X41478Y52425D02*
Y51918D01*
X41732D01*
X41817Y52002D01*
Y52087D01*
X41732Y52172D01*
X41478D01*
X41732D01*
X41817Y52256D01*
Y52341D01*
X41732Y52425D01*
X41478D01*
X60554Y11709D02*
Y11201D01*
X60808D01*
X60892Y11286D01*
Y11371D01*
X60808Y11455D01*
X60554D01*
X60808D01*
X60892Y11540D01*
Y11625D01*
X60808Y11709D01*
X60554D01*
X68707Y61925D02*
Y61417D01*
X68961D01*
X69046Y61502D01*
Y61586D01*
X68961Y61671D01*
X68707D01*
X68961D01*
X69046Y61756D01*
Y61840D01*
X68961Y61925D01*
X68707D01*
X73727Y73392D02*
Y72884D01*
X73980D01*
X74065Y72968D01*
Y73053D01*
X73980Y73138D01*
X73727D01*
X73980D01*
X74065Y73222D01*
Y73307D01*
X73980Y73392D01*
X73727D01*
X73050Y74727D02*
Y74219D01*
X73304D01*
X73389Y74303D01*
Y74388D01*
X73304Y74473D01*
X73050D01*
X73304D01*
X73389Y74557D01*
Y74642D01*
X73304Y74727D01*
X73050D01*
X79553Y66091D02*
Y65583D01*
X79807D01*
X79891Y65667D01*
Y65752D01*
X79807Y65837D01*
X79553D01*
X79807D01*
X79891Y65921D01*
Y66006D01*
X79807Y66091D01*
X79553D01*
X77546Y74346D02*
Y73838D01*
X77800D01*
X77885Y73922D01*
Y74007D01*
X77800Y74092D01*
X77546D01*
X77800D01*
X77885Y74176D01*
Y74261D01*
X77800Y74346D01*
X77546D01*
X79096Y74066D02*
Y73558D01*
X79350D01*
X79434Y73643D01*
Y73728D01*
X79350Y73812D01*
X79096D01*
X79350D01*
X79434Y73897D01*
Y73982D01*
X79350Y74066D01*
X79096D01*
X59741Y63246D02*
Y62738D01*
X59995D01*
X60079Y62823D01*
Y62907D01*
X59995Y62992D01*
X59741D01*
X59995D01*
X60079Y63077D01*
Y63161D01*
X59995Y63246D01*
X59741D01*
X64592Y65735D02*
Y65227D01*
X64846D01*
X64931Y65312D01*
Y65396D01*
X64846Y65481D01*
X64592D01*
X64846D01*
X64931Y65566D01*
Y65650D01*
X64846Y65735D01*
X64592D01*
X73355Y53695D02*
Y53188D01*
X73609D01*
X73694Y53272D01*
Y53357D01*
X73609Y53442D01*
X73355D01*
X73609D01*
X73694Y53526D01*
Y53611D01*
X73609Y53695D01*
X73355D01*
X71196Y49301D02*
Y48793D01*
X71450D01*
X71535Y48878D01*
Y48963D01*
X71450Y49047D01*
X71196D01*
X71450D01*
X71535Y49132D01*
Y49217D01*
X71450Y49301D01*
X71196D01*
X65126Y46431D02*
Y45923D01*
X65380D01*
X65464Y46008D01*
Y46092D01*
X65380Y46177D01*
X65126D01*
X65380D01*
X65464Y46262D01*
Y46346D01*
X65380Y46431D01*
X65126D01*
X68453Y41453D02*
Y40945D01*
X68707D01*
X68792Y41029D01*
Y41114D01*
X68707Y41199D01*
X68453D01*
X68707D01*
X68792Y41283D01*
Y41368D01*
X68707Y41453D01*
X68453D01*
X80950Y59258D02*
Y58750D01*
X81204D01*
X81288Y58835D01*
Y58919D01*
X81204Y59004D01*
X80950D01*
X81204D01*
X81288Y59089D01*
Y59173D01*
X81204Y59258D01*
X80950D01*
X56794Y66573D02*
Y66065D01*
X57048D01*
X57133Y66150D01*
Y66235D01*
X57048Y66319D01*
X56794D01*
X57048D01*
X57133Y66404D01*
Y66489D01*
X57048Y66573D01*
X56794D01*
X50495Y56972D02*
Y56464D01*
X50749D01*
X50834Y56549D01*
Y56633D01*
X50749Y56718D01*
X50495D01*
X50749D01*
X50834Y56803D01*
Y56887D01*
X50749Y56972D01*
X50495D01*
X78816Y62331D02*
Y61824D01*
X79070D01*
X79155Y61908D01*
Y61993D01*
X79070Y62078D01*
X78816D01*
X79070D01*
X79155Y62162D01*
Y62247D01*
X79070Y62331D01*
X78816D01*
X54407Y62103D02*
Y61595D01*
X54661D01*
X54745Y61680D01*
Y61764D01*
X54661Y61849D01*
X54407D01*
X54661D01*
X54745Y61934D01*
Y62018D01*
X54661Y62103D01*
X54407D01*
X31572Y35636D02*
Y35128D01*
X31826D01*
X31911Y35213D01*
Y35297D01*
X31826Y35382D01*
X31572D01*
X31826D01*
X31911Y35467D01*
Y35551D01*
X31826Y35636D01*
X31572D01*
X57164Y58374D02*
Y57866D01*
X57418D01*
X57502Y57951D01*
Y58035D01*
X57418Y58120D01*
X57164D01*
X57418D01*
X57502Y58205D01*
Y58289D01*
X57418Y58374D01*
X57164D01*
X54461Y58267D02*
Y57760D01*
X54715D01*
X54800Y57844D01*
Y57929D01*
X54715Y58014D01*
X54461D01*
X54715D01*
X54800Y58098D01*
Y58183D01*
X54715Y58267D01*
X54461D01*
X36351Y16561D02*
Y16053D01*
X36605D01*
X36690Y16137D01*
Y16222D01*
X36605Y16307D01*
X36351D01*
X36605D01*
X36690Y16391D01*
Y16476D01*
X36605Y16561D01*
X36351D01*
X16438Y15037D02*
Y14529D01*
X16692D01*
X16776Y14613D01*
Y14698D01*
X16692Y14783D01*
X16438D01*
X16692D01*
X16776Y14867D01*
Y14952D01*
X16692Y15037D01*
X16438D01*
X94873Y44399D02*
Y43891D01*
X95127D01*
X95211Y43976D01*
Y44060D01*
X95127Y44145D01*
X94873D01*
X95127D01*
X95211Y44230D01*
Y44314D01*
X95127Y44399D01*
X94873D01*
X35015Y49238D02*
Y48730D01*
X35269D01*
X35354Y48814D01*
Y48899D01*
X35269Y48984D01*
X35015D01*
X35269D01*
X35354Y49068D01*
Y49153D01*
X35269Y49238D01*
X35015D01*
X35801Y49279D02*
Y48771D01*
X36055D01*
X36140Y48856D01*
Y48940D01*
X36055Y49025D01*
X35801D01*
X36055D01*
X36140Y49110D01*
Y49194D01*
X36055Y49279D01*
X35801D01*
X99242Y54178D02*
Y53670D01*
X99496D01*
X99580Y53755D01*
Y53839D01*
X99496Y53924D01*
X99242D01*
X99496D01*
X99580Y54009D01*
Y54093D01*
X99496Y54178D01*
X99242D01*
X103737Y53314D02*
Y52807D01*
X103991D01*
X104076Y52891D01*
Y52976D01*
X103991Y53061D01*
X103737D01*
X103991D01*
X104076Y53145D01*
Y53230D01*
X103991Y53314D01*
X103737D01*
X85424Y65354D02*
Y64846D01*
X85678D01*
X85763Y64931D01*
Y65015D01*
X85678Y65100D01*
X85424D01*
X85678D01*
X85763Y65185D01*
Y65269D01*
X85678Y65354D01*
X85424D01*
X86948Y62052D02*
Y61544D01*
X87202D01*
X87287Y61629D01*
Y61713D01*
X87202Y61798D01*
X86948D01*
X87202D01*
X87287Y61883D01*
Y61967D01*
X87202Y62052D01*
X86948D01*
X73989Y34109D02*
Y33601D01*
X74243D01*
X74328Y33686D01*
Y33770D01*
X74243Y33855D01*
X73989D01*
X74243D01*
X74328Y33939D01*
Y34024D01*
X74243Y34109D01*
X73989D01*
X93501Y59309D02*
Y58801D01*
X93755D01*
X93840Y58886D01*
Y58970D01*
X93755Y59055D01*
X93501D01*
X93755D01*
X93840Y59140D01*
Y59224D01*
X93755Y59309D01*
X93501D01*
X49610Y44348D02*
Y43840D01*
X49864D01*
X49949Y43925D01*
Y44010D01*
X49864Y44094D01*
X49610D01*
X49864D01*
X49949Y44179D01*
Y44264D01*
X49864Y44348D01*
X49610D01*
X86643Y63779D02*
Y63271D01*
X86897D01*
X86982Y63356D01*
Y63441D01*
X86897Y63525D01*
X86643D01*
X86897D01*
X86982Y63610D01*
Y63695D01*
X86897Y63779D01*
X86643D01*
X74781Y52654D02*
Y52146D01*
X75035D01*
X75120Y52231D01*
Y52315D01*
X75035Y52400D01*
X74781D01*
X75035D01*
X75120Y52485D01*
Y52569D01*
X75035Y52654D01*
X74781D01*
X104756Y45724D02*
Y45216D01*
X105010D01*
X105095Y45300D01*
Y45385D01*
X105010Y45470D01*
X104756D01*
X105010D01*
X105095Y45554D01*
Y45639D01*
X105010Y45724D01*
X104756D01*
X118241Y71983D02*
Y71476D01*
X118495D01*
X118579Y71560D01*
Y71645D01*
X118495Y71730D01*
X118241D01*
X118495D01*
X118579Y71814D01*
Y71899D01*
X118495Y71983D01*
X118241D01*
X118944D02*
Y71476D01*
X119197D01*
X119282Y71560D01*
Y71645D01*
X119197Y71730D01*
X118944D01*
X119197D01*
X119282Y71814D01*
Y71899D01*
X119197Y71983D01*
X118944D01*
X119646D02*
Y71476D01*
X119900D01*
X119985Y71560D01*
Y71645D01*
X119900Y71730D01*
X119646D01*
X119900D01*
X119985Y71814D01*
Y71899D01*
X119900Y71983D01*
X119646D01*
X90021Y75082D02*
Y74574D01*
X90275D01*
X90360Y74659D01*
Y74744D01*
X90275Y74828D01*
X90021D01*
X90275D01*
X90360Y74913D01*
Y74998D01*
X90275Y75082D01*
X90021D01*
X89158Y74346D02*
Y73838D01*
X89412D01*
X89496Y73922D01*
Y74007D01*
X89412Y74092D01*
X89158D01*
X89412D01*
X89496Y74176D01*
Y74261D01*
X89412Y74346D01*
X89158D01*
X90021D02*
Y73838D01*
X90275D01*
X90360Y73922D01*
Y74007D01*
X90275Y74092D01*
X90021D01*
X90275D01*
X90360Y74176D01*
Y74261D01*
X90275Y74346D01*
X90021D01*
X89158Y73558D02*
Y73050D01*
X89412D01*
X89496Y73135D01*
Y73220D01*
X89412Y73304D01*
X89158D01*
X89412D01*
X89496Y73389D01*
Y73474D01*
X89412Y73558D01*
X89158D01*
X90021Y73507D02*
Y73000D01*
X90275D01*
X90360Y73084D01*
Y73169D01*
X90275Y73254D01*
X90021D01*
X90275D01*
X90360Y73338D01*
Y73423D01*
X90275Y73507D01*
X90021D01*
X89158Y75133D02*
Y74625D01*
X89412D01*
X89496Y74710D01*
Y74794D01*
X89412Y74879D01*
X89158D01*
X89412D01*
X89496Y74964D01*
Y75048D01*
X89412Y75133D01*
X89158D01*
X90021Y75920D02*
Y75413D01*
X90275D01*
X90360Y75497D01*
Y75582D01*
X90275Y75667D01*
X90021D01*
X90275D01*
X90360Y75751D01*
Y75836D01*
X90275Y75920D01*
X90021D01*
X89158D02*
Y75413D01*
X89412D01*
X89496Y75497D01*
Y75582D01*
X89412Y75667D01*
X89158D01*
X89412D01*
X89496Y75751D01*
Y75836D01*
X89412Y75920D01*
X89158D01*
X83468Y74244D02*
Y73736D01*
X83722D01*
X83807Y73821D01*
Y73905D01*
X83722Y73990D01*
X83468D01*
X83722D01*
X83807Y74075D01*
Y74159D01*
X83722Y74244D01*
X83468D01*
X84294D02*
Y73736D01*
X84548D01*
X84632Y73821D01*
Y73905D01*
X84548Y73990D01*
X84294D01*
X84548D01*
X84632Y74075D01*
Y74159D01*
X84548Y74244D01*
X84294D01*
X85119D02*
Y73736D01*
X85373D01*
X85458Y73821D01*
Y73905D01*
X85373Y73990D01*
X85119D01*
X85373D01*
X85458Y74075D01*
Y74159D01*
X85373Y74244D01*
X85119D01*
Y73457D02*
Y72949D01*
X85373D01*
X85458Y73033D01*
Y73118D01*
X85373Y73203D01*
X85119D01*
X85373D01*
X85458Y73287D01*
Y73372D01*
X85373Y73457D01*
X85119D01*
X84294D02*
Y72949D01*
X84548D01*
X84632Y73033D01*
Y73118D01*
X84548Y73203D01*
X84294D01*
X84548D01*
X84632Y73287D01*
Y73372D01*
X84548Y73457D01*
X84294D01*
X83468D02*
Y72949D01*
X83722D01*
X83807Y73033D01*
Y73118D01*
X83722Y73203D01*
X83468D01*
X83722D01*
X83807Y73287D01*
Y73372D01*
X83722Y73457D01*
X83468D01*
Y75844D02*
Y75336D01*
X83722D01*
X83807Y75421D01*
Y75506D01*
X83722Y75590D01*
X83468D01*
X83722D01*
X83807Y75675D01*
Y75760D01*
X83722Y75844D01*
X83468D01*
X84294D02*
Y75336D01*
X84548D01*
X84632Y75421D01*
Y75506D01*
X84548Y75590D01*
X84294D01*
X84548D01*
X84632Y75675D01*
Y75760D01*
X84548Y75844D01*
X84294D01*
X85119D02*
Y75336D01*
X85373D01*
X85458Y75421D01*
Y75506D01*
X85373Y75590D01*
X85119D01*
X85373D01*
X85458Y75675D01*
Y75760D01*
X85373Y75844D01*
X85119D01*
Y75057D02*
Y74549D01*
X85373D01*
X85458Y74634D01*
Y74718D01*
X85373Y74803D01*
X85119D01*
X85373D01*
X85458Y74888D01*
Y74972D01*
X85373Y75057D01*
X85119D01*
X84294D02*
Y74549D01*
X84548D01*
X84632Y74634D01*
Y74718D01*
X84548Y74803D01*
X84294D01*
X84548D01*
X84632Y74888D01*
Y74972D01*
X84548Y75057D01*
X84294D01*
X83468D02*
Y74549D01*
X83722D01*
X83807Y74634D01*
Y74718D01*
X83722Y74803D01*
X83468D01*
X83722D01*
X83807Y74888D01*
Y74972D01*
X83722Y75057D01*
X83468D01*
Y76632D02*
Y76124D01*
X83722D01*
X83807Y76208D01*
Y76293D01*
X83722Y76378D01*
X83468D01*
X83722D01*
X83807Y76462D01*
Y76547D01*
X83722Y76632D01*
X83468D01*
X84294D02*
Y76124D01*
X84548D01*
X84632Y76208D01*
Y76293D01*
X84548Y76378D01*
X84294D01*
X84548D01*
X84632Y76462D01*
Y76547D01*
X84548Y76632D01*
X84294D01*
X85119D02*
Y76124D01*
X85373D01*
X85458Y76208D01*
Y76293D01*
X85373Y76378D01*
X85119D01*
X85373D01*
X85458Y76462D01*
Y76547D01*
X85373Y76632D01*
X85119D01*
Y77419D02*
Y76911D01*
X85373D01*
X85458Y76996D01*
Y77080D01*
X85373Y77165D01*
X85119D01*
X85373D01*
X85458Y77250D01*
Y77334D01*
X85373Y77419D01*
X85119D01*
X84294D02*
Y76911D01*
X84548D01*
X84632Y76996D01*
Y77080D01*
X84548Y77165D01*
X84294D01*
X84548D01*
X84632Y77250D01*
Y77334D01*
X84548Y77419D01*
X84294D01*
X83468D02*
Y76911D01*
X83722D01*
X83807Y76996D01*
Y77080D01*
X83722Y77165D01*
X83468D01*
X83722D01*
X83807Y77250D01*
Y77334D01*
X83722Y77419D01*
X83468D01*
X121746Y85953D02*
Y85446D01*
X122000D01*
X122085Y85530D01*
Y85615D01*
X122000Y85700D01*
X121746D01*
X122000D01*
X122085Y85784D01*
Y85869D01*
X122000Y85953D01*
X121746D01*
X120349Y71983D02*
Y71476D01*
X120603D01*
X120688Y71560D01*
Y71645D01*
X120603Y71730D01*
X120349D01*
X120603D01*
X120688Y71814D01*
Y71899D01*
X120603Y71983D01*
X120349D01*
X123118Y75438D02*
Y74930D01*
X123372D01*
X123456Y75015D01*
Y75099D01*
X123372Y75184D01*
X123118D01*
X123372D01*
X123456Y75269D01*
Y75353D01*
X123372Y75438D01*
X123118D01*
X84662Y70155D02*
Y69647D01*
X84916D01*
X85001Y69731D01*
Y69816D01*
X84916Y69901D01*
X84662D01*
X84916D01*
X85001Y69985D01*
Y70070D01*
X84916Y70155D01*
X84662D01*
X108106Y70485D02*
Y69977D01*
X108360D01*
X108445Y70062D01*
Y70146D01*
X108360Y70231D01*
X108106D01*
X108360D01*
X108445Y70316D01*
Y70400D01*
X108360Y70485D01*
X108106D01*
X123880Y67005D02*
Y66497D01*
X124134D01*
X124218Y66582D01*
Y66666D01*
X124134Y66751D01*
X123880D01*
X124134D01*
X124218Y66836D01*
Y66920D01*
X124134Y67005D01*
X123880D01*
X116463Y75260D02*
Y74752D01*
X116717D01*
X116801Y74837D01*
Y74921D01*
X116717Y75006D01*
X116463D01*
X116717D01*
X116801Y75091D01*
Y75175D01*
X116717Y75260D01*
X116463D01*
X114786Y63754D02*
Y63246D01*
X115040D01*
X115125Y63331D01*
Y63415D01*
X115040Y63500D01*
X114786D01*
X115040D01*
X115125Y63585D01*
Y63669D01*
X115040Y63754D01*
X114786D01*
X106201Y58115D02*
Y57607D01*
X106455D01*
X106540Y57692D01*
Y57776D01*
X106455Y57861D01*
X106201D01*
X106455D01*
X106540Y57946D01*
Y58030D01*
X106455Y58115D01*
X106201D01*
X109783Y58166D02*
Y57658D01*
X110037D01*
X110121Y57743D01*
Y57827D01*
X110037Y57912D01*
X109783D01*
X110037D01*
X110121Y57997D01*
Y58081D01*
X110037Y58166D01*
X109783D01*
X103585Y69672D02*
Y69164D01*
X103839D01*
X103924Y69249D01*
Y69333D01*
X103839Y69418D01*
X103585D01*
X103839D01*
X103924Y69503D01*
Y69587D01*
X103839Y69672D01*
X103585D01*
X112348Y60553D02*
Y60046D01*
X112602D01*
X112687Y60130D01*
Y60215D01*
X112602Y60300D01*
X112348D01*
X112602D01*
X112687Y60384D01*
Y60469D01*
X112602Y60553D01*
X112348D01*
X104499Y63754D02*
Y63246D01*
X104753D01*
X104838Y63331D01*
Y63415D01*
X104753Y63500D01*
X104499D01*
X104753D01*
X104838Y63585D01*
Y63669D01*
X104753Y63754D01*
X104499D01*
X90011Y63790D02*
Y63283D01*
X90265D01*
X90350Y63367D01*
Y63452D01*
X90265Y63536D01*
X90011D01*
X90265D01*
X90350Y63621D01*
Y63706D01*
X90265Y63790D01*
X90011D01*
X88828Y66776D02*
Y66269D01*
X89082D01*
X89166Y66353D01*
Y66438D01*
X89082Y66523D01*
X88828D01*
X89082D01*
X89166Y66607D01*
Y66692D01*
X89082Y66776D01*
X88828D01*
X96930Y63703D02*
Y63195D01*
X97184D01*
X97269Y63280D01*
Y63364D01*
X97184Y63449D01*
X96930D01*
X97184D01*
X97269Y63534D01*
Y63618D01*
X97184Y63703D01*
X96930D01*
X84535Y51028D02*
Y50521D01*
X84789D01*
X84874Y50605D01*
Y50690D01*
X84789Y50775D01*
X84535D01*
X84789D01*
X84874Y50859D01*
Y50944D01*
X84789Y51028D01*
X84535D01*
X72902Y35306D02*
Y34798D01*
X73156D01*
X73240Y34883D01*
Y34967D01*
X73156Y35052D01*
X72902D01*
X73156D01*
X73240Y35137D01*
Y35221D01*
X73156Y35306D01*
X72902D01*
X68584Y47244D02*
Y46736D01*
X68838D01*
X68922Y46821D01*
Y46905D01*
X68838Y46990D01*
X68584D01*
X68838D01*
X68922Y47075D01*
Y47159D01*
X68838Y47244D01*
X68584D01*
X82554Y50368D02*
Y49860D01*
X82808D01*
X82892Y49945D01*
Y50029D01*
X82808Y50114D01*
X82554D01*
X82808D01*
X82892Y50199D01*
Y50283D01*
X82808Y50368D01*
X82554D01*
X95279Y50470D02*
Y49962D01*
X95533D01*
X95618Y50046D01*
Y50131D01*
X95533Y50216D01*
X95279D01*
X95533D01*
X95618Y50300D01*
Y50385D01*
X95533Y50470D01*
X95279D01*
X94212Y51257D02*
Y50749D01*
X94466D01*
X94551Y50834D01*
Y50918D01*
X94466Y51003D01*
X94212D01*
X94466D01*
X94551Y51088D01*
Y51172D01*
X94466Y51257D01*
X94212D01*
X43565Y43586D02*
Y43078D01*
X43819D01*
X43903Y43163D01*
Y43248D01*
X43819Y43332D01*
X43565D01*
X43819D01*
X43903Y43417D01*
Y43502D01*
X43819Y43586D01*
X43565D01*
X62221Y50645D02*
Y50137D01*
X62475D01*
X62559Y50222D01*
Y50307D01*
X62475Y50391D01*
X62221D01*
X62475D01*
X62559Y50476D01*
Y50561D01*
X62475Y50645D01*
X62221D01*
X60189D02*
Y50137D01*
X60443D01*
X60527Y50222D01*
Y50307D01*
X60443Y50391D01*
X60189D01*
X60443D01*
X60527Y50476D01*
Y50561D01*
X60443Y50645D01*
X60189D01*
X60218Y52068D02*
Y51560D01*
X60472D01*
X60556Y51644D01*
Y51729D01*
X60472Y51814D01*
X60218D01*
X60472D01*
X60556Y51898D01*
Y51983D01*
X60472Y52068D01*
X60218D01*
X62250D02*
Y51560D01*
X62504D01*
X62588Y51644D01*
Y51729D01*
X62504Y51814D01*
X62250D01*
X62504D01*
X62588Y51898D01*
Y51983D01*
X62504Y52068D01*
X62250D01*
X61234Y51306D02*
Y50798D01*
X61488D01*
X61572Y50882D01*
Y50967D01*
X61488Y51052D01*
X61234D01*
X61488D01*
X61572Y51136D01*
Y51221D01*
X61488Y51306D01*
X61234D01*
X61205Y50645D02*
Y50137D01*
X61459D01*
X61543Y50222D01*
Y50307D01*
X61459Y50391D01*
X61205D01*
X61459D01*
X61543Y50476D01*
Y50561D01*
X61459Y50645D01*
X61205D01*
X61234Y52068D02*
Y51560D01*
X61488D01*
X61572Y51644D01*
Y51729D01*
X61488Y51814D01*
X61234D01*
X61488D01*
X61572Y51898D01*
Y51983D01*
X61488Y52068D01*
X61234D01*
X53953Y50419D02*
Y49911D01*
X54207D01*
X54292Y49996D01*
Y50080D01*
X54207Y50165D01*
X53953D01*
X54207D01*
X54292Y50250D01*
Y50334D01*
X54207Y50419D01*
X53953D01*
X67397Y52065D02*
Y51557D01*
X67651D01*
X67736Y51642D01*
Y51726D01*
X67651Y51811D01*
X67397D01*
X67651D01*
X67736Y51896D01*
Y51980D01*
X67651Y52065D01*
X67397D01*
X69940Y52273D02*
Y51765D01*
X70194D01*
X70278Y51850D01*
Y51935D01*
X70194Y52019D01*
X69940D01*
X70194D01*
X70278Y52104D01*
Y52189D01*
X70194Y52273D01*
X69940D01*
X55884Y56455D02*
Y55948D01*
X56138D01*
X56222Y56032D01*
Y56117D01*
X56138Y56202D01*
X55884D01*
X56138D01*
X56222Y56286D01*
Y56371D01*
X56138Y56455D01*
X55884D01*
X104788Y27386D02*
Y26878D01*
X105041D01*
X105126Y26963D01*
Y27048D01*
X105041Y27132D01*
X104788D01*
X105041D01*
X105126Y27217D01*
Y27302D01*
X105041Y27386D01*
X104788D01*
X99445Y27432D02*
Y26924D01*
X99699D01*
X99783Y27009D01*
Y27093D01*
X99699Y27178D01*
X99445D01*
X99699D01*
X99783Y27263D01*
Y27347D01*
X99699Y27432D01*
X99445D01*
X94162Y27381D02*
Y26873D01*
X94416D01*
X94500Y26958D01*
Y27042D01*
X94416Y27127D01*
X94162D01*
X94416D01*
X94500Y27212D01*
Y27296D01*
X94416Y27381D01*
X94162D01*
X88853Y27356D02*
Y26848D01*
X89107D01*
X89192Y26932D01*
Y27017D01*
X89107Y27102D01*
X88853D01*
X89107D01*
X89192Y27186D01*
Y27271D01*
X89107Y27356D01*
X88853D01*
X83519Y27381D02*
Y26873D01*
X83773D01*
X83858Y26958D01*
Y27042D01*
X83773Y27127D01*
X83519D01*
X83773D01*
X83858Y27212D01*
Y27296D01*
X83773Y27381D01*
X83519D01*
X78214Y27400D02*
Y26892D01*
X78468D01*
X78553Y26977D01*
Y27062D01*
X78468Y27146D01*
X78214D01*
X78468D01*
X78553Y27231D01*
Y27315D01*
X78468Y27400D01*
X78214D01*
X78178Y35377D02*
Y34869D01*
X78432D01*
X78516Y34954D01*
Y35038D01*
X78432Y35123D01*
X78178D01*
X78432D01*
X78516Y35208D01*
Y35292D01*
X78432Y35377D01*
X78178D01*
X100740Y32283D02*
Y31775D01*
X100994D01*
X101079Y31860D01*
Y31945D01*
X100994Y32029D01*
X100740D01*
X100994D01*
X101079Y32114D01*
Y32199D01*
X100994Y32283D01*
X100740D01*
X95609D02*
Y31775D01*
X95863D01*
X95948Y31860D01*
Y31945D01*
X95863Y32029D01*
X95609D01*
X95863D01*
X95948Y32114D01*
Y32199D01*
X95863Y32283D01*
X95609D01*
X90275D02*
Y31775D01*
X90529D01*
X90614Y31860D01*
Y31945D01*
X90529Y32029D01*
X90275D01*
X90529D01*
X90614Y32114D01*
Y32199D01*
X90529Y32283D01*
X90275D01*
X84992Y32309D02*
Y31801D01*
X85246D01*
X85331Y31885D01*
Y31970D01*
X85246Y32055D01*
X84992D01*
X85246D01*
X85331Y32139D01*
Y32224D01*
X85246Y32309D01*
X84992D01*
X79760Y32283D02*
Y31775D01*
X80014D01*
X80098Y31860D01*
Y31945D01*
X80014Y32029D01*
X79760D01*
X80014D01*
X80098Y32114D01*
Y32199D01*
X80014Y32283D01*
X79760D01*
X91668Y34182D02*
Y33674D01*
X91922D01*
X92007Y33759D01*
Y33844D01*
X91922Y33928D01*
X91668D01*
X91922D01*
X92007Y34013D01*
Y34098D01*
X91922Y34182D01*
X91668D01*
X86358D02*
Y33674D01*
X86612D01*
X86696Y33759D01*
Y33844D01*
X86612Y33928D01*
X86358D01*
X86612D01*
X86696Y34013D01*
Y34098D01*
X86612Y34182D01*
X86358D01*
X96908Y34151D02*
Y33643D01*
X97162D01*
X97247Y33728D01*
Y33812D01*
X97162Y33897D01*
X96908D01*
X97162D01*
X97247Y33982D01*
Y34066D01*
X97162Y34151D01*
X96908D01*
X102280Y34166D02*
Y33658D01*
X102534D01*
X102618Y33742D01*
Y33827D01*
X102534Y33912D01*
X102280D01*
X102534D01*
X102618Y33996D01*
Y34081D01*
X102534Y34166D01*
X102280D01*
X80976Y34182D02*
Y33674D01*
X81230D01*
X81315Y33759D01*
Y33844D01*
X81230Y33928D01*
X80976D01*
X81230D01*
X81315Y34013D01*
Y34098D01*
X81230Y34182D01*
X80976D01*
X104271Y32309D02*
Y31801D01*
X104525D01*
X104609Y31885D01*
Y31970D01*
X104525Y32055D01*
X104271D01*
X104525D01*
X104609Y32139D01*
Y32224D01*
X104525Y32309D01*
X104271D01*
X98988Y32283D02*
Y31775D01*
X99242D01*
X99326Y31860D01*
Y31945D01*
X99242Y32029D01*
X98988D01*
X99242D01*
X99326Y32114D01*
Y32199D01*
X99242Y32283D01*
X98988D01*
X93628D02*
Y31775D01*
X93882D01*
X93967Y31860D01*
Y31945D01*
X93882Y32029D01*
X93628D01*
X93882D01*
X93967Y32114D01*
Y32199D01*
X93882Y32283D01*
X93628D01*
X88370D02*
Y31775D01*
X88624D01*
X88709Y31860D01*
Y31945D01*
X88624Y32029D01*
X88370D01*
X88624D01*
X88709Y32114D01*
Y32199D01*
X88624Y32283D01*
X88370D01*
X83036D02*
Y31775D01*
X83290D01*
X83375Y31860D01*
Y31945D01*
X83290Y32029D01*
X83036D01*
X83290D01*
X83375Y32114D01*
Y32199D01*
X83290Y32283D01*
X83036D01*
X91599Y27463D02*
Y26955D01*
X91853D01*
X91938Y27040D01*
Y27125D01*
X91853Y27209D01*
X91599D01*
X91853D01*
X91938Y27294D01*
Y27379D01*
X91853Y27463D01*
X91599D01*
X32313Y30861D02*
Y30353D01*
X32567D01*
X32651Y30438D01*
Y30522D01*
X32567Y30607D01*
X32313D01*
X32567D01*
X32651Y30692D01*
Y30776D01*
X32567Y30861D01*
X32313D01*
X25785Y15189D02*
Y14681D01*
X26039D01*
X26123Y14766D01*
Y14850D01*
X26039Y14935D01*
X25785D01*
X26039D01*
X26123Y15020D01*
Y15104D01*
X26039Y15189D01*
X25785D01*
X135208Y47396D02*
Y46888D01*
X135462D01*
X135547Y46973D01*
Y47058D01*
X135462Y47142D01*
X135208D01*
X135462D01*
X135547Y47227D01*
Y47312D01*
X135462Y47396D01*
X135208D01*
X129645Y59496D02*
Y58988D01*
X129899D01*
X129984Y59073D01*
Y59158D01*
X129899Y59242D01*
X129645D01*
X129899D01*
X129984Y59327D01*
Y59412D01*
X129899Y59496D01*
X129645D01*
X139704Y52044D02*
Y51537D01*
X139958D01*
X140042Y51621D01*
Y51706D01*
X139958Y51791D01*
X139704D01*
X139958D01*
X140042Y51875D01*
Y51960D01*
X139958Y52044D01*
X139704D01*
X134776Y59715D02*
Y59207D01*
X135030D01*
X135115Y59292D01*
Y59377D01*
X135030Y59461D01*
X134776D01*
X135030D01*
X135115Y59546D01*
Y59631D01*
X135030Y59715D01*
X134776D01*
X132516Y50135D02*
Y49627D01*
X132770D01*
X132854Y49711D01*
Y49796D01*
X132770Y49881D01*
X132516D01*
X132770D01*
X132854Y49965D01*
Y50050D01*
X132770Y50135D01*
X132516D01*
X134827Y51714D02*
Y51206D01*
X135081D01*
X135166Y51291D01*
Y51376D01*
X135081Y51460D01*
X134827D01*
X135081D01*
X135166Y51545D01*
Y51630D01*
X135081Y51714D01*
X134827D01*
X119028Y53721D02*
Y53213D01*
X119282D01*
X119367Y53298D01*
Y53382D01*
X119282Y53467D01*
X119028D01*
X119282D01*
X119367Y53552D01*
Y53636D01*
X119282Y53721D01*
X119028D01*
X133024Y63779D02*
Y63271D01*
X133278D01*
X133362Y63356D01*
Y63441D01*
X133278Y63525D01*
X133024D01*
X133278D01*
X133362Y63610D01*
Y63695D01*
X133278Y63779D01*
X133024D01*
X127105Y66700D02*
Y66192D01*
X127359D01*
X127444Y66277D01*
Y66362D01*
X127359Y66446D01*
X127105D01*
X127359D01*
X127444Y66531D01*
Y66616D01*
X127359Y66700D01*
X127105D01*
X71962Y22504D02*
Y21996D01*
X72216D01*
X72301Y22081D01*
Y22166D01*
X72216Y22250D01*
X71962D01*
X72216D01*
X72301Y22335D01*
Y22420D01*
X72216Y22504D01*
X71962D01*
X21815Y41555D02*
Y41047D01*
X22069D01*
X22154Y41132D01*
Y41217D01*
X22069Y41301D01*
X21815D01*
X22069D01*
X22154Y41386D01*
Y41470D01*
X22069Y41555D01*
X21815D01*
Y36120D02*
Y35612D01*
X22069D01*
X22154Y35696D01*
Y35781D01*
X22069Y35866D01*
X21815D01*
X22069D01*
X22154Y35950D01*
Y36035D01*
X22069Y36120D01*
X21815D01*
Y42622D02*
Y42114D01*
X22069D01*
X22154Y42199D01*
Y42283D01*
X22069Y42368D01*
X21815D01*
X22069D01*
X22154Y42453D01*
Y42537D01*
X22069Y42622D01*
X21815D01*
Y43740D02*
Y43232D01*
X22069D01*
X22154Y43316D01*
Y43401D01*
X22069Y43486D01*
X21815D01*
X22069D01*
X22154Y43570D01*
Y43655D01*
X22069Y43740D01*
X21815D01*
Y40539D02*
Y40031D01*
X22069D01*
X22154Y40116D01*
Y40201D01*
X22069Y40285D01*
X21815D01*
X22069D01*
X22154Y40370D01*
Y40454D01*
X22069Y40539D01*
X21815D01*
Y39523D02*
Y39015D01*
X22069D01*
X22154Y39100D01*
Y39185D01*
X22069Y39269D01*
X21815D01*
X22069D01*
X22154Y39354D01*
Y39438D01*
X22069Y39523D01*
X21815D01*
Y38482D02*
Y37974D01*
X22069D01*
X22154Y38059D01*
Y38143D01*
X22069Y38228D01*
X21815D01*
X22069D01*
X22154Y38312D01*
Y38397D01*
X22069Y38482D01*
X21815D01*
Y37393D02*
Y36885D01*
X22069D01*
X22154Y36970D01*
Y37055D01*
X22069Y37139D01*
X21815D01*
X22069D01*
X22154Y37224D01*
Y37309D01*
X22069Y37393D01*
X21815D01*
X23270Y37371D02*
Y36863D01*
X23524D01*
X23609Y36947D01*
Y37032D01*
X23524Y37117D01*
X23270D01*
X23524D01*
X23609Y37201D01*
Y37286D01*
X23524Y37371D01*
X23270D01*
Y38459D02*
Y37951D01*
X23524D01*
X23609Y38036D01*
Y38121D01*
X23524Y38205D01*
X23270D01*
X23524D01*
X23609Y38290D01*
Y38374D01*
X23524Y38459D01*
X23270D01*
Y39500D02*
Y38993D01*
X23524D01*
X23609Y39077D01*
Y39162D01*
X23524Y39247D01*
X23270D01*
X23524D01*
X23609Y39331D01*
Y39416D01*
X23524Y39500D01*
X23270D01*
Y40516D02*
Y40009D01*
X23524D01*
X23609Y40093D01*
Y40178D01*
X23524Y40263D01*
X23270D01*
X23524D01*
X23609Y40347D01*
Y40432D01*
X23524Y40516D01*
X23270D01*
Y43717D02*
Y43209D01*
X23524D01*
X23609Y43294D01*
Y43378D01*
X23524Y43463D01*
X23270D01*
X23524D01*
X23609Y43548D01*
Y43632D01*
X23524Y43717D01*
X23270D01*
Y42599D02*
Y42091D01*
X23524D01*
X23609Y42176D01*
Y42261D01*
X23524Y42345D01*
X23270D01*
X23524D01*
X23609Y42430D01*
Y42515D01*
X23524Y42599D01*
X23270D01*
Y36097D02*
Y35589D01*
X23524D01*
X23609Y35674D01*
Y35758D01*
X23524Y35843D01*
X23270D01*
X23524D01*
X23609Y35928D01*
Y36012D01*
X23524Y36097D01*
X23270D01*
Y41532D02*
Y41025D01*
X23524D01*
X23609Y41109D01*
Y41194D01*
X23524Y41279D01*
X23270D01*
X23524D01*
X23609Y41363D01*
Y41448D01*
X23524Y41532D01*
X23270D01*
X26064Y41529D02*
Y41021D01*
X26318D01*
X26403Y41106D01*
Y41190D01*
X26318Y41275D01*
X26064D01*
X26318D01*
X26403Y41360D01*
Y41444D01*
X26318Y41529D01*
X26064D01*
Y36093D02*
Y35585D01*
X26318D01*
X26403Y35670D01*
Y35755D01*
X26318Y35839D01*
X26064D01*
X26318D01*
X26403Y35924D01*
Y36009D01*
X26318Y36093D01*
X26064D01*
Y42596D02*
Y42088D01*
X26318D01*
X26403Y42172D01*
Y42257D01*
X26318Y42342D01*
X26064D01*
X26318D01*
X26403Y42426D01*
Y42511D01*
X26318Y42596D01*
X26064D01*
Y43713D02*
Y43205D01*
X26318D01*
X26403Y43290D01*
Y43375D01*
X26318Y43459D01*
X26064D01*
X26318D01*
X26403Y43544D01*
Y43629D01*
X26318Y43713D01*
X26064D01*
Y40513D02*
Y40005D01*
X26318D01*
X26403Y40090D01*
Y40174D01*
X26318Y40259D01*
X26064D01*
X26318D01*
X26403Y40344D01*
Y40428D01*
X26318Y40513D01*
X26064D01*
Y39497D02*
Y38989D01*
X26318D01*
X26403Y39074D01*
Y39158D01*
X26318Y39243D01*
X26064D01*
X26318D01*
X26403Y39328D01*
Y39412D01*
X26318Y39497D01*
X26064D01*
Y38455D02*
Y37948D01*
X26318D01*
X26403Y38032D01*
Y38117D01*
X26318Y38202D01*
X26064D01*
X26318D01*
X26403Y38286D01*
Y38371D01*
X26318Y38455D01*
X26064D01*
Y37367D02*
Y36859D01*
X26318D01*
X26403Y36944D01*
Y37028D01*
X26318Y37113D01*
X26064D01*
X26318D01*
X26403Y37198D01*
Y37282D01*
X26318Y37367D01*
X26064D01*
X24642Y37396D02*
Y36888D01*
X24896D01*
X24980Y36973D01*
Y37057D01*
X24896Y37142D01*
X24642D01*
X24896D01*
X24980Y37227D01*
Y37311D01*
X24896Y37396D01*
X24642D01*
Y38484D02*
Y37977D01*
X24896D01*
X24980Y38061D01*
Y38146D01*
X24896Y38231D01*
X24642D01*
X24896D01*
X24980Y38315D01*
Y38400D01*
X24896Y38484D01*
X24642D01*
Y39526D02*
Y39018D01*
X24896D01*
X24980Y39103D01*
Y39187D01*
X24896Y39272D01*
X24642D01*
X24896D01*
X24980Y39357D01*
Y39441D01*
X24896Y39526D01*
X24642D01*
Y40542D02*
Y40034D01*
X24896D01*
X24980Y40119D01*
Y40203D01*
X24896Y40288D01*
X24642D01*
X24896D01*
X24980Y40373D01*
Y40457D01*
X24896Y40542D01*
X24642D01*
Y43742D02*
Y43234D01*
X24896D01*
X24980Y43319D01*
Y43404D01*
X24896Y43488D01*
X24642D01*
X24896D01*
X24980Y43573D01*
Y43658D01*
X24896Y43742D01*
X24642D01*
Y42625D02*
Y42117D01*
X24896D01*
X24980Y42201D01*
Y42286D01*
X24896Y42371D01*
X24642D01*
X24896D01*
X24980Y42455D01*
Y42540D01*
X24896Y42625D01*
X24642D01*
Y36122D02*
Y35614D01*
X24896D01*
X24980Y35699D01*
Y35784D01*
X24896Y35868D01*
X24642D01*
X24896D01*
X24980Y35953D01*
Y36038D01*
X24896Y36122D01*
X24642D01*
Y41558D02*
Y41050D01*
X24896D01*
X24980Y41135D01*
Y41219D01*
X24896Y41304D01*
X24642D01*
X24896D01*
X24980Y41389D01*
Y41473D01*
X24896Y41558D01*
X24642D01*
X133481Y69342D02*
Y68834D01*
X133735D01*
X133819Y68919D01*
Y69003D01*
X133735Y69088D01*
X133481D01*
X133735D01*
X133819Y69173D01*
Y69257D01*
X133735Y69342D01*
X133481D01*
X135995Y69621D02*
Y69113D01*
X136249D01*
X136334Y69198D01*
Y69283D01*
X136249Y69367D01*
X135995D01*
X136249D01*
X136334Y69452D01*
Y69537D01*
X136249Y69621D01*
X135995D01*
X136808Y53645D02*
Y53137D01*
X137062D01*
X137147Y53221D01*
Y53306D01*
X137062Y53391D01*
X136808D01*
X137062D01*
X137147Y53475D01*
Y53560D01*
X137062Y53645D01*
X136808D01*
X121238Y37871D02*
Y37363D01*
X121492D01*
X121577Y37448D01*
Y37533D01*
X121492Y37617D01*
X121238D01*
X121492D01*
X121577Y37702D01*
Y37787D01*
X121492Y37871D01*
X121238D01*
X127893Y54407D02*
Y53899D01*
X128147D01*
X128231Y53983D01*
Y54068D01*
X128147Y54153D01*
X127893D01*
X128147D01*
X128231Y54237D01*
Y54322D01*
X128147Y54407D01*
X127893D01*
X73994Y20599D02*
Y20091D01*
X74248D01*
X74333Y20176D01*
Y20261D01*
X74248Y20345D01*
X73994D01*
X74248D01*
X74333Y20430D01*
Y20515D01*
X74248Y20599D01*
X73994D01*
X139729Y48742D02*
Y48235D01*
X139983D01*
X140068Y48319D01*
Y48404D01*
X139983Y48489D01*
X139729D01*
X139983D01*
X140068Y48573D01*
Y48658D01*
X139983Y48742D01*
X139729D01*
X139297Y61620D02*
Y61112D01*
X139551D01*
X139636Y61197D01*
Y61282D01*
X139551Y61366D01*
X139297D01*
X139551D01*
X139636Y61451D01*
Y61536D01*
X139551Y61620D01*
X139297D01*
X133278Y42621D02*
Y42113D01*
X133532D01*
X133616Y42198D01*
Y42282D01*
X133532Y42367D01*
X133278D01*
X133532D01*
X133616Y42452D01*
Y42536D01*
X133532Y42621D01*
X133278D01*
X132262Y48768D02*
Y48260D01*
X132516D01*
X132600Y48345D01*
Y48429D01*
X132516Y48514D01*
X132262D01*
X132516D01*
X132600Y48599D01*
Y48683D01*
X132516Y48768D01*
X132262D01*
X135919Y42621D02*
Y42113D01*
X136173D01*
X136258Y42198D01*
Y42282D01*
X136173Y42367D01*
X135919D01*
X136173D01*
X136258Y42452D01*
Y42536D01*
X136173Y42621D01*
X135919D01*
X133633Y48641D02*
Y48133D01*
X133887D01*
X133972Y48218D01*
Y48302D01*
X133887Y48387D01*
X133633D01*
X133887D01*
X133972Y48472D01*
Y48556D01*
X133887Y48641D01*
X133633D01*
X132135Y24104D02*
Y23597D01*
X132389D01*
X132473Y23681D01*
Y23766D01*
X132389Y23851D01*
X132135D01*
X132389D01*
X132473Y23935D01*
Y24020D01*
X132389Y24104D01*
X132135D01*
X118165Y30734D02*
Y30226D01*
X118419D01*
X118503Y30311D01*
Y30395D01*
X118419Y30480D01*
X118165D01*
X118419D01*
X118503Y30565D01*
Y30649D01*
X118419Y30734D01*
X118165D01*
X65434Y40970D02*
Y40462D01*
X65688D01*
X65773Y40547D01*
Y40631D01*
X65688Y40716D01*
X65434D01*
X65688D01*
X65773Y40801D01*
Y40885D01*
X65688Y40970D01*
X65434D01*
X126242Y51714D02*
Y51206D01*
X126496D01*
X126580Y51291D01*
Y51376D01*
X126496Y51460D01*
X126242D01*
X126496D01*
X126580Y51545D01*
Y51630D01*
X126496Y51714D01*
X126242D01*
X132160Y29235D02*
Y28727D01*
X132414D01*
X132499Y28812D01*
Y28897D01*
X132414Y28981D01*
X132160D01*
X132414D01*
X132499Y29066D01*
Y29151D01*
X132414Y29235D01*
X132160D01*
X132135Y26695D02*
Y26187D01*
X132389D01*
X132473Y26272D01*
Y26357D01*
X132389Y26441D01*
X132135D01*
X132389D01*
X132473Y26526D01*
Y26611D01*
X132389Y26695D01*
X132135D01*
X132160Y21590D02*
Y21082D01*
X132414D01*
X132499Y21167D01*
Y21251D01*
X132414Y21336D01*
X132160D01*
X132414D01*
X132499Y21421D01*
Y21505D01*
X132414Y21590D01*
X132160D01*
X139704Y53670D02*
Y53162D01*
X139958D01*
X140042Y53247D01*
Y53331D01*
X139958Y53416D01*
X139704D01*
X139958D01*
X140042Y53501D01*
Y53585D01*
X139958Y53670D01*
X139704D01*
X137824Y53568D02*
Y53061D01*
X138078D01*
X138163Y53145D01*
Y53230D01*
X138078Y53315D01*
X137824D01*
X138078D01*
X138163Y53399D01*
Y53484D01*
X138078Y53568D01*
X137824D01*
X134712Y66446D02*
Y65938D01*
X134966D01*
X135050Y66023D01*
Y66108D01*
X134966Y66192D01*
X134712D01*
X134966D01*
X135050Y66277D01*
Y66362D01*
X134966Y66446D01*
X134712D01*
X134649Y63830D02*
Y63322D01*
X134903D01*
X134988Y63407D01*
Y63491D01*
X134903Y63576D01*
X134649D01*
X134903D01*
X134988Y63661D01*
Y63745D01*
X134903Y63830D01*
X134649D01*
X75670Y32283D02*
Y31775D01*
X75924D01*
X76009Y31860D01*
Y31945D01*
X75924Y32029D01*
X75670D01*
X75924D01*
X76009Y32114D01*
Y32199D01*
X75924Y32283D01*
X75670D01*
X104245Y30124D02*
Y29616D01*
X104499D01*
X104584Y29701D01*
Y29786D01*
X104499Y29870D01*
X104245D01*
X104499D01*
X104584Y29955D01*
Y30040D01*
X104499Y30124D01*
X104245D01*
X98911D02*
Y29616D01*
X99165D01*
X99250Y29701D01*
Y29786D01*
X99165Y29870D01*
X98911D01*
X99165D01*
X99250Y29955D01*
Y30040D01*
X99165Y30124D01*
X98911D01*
X93577D02*
Y29616D01*
X93831D01*
X93916Y29701D01*
Y29786D01*
X93831Y29870D01*
X93577D01*
X93831D01*
X93916Y29955D01*
Y30040D01*
X93831Y30124D01*
X93577D01*
X88370D02*
Y29616D01*
X88624D01*
X88709Y29701D01*
Y29786D01*
X88624Y29870D01*
X88370D01*
X88624D01*
X88709Y29955D01*
Y30040D01*
X88624Y30124D01*
X88370D01*
X80981Y27243D02*
Y26735D01*
X81235D01*
X81320Y26820D01*
Y26904D01*
X81235Y26989D01*
X80981D01*
X81235D01*
X81320Y27073D01*
Y27158D01*
X81235Y27243D01*
X80981D01*
X83036Y30124D02*
Y29616D01*
X83290D01*
X83375Y29701D01*
Y29786D01*
X83290Y29870D01*
X83036D01*
X83290D01*
X83375Y29955D01*
Y30040D01*
X83290Y30124D01*
X83036D01*
X77702D02*
Y29616D01*
X77956D01*
X78041Y29701D01*
Y29786D01*
X77956Y29870D01*
X77702D01*
X77956D01*
X78041Y29955D01*
Y30040D01*
X77956Y30124D01*
X77702D01*
X102232Y27355D02*
Y26847D01*
X102486D01*
X102571Y26932D01*
Y27017D01*
X102486Y27101D01*
X102232D01*
X102486D01*
X102571Y27186D01*
Y27271D01*
X102486Y27355D01*
X102232D01*
X96921Y27319D02*
Y26811D01*
X97175D01*
X97260Y26896D01*
Y26980D01*
X97175Y27065D01*
X96921D01*
X97175D01*
X97260Y27149D01*
Y27234D01*
X97175Y27319D01*
X96921D01*
X86287Y27347D02*
Y26839D01*
X86540D01*
X86625Y26924D01*
Y27008D01*
X86540Y27093D01*
X86287D01*
X86540D01*
X86625Y27177D01*
Y27262D01*
X86540Y27347D01*
X86287D01*
X75670Y27330D02*
Y26822D01*
X75924D01*
X76009Y26907D01*
Y26992D01*
X75924Y27076D01*
X75670D01*
X75924D01*
X76009Y27161D01*
Y27246D01*
X75924Y27330D01*
X75670D01*
X35665Y33045D02*
Y32537D01*
X35919D01*
X36004Y32622D01*
Y32707D01*
X35919Y32791D01*
X35665D01*
X35919D01*
X36004Y32876D01*
Y32961D01*
X35919Y33045D01*
X35665D01*
X27283Y51587D02*
Y51079D01*
X27537D01*
X27622Y51164D01*
Y51249D01*
X27537Y51333D01*
X27283D01*
X27537D01*
X27622Y51418D01*
Y51503D01*
X27537Y51587D01*
X27283D01*
D187*
X57992Y14783D02*
G03*
X57992Y14783I-203J0D01*
G01*
X60532D02*
G03*
X60532Y14783I-203J0D01*
G01*
X63072D02*
G03*
X63072Y14783I-203J0D01*
G01*
X65612D02*
G03*
X65612Y14783I-203J0D01*
G01*
X55452D02*
G03*
X55452Y14783I-203J0D01*
G01*
X40517Y76810D02*
G03*
X40517Y76810I-203J0D01*
G01*
X43057D02*
G03*
X43057Y76810I-203J0D01*
G01*
Y74270D02*
G03*
X43057Y74270I-203J0D01*
G01*
X40517D02*
G03*
X40517Y74270I-203J0D01*
G01*
X136961Y75463D02*
G03*
X136961Y75463I-203J0D01*
G01*
X134421D02*
G03*
X134421Y75463I-203J0D01*
G01*
X131881D02*
G03*
X131881Y75463I-203J0D01*
G01*
X129341D02*
G03*
X129341Y75463I-203J0D01*
G01*
X76636Y40411D02*
G03*
X76636Y40411I-203J0D01*
G01*
X79176D02*
G03*
X79176Y40411I-203J0D01*
G01*
X81716D02*
G03*
X81716Y40411I-203J0D01*
G01*
X84256D02*
G03*
X84256Y40411I-203J0D01*
G01*
X86796D02*
G03*
X86796Y40411I-203J0D01*
G01*
X89336D02*
G03*
X89336Y40411I-203J0D01*
G01*
X91876D02*
G03*
X91876Y40411I-203J0D01*
G01*
X94416D02*
G03*
X94416Y40411I-203J0D01*
G01*
X96956D02*
G03*
X96956Y40411I-203J0D01*
G01*
X99496D02*
G03*
X99496Y40411I-203J0D01*
G01*
X102036D02*
G03*
X102036Y40411I-203J0D01*
G01*
X104576D02*
G03*
X104576Y40411I-203J0D01*
G01*
X107116D02*
G03*
X107116Y40411I-203J0D01*
G01*
X109656D02*
G03*
X109656Y40411I-203J0D01*
G01*
X76636Y48031D02*
G03*
X76636Y48031I-203J0D01*
G01*
X79176D02*
G03*
X79176Y48031I-203J0D01*
G01*
X81716D02*
G03*
X81716Y48031I-203J0D01*
G01*
X84256D02*
G03*
X84256Y48031I-203J0D01*
G01*
X86796D02*
G03*
X86796Y48031I-203J0D01*
G01*
X89336D02*
G03*
X89336Y48031I-203J0D01*
G01*
X91876D02*
G03*
X91876Y48031I-203J0D01*
G01*
X94416D02*
G03*
X94416Y48031I-203J0D01*
G01*
X96956D02*
G03*
X96956Y48031I-203J0D01*
G01*
X99496D02*
G03*
X99496Y48031I-203J0D01*
G01*
X102036D02*
G03*
X102036Y48031I-203J0D01*
G01*
X104576D02*
G03*
X104576Y48031I-203J0D01*
G01*
X107116D02*
G03*
X107116Y48031I-203J0D01*
G01*
X109656D02*
G03*
X109656Y48031I-203J0D01*
G01*
D188*
X40415Y76810D02*
G03*
X40415Y76810I-102J0D01*
G01*
X42955D02*
G03*
X42955Y76810I-102J0D01*
G01*
Y74270D02*
G03*
X42955Y74270I-102J0D01*
G01*
X40415D02*
G03*
X40415Y74270I-102J0D01*
G01*
X76534Y40411D02*
G03*
X76534Y40411I-102J0D01*
G01*
X79074D02*
G03*
X79074Y40411I-102J0D01*
G01*
X81614D02*
G03*
X81614Y40411I-102J0D01*
G01*
X84154D02*
G03*
X84154Y40411I-102J0D01*
G01*
X86694D02*
G03*
X86694Y40411I-102J0D01*
G01*
X89234D02*
G03*
X89234Y40411I-102J0D01*
G01*
X91774D02*
G03*
X91774Y40411I-102J0D01*
G01*
X94314D02*
G03*
X94314Y40411I-102J0D01*
G01*
X96854D02*
G03*
X96854Y40411I-102J0D01*
G01*
X99394D02*
G03*
X99394Y40411I-102J0D01*
G01*
X101934D02*
G03*
X101934Y40411I-102J0D01*
G01*
X104474D02*
G03*
X104474Y40411I-102J0D01*
G01*
X107014D02*
G03*
X107014Y40411I-102J0D01*
G01*
X109554D02*
G03*
X109554Y40411I-102J0D01*
G01*
X76534Y48031D02*
G03*
X76534Y48031I-102J0D01*
G01*
X79074D02*
G03*
X79074Y48031I-102J0D01*
G01*
X81614D02*
G03*
X81614Y48031I-102J0D01*
G01*
X84154D02*
G03*
X84154Y48031I-102J0D01*
G01*
X86694D02*
G03*
X86694Y48031I-102J0D01*
G01*
X89234D02*
G03*
X89234Y48031I-102J0D01*
G01*
X91774D02*
G03*
X91774Y48031I-102J0D01*
G01*
X94314D02*
G03*
X94314Y48031I-102J0D01*
G01*
X96854D02*
G03*
X96854Y48031I-102J0D01*
G01*
X99394D02*
G03*
X99394Y48031I-102J0D01*
G01*
X101934D02*
G03*
X101934Y48031I-102J0D01*
G01*
X104474D02*
G03*
X104474Y48031I-102J0D01*
G01*
X107014D02*
G03*
X107014Y48031I-102J0D01*
G01*
X109554D02*
G03*
X109554Y48031I-102J0D01*
G01*
M02*
