G04*
G04 #@! TF.GenerationSoftware,Altium Limited,Altium Designer,20.2.6 (244)*
G04*
G04 Layer_Color=32896*
%FSLAX43Y43*%
%MOMM*%
G71*
G04*
G04 #@! TF.SameCoordinates,50BE3A92-8E6F-42E2-A157-1F0C76B00AEB*
G04*
G04*
G04 #@! TF.FilePolarity,Positive*
G04*
G01*
G75*
%ADD11C,0.254*%
%ADD12C,0.250*%
%ADD14C,0.102*%
%ADD15C,0.200*%
%ADD16C,0.178*%
%ADD19C,0.127*%
%ADD24C,0.508*%
%ADD25C,0.300*%
%ADD26C,0.150*%
%ADD186R,1.524X0.381*%
D11*
X52612Y62475D02*
X52781Y62306D01*
Y61967D01*
X52612Y61798D01*
X51934D01*
X51765Y61967D01*
Y62306D01*
X51934Y62475D01*
X51765Y63322D02*
X52781D01*
X52273Y62814D01*
Y63491D01*
X51934Y63830D02*
X51765Y63999D01*
Y64337D01*
X51934Y64507D01*
X52612D01*
X52781Y64337D01*
Y63999D01*
X52612Y63830D01*
X52442D01*
X52273Y63999D01*
Y64507D01*
X46643Y62060D02*
X46812Y62230D01*
X47151D01*
X47320Y62060D01*
Y61383D01*
X47151Y61214D01*
X46812D01*
X46643Y61383D01*
X45797Y61214D02*
Y62230D01*
X46305Y61722D01*
X45627D01*
X45289Y61214D02*
X44950D01*
X45120D01*
Y62230D01*
X45289Y62060D01*
X29854Y62086D02*
X30023Y62255D01*
X30362D01*
X30531Y62086D01*
Y61409D01*
X30362Y61239D01*
X30023D01*
X29854Y61409D01*
X29007Y61239D02*
Y62255D01*
X29515Y61747D01*
X28838D01*
X28499Y62086D02*
X28330Y62255D01*
X27992D01*
X27822Y62086D01*
Y61409D01*
X27992Y61239D01*
X28330D01*
X28499Y61409D01*
Y62086D01*
X89514Y60596D02*
X90529D01*
Y61104D01*
X90360Y61273D01*
X90021D01*
X89852Y61104D01*
Y60596D01*
Y60935D02*
X89514Y61273D01*
X90529Y62289D02*
X90360Y61951D01*
X90021Y61612D01*
X89683D01*
X89514Y61781D01*
Y62120D01*
X89683Y62289D01*
X89852D01*
X90021Y62120D01*
Y61612D01*
X90529Y63305D02*
X90360Y62966D01*
X90021Y62628D01*
X89683D01*
X89514Y62797D01*
Y63136D01*
X89683Y63305D01*
X89852D01*
X90021Y63136D01*
Y62628D01*
X44628Y73787D02*
X43612D01*
Y73279D01*
X43781Y73110D01*
X44120D01*
X44289Y73279D01*
Y73787D01*
Y73448D02*
X44628Y73110D01*
X43612Y72771D02*
Y72094D01*
X43781D01*
X44459Y72771D01*
X44628D01*
X77330Y34044D02*
X77499Y34213D01*
X77838D01*
X78007Y34044D01*
Y33367D01*
X77838Y33198D01*
X77499D01*
X77330Y33367D01*
X76484Y33198D02*
Y34213D01*
X76992Y33706D01*
X76314D01*
X75976Y34044D02*
X75807Y34213D01*
X75468D01*
X75299Y34044D01*
Y33875D01*
X75468Y33706D01*
X75299Y33536D01*
Y33367D01*
X75468Y33198D01*
X75807D01*
X75976Y33367D01*
Y33536D01*
X75807Y33706D01*
X75976Y33875D01*
Y34044D01*
X75807Y33706D02*
X75468D01*
X103805Y34044D02*
X103974Y34213D01*
X104313D01*
X104482Y34044D01*
Y33367D01*
X104313Y33198D01*
X103974D01*
X103805Y33367D01*
X102959Y33198D02*
Y34213D01*
X103466Y33706D01*
X102789D01*
X102451Y34213D02*
X101774D01*
Y34044D01*
X102451Y33367D01*
Y33198D01*
X98319Y34044D02*
X98488Y34213D01*
X98826D01*
X98996Y34044D01*
Y33367D01*
X98826Y33198D01*
X98488D01*
X98319Y33367D01*
X97472Y33198D02*
Y34213D01*
X97980Y33706D01*
X97303D01*
X96287Y34213D02*
X96626Y34044D01*
X96964Y33706D01*
Y33367D01*
X96795Y33198D01*
X96456D01*
X96287Y33367D01*
Y33536D01*
X96456Y33706D01*
X96964D01*
X93137Y34044D02*
X93306Y34213D01*
X93645D01*
X93814Y34044D01*
Y33367D01*
X93645Y33198D01*
X93306D01*
X93137Y33367D01*
X92291Y33198D02*
Y34213D01*
X92798Y33706D01*
X92121D01*
X91106Y34213D02*
X91783D01*
Y33706D01*
X91444Y33875D01*
X91275D01*
X91106Y33706D01*
Y33367D01*
X91275Y33198D01*
X91613D01*
X91783Y33367D01*
X87897Y34044D02*
X88066Y34213D01*
X88404D01*
X88574Y34044D01*
Y33367D01*
X88404Y33198D01*
X88066D01*
X87897Y33367D01*
X87050Y33198D02*
Y34213D01*
X87558Y33706D01*
X86881D01*
X86034Y33198D02*
Y34213D01*
X86542Y33706D01*
X85865D01*
X82563Y34044D02*
X82732Y34213D01*
X83070D01*
X83240Y34044D01*
Y33367D01*
X83070Y33198D01*
X82732D01*
X82563Y33367D01*
X81716Y33198D02*
Y34213D01*
X82224Y33706D01*
X81547D01*
X81208Y34044D02*
X81039Y34213D01*
X80700D01*
X80531Y34044D01*
Y33875D01*
X80700Y33706D01*
X80870D01*
X80700D01*
X80531Y33536D01*
Y33367D01*
X80700Y33198D01*
X81039D01*
X81208Y33367D01*
X124794Y66294D02*
X125810D01*
Y66802D01*
X125640Y66971D01*
X125302D01*
X125133Y66802D01*
Y66294D01*
Y66633D02*
X124794Y66971D01*
X125810Y67310D02*
Y67987D01*
X125640D01*
X124963Y67310D01*
X124794D01*
Y69002D02*
Y68325D01*
X125471Y69002D01*
X125640D01*
X125810Y68833D01*
Y68495D01*
X125640Y68325D01*
X125073Y62509D02*
Y63525D01*
X124566D01*
X124396Y63356D01*
Y63017D01*
X124566Y62848D01*
X125073D01*
X124735D02*
X124396Y62509D01*
X124058Y63525D02*
X123381D01*
Y63356D01*
X124058Y62679D01*
Y62509D01*
X123042D02*
X122704D01*
X122873D01*
Y63525D01*
X123042Y63356D01*
X127512Y66294D02*
X128528D01*
Y66802D01*
X128358Y66971D01*
X128020D01*
X127850Y66802D01*
Y66294D01*
Y66633D02*
X127512Y66971D01*
X128528Y67310D02*
Y67987D01*
X128358D01*
X127681Y67310D01*
X127512D01*
X128358Y68325D02*
X128528Y68495D01*
Y68833D01*
X128358Y69002D01*
X127681D01*
X127512Y68833D01*
Y68495D01*
X127681Y68325D01*
X128358D01*
X125251Y59893D02*
Y60909D01*
X124743D01*
X124574Y60740D01*
Y60401D01*
X124743Y60232D01*
X125251D01*
X124913D02*
X124574Y59893D01*
X123558Y60909D02*
X123897Y60740D01*
X124236Y60401D01*
Y60062D01*
X124066Y59893D01*
X123728D01*
X123558Y60062D01*
Y60232D01*
X123728Y60401D01*
X124236D01*
X123220Y60062D02*
X123051Y59893D01*
X122712D01*
X122543Y60062D01*
Y60740D01*
X122712Y60909D01*
X123051D01*
X123220Y60740D01*
Y60570D01*
X123051Y60401D01*
X122543D01*
X116916Y61976D02*
X115900D01*
Y62484D01*
X116069Y62653D01*
X116747D01*
X116916Y62484D01*
Y61976D01*
X115900Y63669D02*
Y62992D01*
X116577Y63669D01*
X116747D01*
X116916Y63500D01*
Y63161D01*
X116747Y62992D01*
X116916Y64684D02*
X116747Y64346D01*
X116408Y64007D01*
X116069D01*
X115900Y64177D01*
Y64515D01*
X116069Y64684D01*
X116239D01*
X116408Y64515D01*
Y64007D01*
X64465Y17170D02*
Y18186D01*
X63957D01*
X63788Y18017D01*
Y17678D01*
X63957Y17509D01*
X64465D01*
X64127D02*
X63788Y17170D01*
X62772Y18186D02*
X63111Y18017D01*
X63450Y17678D01*
Y17340D01*
X63280Y17170D01*
X62942D01*
X62772Y17340D01*
Y17509D01*
X62942Y17678D01*
X63450D01*
X62434Y18017D02*
X62265Y18186D01*
X61926D01*
X61757Y18017D01*
Y17848D01*
X61926Y17678D01*
X61757Y17509D01*
Y17340D01*
X61926Y17170D01*
X62265D01*
X62434Y17340D01*
Y17509D01*
X62265Y17678D01*
X62434Y17848D01*
Y18017D01*
X62265Y17678D02*
X61926D01*
X51714Y16866D02*
Y17881D01*
X51207D01*
X51037Y17712D01*
Y17373D01*
X51207Y17204D01*
X51714D01*
X51376D02*
X51037Y16866D01*
X50022Y17881D02*
X50360Y17712D01*
X50699Y17373D01*
Y17035D01*
X50529Y16866D01*
X50191D01*
X50022Y17035D01*
Y17204D01*
X50191Y17373D01*
X50699D01*
X49683Y17881D02*
X49006D01*
Y17712D01*
X49683Y17035D01*
Y16866D01*
X45576Y34476D02*
X45746Y34645D01*
X46084D01*
X46253Y34476D01*
Y33799D01*
X46084Y33630D01*
X45746D01*
X45576Y33799D01*
X45238Y34476D02*
X45068Y34645D01*
X44730D01*
X44561Y34476D01*
Y34307D01*
X44730Y34137D01*
X44899D01*
X44730D01*
X44561Y33968D01*
Y33799D01*
X44730Y33630D01*
X45068D01*
X45238Y33799D01*
X44222Y34476D02*
X44053Y34645D01*
X43714D01*
X43545Y34476D01*
Y34307D01*
X43714Y34137D01*
X43883D01*
X43714D01*
X43545Y33968D01*
Y33799D01*
X43714Y33630D01*
X44053D01*
X44222Y33799D01*
X43496Y28584D02*
X43327Y28753D01*
Y29092D01*
X43496Y29261D01*
X44173D01*
X44342Y29092D01*
Y28753D01*
X44173Y28584D01*
X43496Y28245D02*
X43327Y28076D01*
Y27737D01*
X43496Y27568D01*
X43665D01*
X43835Y27737D01*
Y27907D01*
Y27737D01*
X44004Y27568D01*
X44173D01*
X44342Y27737D01*
Y28076D01*
X44173Y28245D01*
X44342Y26552D02*
Y27229D01*
X43665Y26552D01*
X43496D01*
X43327Y26722D01*
Y27060D01*
X43496Y27229D01*
X18376Y27406D02*
Y26560D01*
X18207Y26391D01*
X17868D01*
X17699Y26560D01*
Y27406D01*
X17361Y27237D02*
X17191Y27406D01*
X16853D01*
X16683Y27237D01*
Y27068D01*
X16853Y26899D01*
X17022D01*
X16853D01*
X16683Y26729D01*
Y26560D01*
X16853Y26391D01*
X17191D01*
X17361Y26560D01*
X100232Y66675D02*
X101248D01*
Y67183D01*
X101079Y67352D01*
X100740D01*
X100571Y67183D01*
Y66675D01*
Y67014D02*
X100232Y67352D01*
X101248Y68368D02*
X101079Y68029D01*
X100740Y67691D01*
X100402D01*
X100232Y67860D01*
Y68199D01*
X100402Y68368D01*
X100571D01*
X100740Y68199D01*
Y67691D01*
X101248Y69383D02*
Y68706D01*
X100740D01*
X100909Y69045D01*
Y69214D01*
X100740Y69383D01*
X100402D01*
X100232Y69214D01*
Y68876D01*
X100402Y68706D01*
X85856Y67462D02*
Y68478D01*
X85348D01*
X85179Y68309D01*
Y67970D01*
X85348Y67801D01*
X85856D01*
X85517D02*
X85179Y67462D01*
X84163Y68478D02*
X84502Y68309D01*
X84840Y67970D01*
Y67632D01*
X84671Y67462D01*
X84332D01*
X84163Y67632D01*
Y67801D01*
X84332Y67970D01*
X84840D01*
X83317Y67462D02*
Y68478D01*
X83824Y67970D01*
X83147D01*
X94949Y60528D02*
X95965D01*
Y61036D01*
X95795Y61205D01*
X95457D01*
X95288Y61036D01*
Y60528D01*
Y60867D02*
X94949Y61205D01*
X95965Y62221D02*
X95795Y61882D01*
X95457Y61544D01*
X95118D01*
X94949Y61713D01*
Y62052D01*
X95118Y62221D01*
X95288D01*
X95457Y62052D01*
Y61544D01*
X95795Y62560D02*
X95965Y62729D01*
Y63067D01*
X95795Y63237D01*
X95626D01*
X95457Y63067D01*
Y62898D01*
Y63067D01*
X95288Y63237D01*
X95118D01*
X94949Y63067D01*
Y62729D01*
X95118Y62560D01*
X98403Y57506D02*
X99419D01*
Y58013D01*
X99250Y58183D01*
X98911D01*
X98742Y58013D01*
Y57506D01*
Y57844D02*
X98403Y58183D01*
X99419Y59198D02*
X99250Y58860D01*
X98911Y58521D01*
X98573D01*
X98403Y58691D01*
Y59029D01*
X98573Y59198D01*
X98742D01*
X98911Y59029D01*
Y58521D01*
X98403Y60214D02*
Y59537D01*
X99081Y60214D01*
X99250D01*
X99419Y60045D01*
Y59706D01*
X99250Y59537D01*
X101045Y57607D02*
X102061D01*
Y58115D01*
X101891Y58284D01*
X101553D01*
X101384Y58115D01*
Y57607D01*
Y57946D02*
X101045Y58284D01*
X102061Y59300D02*
X101891Y58961D01*
X101553Y58623D01*
X101214D01*
X101045Y58792D01*
Y59131D01*
X101214Y59300D01*
X101384D01*
X101553Y59131D01*
Y58623D01*
X101891Y59639D02*
X102061Y59808D01*
Y60146D01*
X101891Y60316D01*
X101214D01*
X101045Y60146D01*
Y59808D01*
X101214Y59639D01*
X101891D01*
X132160Y50648D02*
Y51663D01*
X131652D01*
X131483Y51494D01*
Y51155D01*
X131652Y50986D01*
X132160D01*
X131821D02*
X131483Y50648D01*
X130467Y51663D02*
X131144D01*
Y51155D01*
X130806Y51325D01*
X130637D01*
X130467Y51155D01*
Y50817D01*
X130637Y50648D01*
X130975D01*
X131144Y50817D01*
X130129D02*
X129959Y50648D01*
X129621D01*
X129452Y50817D01*
Y51494D01*
X129621Y51663D01*
X129959D01*
X130129Y51494D01*
Y51325D01*
X129959Y51155D01*
X129452D01*
X112805Y56261D02*
X113821D01*
Y56769D01*
X113652Y56938D01*
X113313D01*
X113144Y56769D01*
Y56261D01*
Y56600D02*
X112805Y56938D01*
X113821Y57954D02*
Y57277D01*
X113313D01*
X113482Y57615D01*
Y57785D01*
X113313Y57954D01*
X112975D01*
X112805Y57785D01*
Y57446D01*
X112975Y57277D01*
X113821Y58969D02*
Y58292D01*
X113313D01*
X113482Y58631D01*
Y58800D01*
X113313Y58969D01*
X112975D01*
X112805Y58800D01*
Y58462D01*
X112975Y58292D01*
X106430Y62738D02*
Y63754D01*
X105922D01*
X105753Y63584D01*
Y63246D01*
X105922Y63077D01*
X106430D01*
X106091D02*
X105753Y62738D01*
X104737Y63754D02*
X105414D01*
Y63246D01*
X105076Y63415D01*
X104906D01*
X104737Y63246D01*
Y62907D01*
X104906Y62738D01*
X105245D01*
X105414Y62907D01*
X103891Y62738D02*
Y63754D01*
X104398Y63246D01*
X103721D01*
X110037Y58064D02*
Y59080D01*
X109529D01*
X109360Y58911D01*
Y58572D01*
X109529Y58403D01*
X110037D01*
X109698D02*
X109360Y58064D01*
X108344Y59080D02*
X109021D01*
Y58572D01*
X108682Y58742D01*
X108513D01*
X108344Y58572D01*
Y58234D01*
X108513Y58064D01*
X108852D01*
X109021Y58234D01*
X108005Y58911D02*
X107836Y59080D01*
X107497D01*
X107328Y58911D01*
Y58742D01*
X107497Y58572D01*
X107667D01*
X107497D01*
X107328Y58403D01*
Y58234D01*
X107497Y58064D01*
X107836D01*
X108005Y58234D01*
X78007Y35103D02*
Y36119D01*
X77499D01*
X77330Y35949D01*
Y35611D01*
X77499Y35442D01*
X78007D01*
X77669D02*
X77330Y35103D01*
X76314Y36119D02*
X76992D01*
Y35611D01*
X76653Y35780D01*
X76484D01*
X76314Y35611D01*
Y35272D01*
X76484Y35103D01*
X76822D01*
X76992Y35272D01*
X75299Y35103D02*
X75976D01*
X75299Y35780D01*
Y35949D01*
X75468Y36119D01*
X75807D01*
X75976Y35949D01*
X77897Y21997D02*
Y23012D01*
X77389D01*
X77220Y22843D01*
Y22504D01*
X77389Y22335D01*
X77897D01*
X77558D02*
X77220Y21997D01*
X76204Y23012D02*
X76881D01*
Y22504D01*
X76543Y22674D01*
X76373D01*
X76204Y22504D01*
Y22166D01*
X76373Y21997D01*
X76712D01*
X76881Y22166D01*
X75865Y21997D02*
X75527D01*
X75696D01*
Y23012D01*
X75865Y22843D01*
X78007Y37186D02*
Y38201D01*
X77499D01*
X77330Y38032D01*
Y37694D01*
X77499Y37524D01*
X78007D01*
X77669D02*
X77330Y37186D01*
X76314Y38201D02*
X76992D01*
Y37694D01*
X76653Y37863D01*
X76484D01*
X76314Y37694D01*
Y37355D01*
X76484Y37186D01*
X76822D01*
X76992Y37355D01*
X75976Y38032D02*
X75807Y38201D01*
X75468D01*
X75299Y38032D01*
Y37355D01*
X75468Y37186D01*
X75807D01*
X75976Y37355D01*
Y38032D01*
X104482Y35103D02*
Y36119D01*
X103974D01*
X103805Y35949D01*
Y35611D01*
X103974Y35442D01*
X104482D01*
X104144D02*
X103805Y35103D01*
X102959D02*
Y36119D01*
X103466Y35611D01*
X102789D01*
X102451Y35272D02*
X102281Y35103D01*
X101943D01*
X101774Y35272D01*
Y35949D01*
X101943Y36119D01*
X102281D01*
X102451Y35949D01*
Y35780D01*
X102281Y35611D01*
X101774D01*
X104507Y21997D02*
Y23012D01*
X104000D01*
X103830Y22843D01*
Y22504D01*
X104000Y22335D01*
X104507D01*
X104169D02*
X103830Y21997D01*
X102984D02*
Y23012D01*
X103492Y22504D01*
X102815D01*
X101799Y23012D02*
X102138Y22843D01*
X102476Y22504D01*
Y22166D01*
X102307Y21997D01*
X101968D01*
X101799Y22166D01*
Y22335D01*
X101968Y22504D01*
X102476D01*
X104482Y37186D02*
Y38201D01*
X103974D01*
X103805Y38032D01*
Y37694D01*
X103974Y37524D01*
X104482D01*
X104144D02*
X103805Y37186D01*
X102959D02*
Y38201D01*
X103466Y37694D01*
X102789D01*
X101943Y37186D02*
Y38201D01*
X102451Y37694D01*
X101774D01*
X98996Y35103D02*
Y36119D01*
X98488D01*
X98319Y35949D01*
Y35611D01*
X98488Y35442D01*
X98996D01*
X98657D02*
X98319Y35103D01*
X97472D02*
Y36119D01*
X97980Y35611D01*
X97303D01*
X96964Y35949D02*
X96795Y36119D01*
X96456D01*
X96287Y35949D01*
Y35272D01*
X96456Y35103D01*
X96795D01*
X96964Y35272D01*
Y35949D01*
X99148Y21997D02*
Y23012D01*
X98640D01*
X98471Y22843D01*
Y22504D01*
X98640Y22335D01*
X99148D01*
X98810D02*
X98471Y21997D01*
X98132Y22843D02*
X97963Y23012D01*
X97625D01*
X97455Y22843D01*
Y22674D01*
X97625Y22504D01*
X97794D01*
X97625D01*
X97455Y22335D01*
Y22166D01*
X97625Y21997D01*
X97963D01*
X98132Y22166D01*
X97117D02*
X96947Y21997D01*
X96609D01*
X96440Y22166D01*
Y22843D01*
X96609Y23012D01*
X96947D01*
X97117Y22843D01*
Y22674D01*
X96947Y22504D01*
X96440D01*
X98996Y37186D02*
Y38201D01*
X98488D01*
X98319Y38032D01*
Y37694D01*
X98488Y37524D01*
X98996D01*
X98657D02*
X98319Y37186D01*
X97980Y38032D02*
X97811Y38201D01*
X97472D01*
X97303Y38032D01*
Y37863D01*
X97472Y37694D01*
X97641D01*
X97472D01*
X97303Y37524D01*
Y37355D01*
X97472Y37186D01*
X97811D01*
X97980Y37355D01*
X96964Y38032D02*
X96795Y38201D01*
X96456D01*
X96287Y38032D01*
Y37863D01*
X96456Y37694D01*
X96287Y37524D01*
Y37355D01*
X96456Y37186D01*
X96795D01*
X96964Y37355D01*
Y37524D01*
X96795Y37694D01*
X96964Y37863D01*
Y38032D01*
X96795Y37694D02*
X96456D01*
X93814Y35103D02*
Y36119D01*
X93306D01*
X93137Y35949D01*
Y35611D01*
X93306Y35442D01*
X93814D01*
X93476D02*
X93137Y35103D01*
X92798Y35949D02*
X92629Y36119D01*
X92291D01*
X92121Y35949D01*
Y35780D01*
X92291Y35611D01*
X92460D01*
X92291D01*
X92121Y35442D01*
Y35272D01*
X92291Y35103D01*
X92629D01*
X92798Y35272D01*
X91783Y36119D02*
X91106D01*
Y35949D01*
X91783Y35272D01*
Y35103D01*
X93941Y21997D02*
Y23012D01*
X93433D01*
X93264Y22843D01*
Y22504D01*
X93433Y22335D01*
X93941D01*
X93603D02*
X93264Y21997D01*
X92925Y22843D02*
X92756Y23012D01*
X92418D01*
X92248Y22843D01*
Y22674D01*
X92418Y22504D01*
X92587D01*
X92418D01*
X92248Y22335D01*
Y22166D01*
X92418Y21997D01*
X92756D01*
X92925Y22166D01*
X91402Y21997D02*
Y23012D01*
X91910Y22504D01*
X91233D01*
X93814Y37186D02*
Y38201D01*
X93306D01*
X93137Y38032D01*
Y37694D01*
X93306Y37524D01*
X93814D01*
X93476D02*
X93137Y37186D01*
X92798Y38032D02*
X92629Y38201D01*
X92291D01*
X92121Y38032D01*
Y37863D01*
X92291Y37694D01*
X92460D01*
X92291D01*
X92121Y37524D01*
Y37355D01*
X92291Y37186D01*
X92629D01*
X92798Y37355D01*
X91106Y37186D02*
X91783D01*
X91106Y37863D01*
Y38032D01*
X91275Y38201D01*
X91613D01*
X91783Y38032D01*
X88574Y35103D02*
Y36119D01*
X88066D01*
X87897Y35949D01*
Y35611D01*
X88066Y35442D01*
X88574D01*
X88235D02*
X87897Y35103D01*
X86881D02*
X87558D01*
X86881Y35780D01*
Y35949D01*
X87050Y36119D01*
X87389D01*
X87558Y35949D01*
X86542Y35272D02*
X86373Y35103D01*
X86034D01*
X85865Y35272D01*
Y35949D01*
X86034Y36119D01*
X86373D01*
X86542Y35949D01*
Y35780D01*
X86373Y35611D01*
X85865D01*
X88556Y21997D02*
Y23012D01*
X88048D01*
X87879Y22843D01*
Y22504D01*
X88048Y22335D01*
X88556D01*
X88218D02*
X87879Y21997D01*
X86863D02*
X87541D01*
X86863Y22674D01*
Y22843D01*
X87033Y23012D01*
X87371D01*
X87541Y22843D01*
X86525D02*
X86356Y23012D01*
X86017D01*
X85848Y22843D01*
Y22674D01*
X86017Y22504D01*
X85848Y22335D01*
Y22166D01*
X86017Y21997D01*
X86356D01*
X86525Y22166D01*
Y22335D01*
X86356Y22504D01*
X86525Y22674D01*
Y22843D01*
X86356Y22504D02*
X86017D01*
X88574Y37186D02*
Y38201D01*
X88066D01*
X87897Y38032D01*
Y37694D01*
X88066Y37524D01*
X88574D01*
X88235D02*
X87897Y37186D01*
X86881D02*
X87558D01*
X86881Y37863D01*
Y38032D01*
X87050Y38201D01*
X87389D01*
X87558Y38032D01*
X86542Y38201D02*
X85865D01*
Y38032D01*
X86542Y37355D01*
Y37186D01*
X83240Y35103D02*
Y36119D01*
X82732D01*
X82563Y35949D01*
Y35611D01*
X82732Y35442D01*
X83240D01*
X82901D02*
X82563Y35103D01*
X81547D02*
X82224D01*
X81547Y35780D01*
Y35949D01*
X81716Y36119D01*
X82055D01*
X82224Y35949D01*
X80531Y36119D02*
X80870Y35949D01*
X81208Y35611D01*
Y35272D01*
X81039Y35103D01*
X80700D01*
X80531Y35272D01*
Y35442D01*
X80700Y35611D01*
X81208D01*
X83146Y21997D02*
Y23012D01*
X82638D01*
X82469Y22843D01*
Y22504D01*
X82638Y22335D01*
X83146D01*
X82808D02*
X82469Y21997D01*
X81453D02*
X82130D01*
X81453Y22674D01*
Y22843D01*
X81623Y23012D01*
X81961D01*
X82130Y22843D01*
X80438Y23012D02*
X81115D01*
Y22504D01*
X80776Y22674D01*
X80607D01*
X80438Y22504D01*
Y22166D01*
X80607Y21997D01*
X80945D01*
X81115Y22166D01*
X83240Y37186D02*
Y38201D01*
X82732D01*
X82563Y38032D01*
Y37694D01*
X82732Y37524D01*
X83240D01*
X82901D02*
X82563Y37186D01*
X81547D02*
X82224D01*
X81547Y37863D01*
Y38032D01*
X81716Y38201D01*
X82055D01*
X82224Y38032D01*
X80700Y37186D02*
Y38201D01*
X81208Y37694D01*
X80531D01*
X20523Y11836D02*
Y12852D01*
X20015D01*
X19846Y12683D01*
Y12344D01*
X20015Y12175D01*
X20523D01*
X20185D02*
X19846Y11836D01*
X19508D02*
X19169D01*
X19338D01*
Y12852D01*
X19508Y12683D01*
X18153Y11836D02*
Y12852D01*
X18661Y12344D01*
X17984D01*
X26492Y11836D02*
Y12852D01*
X25984D01*
X25815Y12683D01*
Y12344D01*
X25984Y12175D01*
X26492D01*
X26154D02*
X25815Y11836D01*
X25477D02*
X25138D01*
X25307D01*
Y12852D01*
X25477Y12683D01*
X23953Y11836D02*
X24630D01*
X23953Y12514D01*
Y12683D01*
X24122Y12852D01*
X24461D01*
X24630Y12683D01*
X29519Y71628D02*
Y72644D01*
X29011D01*
X28842Y72474D01*
Y72136D01*
X29011Y71967D01*
X29519D01*
X29180D02*
X28842Y71628D01*
X27995D02*
Y72644D01*
X28503Y72136D01*
X27826D01*
X103742Y70748D02*
X103065D01*
X102896Y70917D01*
Y71256D01*
X103065Y71425D01*
X103742D01*
X103911Y71256D01*
Y70917D01*
X103573Y71086D02*
X103911Y70748D01*
Y70917D02*
X103742Y70748D01*
X103911Y69732D02*
Y70409D01*
X103234Y69732D01*
X103065D01*
X102896Y69901D01*
Y70240D01*
X103065Y70409D01*
X41995Y45720D02*
X42672D01*
Y45212D01*
X42333D01*
X42672D01*
Y44704D01*
X41656Y45720D02*
Y44704D01*
X41148D01*
X40979Y44873D01*
Y45043D01*
X41148Y45212D01*
X41656D01*
X41148D01*
X40979Y45381D01*
Y45550D01*
X41148Y45720D01*
X41656D01*
X39964Y44704D02*
X40641D01*
X39964Y45381D01*
Y45550D01*
X40133Y45720D01*
X40471D01*
X40641Y45550D01*
X37982Y45745D02*
X38659D01*
Y45237D01*
X38320D01*
X38659D01*
Y44729D01*
X37643Y45745D02*
Y44729D01*
X37135D01*
X36966Y44899D01*
Y45068D01*
X37135Y45237D01*
X37643D01*
X37135D01*
X36966Y45407D01*
Y45576D01*
X37135Y45745D01*
X37643D01*
X36627Y44729D02*
X36289D01*
X36458D01*
Y45745D01*
X36627Y45576D01*
X94336Y71856D02*
Y70841D01*
X93828D01*
X93658Y71010D01*
Y71687D01*
X93828Y71856D01*
X94336D01*
X92643Y70841D02*
X93320D01*
X92643Y71518D01*
Y71687D01*
X92812Y71856D01*
X93151D01*
X93320Y71687D01*
X91627Y70841D02*
X92304D01*
X91627Y71518D01*
Y71687D01*
X91796Y71856D01*
X92135D01*
X92304Y71687D01*
X132262Y54330D02*
Y53315D01*
X131754D01*
X131585Y53484D01*
Y54161D01*
X131754Y54330D01*
X132262D01*
X130569Y53315D02*
X131246D01*
X130569Y53992D01*
Y54161D01*
X130738Y54330D01*
X131077D01*
X131246Y54161D01*
X130230Y53315D02*
X129892D01*
X130061D01*
Y54330D01*
X130230Y54161D01*
X104369Y71603D02*
X105385D01*
Y71095D01*
X105215Y70925D01*
X104538D01*
X104369Y71095D01*
Y71603D01*
X105385Y70587D02*
Y70248D01*
Y70418D01*
X104369D01*
X104538Y70587D01*
Y69741D02*
X104369Y69571D01*
Y69233D01*
X104538Y69063D01*
X104707D01*
X104877Y69233D01*
X105046Y69063D01*
X105215D01*
X105385Y69233D01*
Y69571D01*
X105215Y69741D01*
X105046D01*
X104877Y69571D01*
X104707Y69741D01*
X104538D01*
X104877Y69571D02*
Y69233D01*
X39780Y72898D02*
Y71882D01*
X39272D01*
X39103Y72051D01*
Y72728D01*
X39272Y72898D01*
X39780D01*
X38765Y71882D02*
X38426D01*
X38595D01*
Y72898D01*
X38765Y72728D01*
X37918Y71882D02*
X37580D01*
X37749D01*
Y72898D01*
X37918Y72728D01*
X29286Y36576D02*
X28270D01*
Y37084D01*
X28439Y37253D01*
X29117D01*
X29286Y37084D01*
Y36576D01*
X29117Y37592D02*
X29286Y37761D01*
Y38100D01*
X29117Y38269D01*
X28947D01*
X28778Y38100D01*
Y37930D01*
Y38100D01*
X28609Y38269D01*
X28439D01*
X28270Y38100D01*
Y37761D01*
X28439Y37592D01*
X137833Y63381D02*
X138002Y63550D01*
X138341D01*
X138510Y63381D01*
Y62704D01*
X138341Y62535D01*
X138002D01*
X137833Y62704D01*
X137494Y63381D02*
X137325Y63550D01*
X136987D01*
X136817Y63381D01*
Y63212D01*
X136987Y63043D01*
X137156D01*
X136987D01*
X136817Y62873D01*
Y62704D01*
X136987Y62535D01*
X137325D01*
X137494Y62704D01*
X136479Y62535D02*
X136140D01*
X136309D01*
Y63550D01*
X136479Y63381D01*
X138036Y65998D02*
X138205Y66167D01*
X138543D01*
X138713Y65998D01*
Y65320D01*
X138543Y65151D01*
X138205D01*
X138036Y65320D01*
X137697Y65998D02*
X137528Y66167D01*
X137189D01*
X137020Y65998D01*
Y65828D01*
X137189Y65659D01*
X137359D01*
X137189D01*
X137020Y65490D01*
Y65320D01*
X137189Y65151D01*
X137528D01*
X137697Y65320D01*
X136681Y65998D02*
X136512Y66167D01*
X136174D01*
X136004Y65998D01*
Y65320D01*
X136174Y65151D01*
X136512D01*
X136681Y65320D01*
Y65998D01*
X112683Y67471D02*
X112852Y67640D01*
X113191D01*
X113360Y67471D01*
Y66793D01*
X113191Y66624D01*
X112852D01*
X112683Y66793D01*
X111667Y66624D02*
X112345D01*
X111667Y67301D01*
Y67471D01*
X111837Y67640D01*
X112175D01*
X112345Y67471D01*
X111329Y66793D02*
X111160Y66624D01*
X110821D01*
X110652Y66793D01*
Y67471D01*
X110821Y67640D01*
X111160D01*
X111329Y67471D01*
Y67301D01*
X111160Y67132D01*
X110652D01*
X109009Y71611D02*
X108839Y71781D01*
Y72119D01*
X109009Y72288D01*
X109686D01*
X109855Y72119D01*
Y71781D01*
X109686Y71611D01*
X109855Y70596D02*
Y71273D01*
X109178Y70596D01*
X109009D01*
X108839Y70765D01*
Y71103D01*
X109009Y71273D01*
Y70257D02*
X108839Y70088D01*
Y69749D01*
X109009Y69580D01*
X109178D01*
X109347Y69749D01*
X109516Y69580D01*
X109686D01*
X109855Y69749D01*
Y70088D01*
X109686Y70257D01*
X109516D01*
X109347Y70088D01*
X109178Y70257D01*
X109009D01*
X109347Y70088D02*
Y69749D01*
X102171Y51680D02*
X102340Y51511D01*
Y51172D01*
X102171Y51003D01*
X101494D01*
X101324Y51172D01*
Y51511D01*
X101494Y51680D01*
X101324Y52696D02*
Y52019D01*
X102002Y52696D01*
X102171D01*
X102340Y52527D01*
Y52188D01*
X102171Y52019D01*
X102340Y53712D02*
X102171Y53373D01*
X101832Y53035D01*
X101494D01*
X101324Y53204D01*
Y53542D01*
X101494Y53712D01*
X101663D01*
X101832Y53542D01*
Y53035D01*
X106311Y51706D02*
X106480Y51536D01*
Y51198D01*
X106311Y51029D01*
X105634D01*
X105465Y51198D01*
Y51536D01*
X105634Y51706D01*
X105465Y52721D02*
Y52044D01*
X106142Y52721D01*
X106311D01*
X106480Y52552D01*
Y52214D01*
X106311Y52044D01*
X106480Y53737D02*
Y53060D01*
X105972D01*
X106142Y53398D01*
Y53568D01*
X105972Y53737D01*
X105634D01*
X105465Y53568D01*
Y53229D01*
X105634Y53060D01*
X93256Y46135D02*
X93425Y46304D01*
X93764D01*
X93933Y46135D01*
Y45457D01*
X93764Y45288D01*
X93425D01*
X93256Y45457D01*
X92917Y45288D02*
X92579D01*
X92748D01*
Y46304D01*
X92917Y46135D01*
X92071Y45457D02*
X91902Y45288D01*
X91563D01*
X91394Y45457D01*
Y46135D01*
X91563Y46304D01*
X91902D01*
X92071Y46135D01*
Y45965D01*
X91902Y45796D01*
X91394D01*
X88760Y46160D02*
X88929Y46329D01*
X89268D01*
X89437Y46160D01*
Y45483D01*
X89268Y45314D01*
X88929D01*
X88760Y45483D01*
X88422Y45314D02*
X88083D01*
X88252D01*
Y46329D01*
X88422Y46160D01*
X87575D02*
X87406Y46329D01*
X87067D01*
X86898Y46160D01*
Y45991D01*
X87067Y45821D01*
X86898Y45652D01*
Y45483D01*
X87067Y45314D01*
X87406D01*
X87575Y45483D01*
Y45652D01*
X87406Y45821D01*
X87575Y45991D01*
Y46160D01*
X87406Y45821D02*
X87067D01*
X43239Y16747D02*
X43409Y16916D01*
X43747D01*
X43917Y16747D01*
Y16070D01*
X43747Y15900D01*
X43409D01*
X43239Y16070D01*
X42901Y15900D02*
X42562D01*
X42732D01*
Y16916D01*
X42901Y16747D01*
X41547Y15900D02*
Y16916D01*
X42055Y16408D01*
X41377D01*
X45358Y20220D02*
X45527Y20051D01*
Y19712D01*
X45358Y19543D01*
X44681D01*
X44512Y19712D01*
Y20051D01*
X44681Y20220D01*
X44512Y20558D02*
Y20897D01*
Y20728D01*
X45527D01*
X45358Y20558D01*
Y21405D02*
X45527Y21574D01*
Y21913D01*
X45358Y22082D01*
X45189D01*
X45020Y21913D01*
Y21743D01*
Y21913D01*
X44850Y22082D01*
X44681D01*
X44512Y21913D01*
Y21574D01*
X44681Y21405D01*
X31305Y29040D02*
X31475Y29210D01*
X31813D01*
X31982Y29040D01*
Y28363D01*
X31813Y28194D01*
X31475D01*
X31305Y28363D01*
X30967Y28194D02*
X30628D01*
X30797D01*
Y29210D01*
X30967Y29040D01*
X29443Y28194D02*
X30120D01*
X29443Y28871D01*
Y29040D01*
X29613Y29210D01*
X29951D01*
X30120Y29040D01*
X40754Y52002D02*
X40923Y52171D01*
X41262D01*
X41431Y52002D01*
Y51325D01*
X41262Y51156D01*
X40923D01*
X40754Y51325D01*
X40416Y51156D02*
X40077D01*
X40246D01*
Y52171D01*
X40416Y52002D01*
X39569Y51156D02*
X39231D01*
X39400D01*
Y52171D01*
X39569Y52002D01*
X36563Y55025D02*
X36732Y55194D01*
X37071D01*
X37240Y55025D01*
Y54348D01*
X37071Y54178D01*
X36732D01*
X36563Y54348D01*
X36224Y54178D02*
X35886D01*
X36055D01*
Y55194D01*
X36224Y55025D01*
X35378D02*
X35208Y55194D01*
X34870D01*
X34701Y55025D01*
Y54348D01*
X34870Y54178D01*
X35208D01*
X35378Y54348D01*
Y55025D01*
X41897Y30285D02*
X42066Y30454D01*
X42405D01*
X42574Y30285D01*
Y29608D01*
X42405Y29439D01*
X42066D01*
X41897Y29608D01*
X41559Y30285D02*
X41389Y30454D01*
X41051D01*
X40881Y30285D01*
Y30116D01*
X41051Y29946D01*
X40881Y29777D01*
Y29608D01*
X41051Y29439D01*
X41389D01*
X41559Y29608D01*
Y29777D01*
X41389Y29946D01*
X41559Y30116D01*
Y30285D01*
X41389Y29946D02*
X41051D01*
X23465Y46109D02*
X23634Y46279D01*
X23973D01*
X24142Y46109D01*
Y45432D01*
X23973Y45263D01*
X23634D01*
X23465Y45432D01*
X22619Y45263D02*
Y46279D01*
X23126Y45771D01*
X22449D01*
X20569Y46059D02*
X20739Y46228D01*
X21077D01*
X21246Y46059D01*
Y45381D01*
X21077Y45212D01*
X20739D01*
X20569Y45381D01*
X20231Y46059D02*
X20061Y46228D01*
X19723D01*
X19554Y46059D01*
Y45889D01*
X19723Y45720D01*
X19892D01*
X19723D01*
X19554Y45551D01*
Y45381D01*
X19723Y45212D01*
X20061D01*
X20231Y45381D01*
D12*
X102844Y66376D02*
G03*
X102844Y66376I-125J0D01*
G01*
X17377Y18306D02*
G03*
X17377Y18306I-125J0D01*
G01*
D14*
X48743Y18593D02*
X50317D01*
X48743Y20117D02*
X50317D01*
X61290Y18847D02*
X62865D01*
X61290Y20371D02*
X62865D01*
X43129Y69164D02*
Y70028D01*
X44399Y69164D02*
Y70028D01*
X126907Y52899D02*
Y54899D01*
X126807Y52899D02*
Y54899D01*
X127889Y54699D02*
Y54899D01*
X124289D02*
X127889D01*
X124289Y54699D02*
Y54899D01*
Y52899D02*
Y53099D01*
Y52899D02*
X127889D01*
Y53099D01*
D15*
X40419Y22101D02*
X40719D01*
X37394D02*
X37669D01*
X40444Y16026D02*
X40719D01*
X37394D02*
X37644D01*
X37394Y20249D02*
X40719Y20249D01*
X37394Y16026D02*
Y22101D01*
X40719Y16026D02*
Y22101D01*
X19097Y16446D02*
Y27446D01*
X32947Y16446D02*
Y27446D01*
X19097Y16446D02*
X32947D01*
X19097Y27446D02*
X32947D01*
X22076Y46780D02*
Y50280D01*
X24376Y46780D02*
Y50280D01*
X22076Y50280D02*
X24376D01*
X19282Y46780D02*
Y50280D01*
X21582Y46780D02*
Y50280D01*
X19282Y50280D02*
X21582D01*
X90582Y25679D02*
Y27979D01*
X90582D02*
X94082D01*
X90582Y25679D02*
X94082D01*
X101336D02*
Y27979D01*
X101336D02*
X104836D01*
X101336Y25679D02*
X104836D01*
X95952D02*
Y27979D01*
X95952D02*
X99452D01*
X95952Y25679D02*
X99452D01*
X85334D02*
Y27979D01*
X85334D02*
X88834D01*
X85334Y25679D02*
X88834D01*
X80000D02*
Y27979D01*
X80000D02*
X83500D01*
X80000Y25679D02*
X83500D01*
X74768D02*
Y27979D01*
X74768D02*
X78268D01*
X74768Y25679D02*
X78268D01*
X41685Y23051D02*
X43985D01*
Y19551D02*
Y23051D01*
X41685Y19551D02*
Y23051D01*
X22839Y13448D02*
Y15748D01*
X26814Y13448D02*
Y15748D01*
X22870Y13448D02*
X26814D01*
X22845Y15748D02*
X26814D01*
X16815Y13448D02*
Y15748D01*
X20790Y13448D02*
Y15748D01*
X16845Y13448D02*
X20790D01*
X16820Y15748D02*
X20790D01*
X21388Y32053D02*
X27463D01*
X21388Y28728D02*
X27463D01*
X23239Y28728D02*
X23239Y32053D01*
X27463Y28728D02*
Y28978D01*
Y31778D02*
Y32053D01*
X21388Y28728D02*
Y29003D01*
Y31753D02*
Y32053D01*
X123352Y52389D02*
X127322D01*
X123377Y50089D02*
X127322D01*
X127322D02*
Y52389D01*
X123347Y50089D02*
Y52389D01*
X35586Y34039D02*
Y34339D01*
Y31014D02*
Y31289D01*
X41661Y34064D02*
Y34339D01*
Y31014D02*
Y31264D01*
X37438Y31014D02*
X37438Y34339D01*
X35586Y31014D02*
X41661D01*
X35586Y34339D02*
X41661D01*
X36420Y40154D02*
Y44123D01*
X38720Y40179D02*
Y44123D01*
X36420Y44123D02*
X38720D01*
X36420Y40148D02*
X38720D01*
X40357Y40154D02*
Y44123D01*
X42657Y40179D02*
Y44123D01*
X40357Y44123D02*
X42657D01*
X40357Y40148D02*
X42657D01*
X35459Y50041D02*
Y50341D01*
Y47016D02*
Y47291D01*
X41534Y50066D02*
Y50341D01*
Y47016D02*
Y47266D01*
X37311Y47016D02*
X37311Y50341D01*
X35459Y47016D02*
X41534D01*
X35459Y50341D02*
X41534D01*
X33906Y53746D02*
X37406D01*
X33906Y51446D02*
X37406D01*
X37406D02*
Y53746D01*
X23130Y71526D02*
X27099D01*
X23130Y73826D02*
X27074D01*
X23130Y71526D02*
Y73826D01*
X27105Y71526D02*
Y73826D01*
D16*
X95152Y71044D02*
X95762D01*
X95152Y70358D02*
Y71044D01*
X97210Y70333D02*
Y71044D01*
X96575D02*
X97210D01*
Y65507D02*
Y66192D01*
X96600Y65507D02*
X97210D01*
X95152D02*
X95787D01*
X95152D02*
Y66218D01*
X105846Y65507D02*
Y66218D01*
Y65507D02*
X106481D01*
X107293D02*
X107903D01*
Y66192D01*
X107268Y71044D02*
X107903D01*
Y70333D02*
Y71044D01*
X105846Y70358D02*
Y71044D01*
X106455D01*
X115167D02*
X115777D01*
X115167Y70358D02*
Y71044D01*
X117225Y70333D02*
Y71044D01*
X116590D02*
X117225D01*
Y65507D02*
Y66192D01*
X116615Y65507D02*
X117225D01*
X115167D02*
X115802D01*
X115167D02*
Y66218D01*
D19*
X40586Y61874D02*
X41186D01*
X40586Y61374D02*
Y62374D01*
X40186Y61374D02*
Y62374D01*
X39586Y61874D02*
X40186D01*
X45857Y31420D02*
Y31674D01*
X45603D02*
X46111D01*
X45603Y31928D02*
X46111D01*
X45857D02*
Y32182D01*
X45755Y27305D02*
Y27559D01*
X45501D02*
X46009D01*
X45501Y27813D02*
X46009D01*
X45755D02*
Y28067D01*
X52045Y18390D02*
Y20345D01*
X47015D02*
X52045D01*
X47015Y18390D02*
Y20345D01*
Y18390D02*
X52045D01*
X64592Y18644D02*
Y20599D01*
X59563D02*
X64592D01*
X59563Y18644D02*
Y20599D01*
Y18644D02*
X64592D01*
X54356Y63538D02*
Y64138D01*
X53856D02*
X54856D01*
X53856Y64538D02*
X54856D01*
X54356D02*
Y65138D01*
X33931Y61874D02*
X34531D01*
X33931Y61374D02*
Y62374D01*
X33531Y61374D02*
Y62374D01*
X32931Y61874D02*
X33531D01*
X44628Y67818D02*
Y71374D01*
X42926Y67818D02*
X44628D01*
X42926D02*
Y71374D01*
X44628D01*
X98556Y67132D02*
Y67259D01*
X98810Y67386D01*
X98302Y67640D02*
X98810Y67386D01*
X98302Y67640D02*
X98556Y67767D01*
Y67894D01*
X84027Y66218D02*
X84154D01*
X84281Y65964D01*
X84535Y66472D01*
X84662Y66218D01*
X84789D01*
X87964Y61900D02*
Y62027D01*
X88218Y62154D01*
X87710Y62408D02*
X88218Y62154D01*
X87710Y62408D02*
X87964Y62535D01*
Y62662D01*
X113186Y60985D02*
Y61112D01*
X113440Y61239D01*
X112932Y61493D02*
X113440Y61239D01*
X112932Y61493D02*
X113186Y61620D01*
Y61747D01*
X98937Y61798D02*
Y61925D01*
X99191Y62052D01*
X98683Y62306D02*
X99191Y62052D01*
X98683Y62306D02*
X98937Y62433D01*
Y62560D01*
X103722Y52248D02*
Y52502D01*
X103468D02*
X103976D01*
X103468Y52756D02*
X103976D01*
X103722D02*
Y53010D01*
X100140Y52248D02*
Y52502D01*
X99886D02*
X100394D01*
X99886Y52756D02*
X100394D01*
X100140D02*
Y53010D01*
X93527Y61798D02*
Y61925D01*
X93781Y62052D01*
X93273Y62306D02*
X93781Y62052D01*
X93273Y62306D02*
X93527Y62433D01*
Y62560D01*
X101604Y61798D02*
Y61925D01*
X101858Y62052D01*
X101350Y62306D02*
X101858Y62052D01*
X101350Y62306D02*
X101604Y62433D01*
Y62560D01*
X109011Y67640D02*
Y67894D01*
X108757Y67640D02*
X109265D01*
X108757Y67386D02*
X109265D01*
X109011Y67132D02*
Y67386D01*
X119892Y60477D02*
X120019D01*
X119765Y60731D02*
X119892Y60477D01*
X119511Y60223D02*
X119765Y60731D01*
X119384Y60477D02*
X119511Y60223D01*
X119257Y60477D02*
X119384D01*
X121644Y67767D02*
Y67894D01*
X121390Y67640D02*
X121644Y67767D01*
X121390Y67640D02*
X121898Y67386D01*
X121644Y67259D02*
X121898Y67386D01*
X121644Y67132D02*
Y67259D01*
X119866Y63119D02*
X119993D01*
X119739Y63373D02*
X119866Y63119D01*
X119485Y62865D02*
X119739Y63373D01*
X119358Y63119D02*
X119485Y62865D01*
X119231Y63119D02*
X119358D01*
X118876Y67132D02*
Y67259D01*
X119130Y67386D01*
X118622Y67640D02*
X119130Y67386D01*
X118622Y67640D02*
X118876Y67767D01*
Y67894D01*
X92180Y29616D02*
X92307D01*
X92434Y29362D01*
X92688Y29870D01*
X92815Y29616D01*
X92942D01*
X125759Y53492D02*
Y54254D01*
Y53492D02*
X126394Y53873D01*
X125759Y54254D02*
X126394Y53873D01*
X125759Y54254D02*
X126242Y53848D01*
X125810Y53645D02*
X126242Y53848D01*
X125810Y53645D02*
X125861Y54127D01*
X126089Y53873D01*
X125912Y53797D02*
X126089Y53873D01*
X125912Y53797D02*
X125937Y53950D01*
X126394Y53492D02*
Y54254D01*
X81639Y24409D02*
X81766D01*
X81893Y24155D01*
X82147Y24663D01*
X82274Y24409D01*
X82401D01*
X81639Y29616D02*
X81766D01*
X81893Y29362D01*
X82147Y29870D01*
X82274Y29616D01*
X82401D01*
X82249Y31775D02*
X82376D01*
X82122Y32029D02*
X82249Y31775D01*
X81868Y31521D02*
X82122Y32029D01*
X81741Y31775D02*
X81868Y31521D01*
X81614Y31775D02*
X81741D01*
X76305Y24409D02*
X76432D01*
X76559Y24155D01*
X76813Y24663D01*
X76940Y24409D01*
X77067D01*
X87786Y43932D02*
X88040D01*
Y43678D02*
Y44186D01*
X88294Y43678D02*
Y44186D01*
Y43932D02*
X88548D01*
X92790Y43926D02*
X93044D01*
X92790Y43672D02*
Y44180D01*
X92536Y43672D02*
Y44180D01*
X92282Y43926D02*
X92536D01*
X112424Y65415D02*
X112678D01*
X112424Y65161D02*
Y65669D01*
X112170Y65161D02*
Y65669D01*
X111916Y65415D02*
X112170D01*
X87583Y31775D02*
X87710D01*
X87456Y32029D02*
X87583Y31775D01*
X87202Y31521D02*
X87456Y32029D01*
X87075Y31775D02*
X87202Y31521D01*
X86948Y31775D02*
X87075D01*
X109122Y63119D02*
X109249D01*
X108995Y63373D02*
X109122Y63119D01*
X108741Y62865D02*
X108995Y63373D01*
X108614Y63119D02*
X108741Y62865D01*
X108487Y63119D02*
X108614D01*
X109122Y60477D02*
X109249D01*
X108995Y60731D02*
X109122Y60477D01*
X108741Y60223D02*
X108995Y60731D01*
X108614Y60477D02*
X108741Y60223D01*
X108487Y60477D02*
X108614D01*
X103483Y24409D02*
X103610D01*
X103356Y24663D02*
X103483Y24409D01*
X103102Y24155D02*
X103356Y24663D01*
X102975Y24409D02*
X103102Y24155D01*
X102848Y24409D02*
X102975D01*
X103483Y29616D02*
X103610D01*
X103356Y29870D02*
X103483Y29616D01*
X103102Y29362D02*
X103356Y29870D01*
X102975Y29616D02*
X103102Y29362D01*
X102848Y29616D02*
X102975D01*
X102874Y31775D02*
X103001D01*
X103128Y31521D01*
X103382Y32029D01*
X103509Y31775D01*
X103636D01*
X92942Y24409D02*
X93069D01*
X92815Y24663D02*
X92942Y24409D01*
X92561Y24155D02*
X92815Y24663D01*
X92434Y24409D02*
X92561Y24155D01*
X92307Y24409D02*
X92434D01*
X92231Y31775D02*
X92358D01*
X92485Y31521D01*
X92739Y32029D01*
X92866Y31775D01*
X92993D01*
X98149Y24409D02*
X98276D01*
X98022Y24663D02*
X98149Y24409D01*
X97768Y24155D02*
X98022Y24663D01*
X97641Y24409D02*
X97768Y24155D01*
X97514Y24409D02*
X97641D01*
X98149Y29616D02*
X98276D01*
X98022Y29870D02*
X98149Y29616D01*
X97768Y29362D02*
X98022Y29870D01*
X97641Y29616D02*
X97768Y29362D01*
X97514Y29616D02*
X97641D01*
X97565Y31775D02*
X97692D01*
X97819Y31521D01*
X98073Y32029D01*
X98200Y31775D01*
X98327D01*
X76940Y29616D02*
X77067D01*
X76813Y29870D02*
X76940Y29616D01*
X76559Y29362D02*
X76813Y29870D01*
X76432Y29616D02*
X76559Y29362D01*
X76305Y29616D02*
X76432D01*
X76305Y31775D02*
X76432D01*
X76559Y31521D01*
X76813Y32029D01*
X76940Y31775D01*
X77067D01*
X87608Y24409D02*
X87735D01*
X87481Y24663D02*
X87608Y24409D01*
X87227Y24155D02*
X87481Y24663D01*
X87100Y24409D02*
X87227Y24155D01*
X86973Y24409D02*
X87100D01*
X87608Y29616D02*
X87735D01*
X87481Y29870D02*
X87608Y29616D01*
X87227Y29362D02*
X87481Y29870D01*
X87100Y29616D02*
X87227Y29362D01*
X86973Y29616D02*
X87100D01*
D24*
X95203Y71628D02*
X97210D01*
X30785Y35712D02*
X32334Y35738D01*
X38091Y24054D02*
X40098D01*
X115206Y71628D02*
X117212D01*
X30636Y73127D02*
Y75133D01*
X128956Y54635D02*
X128981Y53086D01*
X105922Y71628D02*
X107928D01*
X19663Y29464D02*
Y31471D01*
X33913Y31648D02*
Y33655D01*
X33456Y47803D02*
Y49809D01*
D25*
X30347Y41947D02*
X30497Y42097D01*
X30322Y41947D02*
X30347D01*
X32647Y42097D02*
X32772Y41972D01*
Y41947D02*
Y41972D01*
Y41947D02*
X32822D01*
X30322Y37022D02*
X30472Y36872D01*
X30322Y37022D02*
Y37047D01*
X32672Y36872D02*
X32822Y37022D01*
X30322Y38734D02*
X32797D01*
X30372Y38534D02*
X32797Y38534D01*
X32822Y37022D02*
Y41947D01*
X30322Y37047D02*
Y41947D01*
X32047Y75367D02*
X36947D01*
X32022Y72867D02*
X36947D01*
X33534Y75317D02*
X33534Y72892D01*
X33734D02*
Y75367D01*
X31872Y73017D02*
X32022Y72867D01*
Y75367D02*
X32047D01*
X31872Y75217D02*
X32022Y75367D01*
X36947Y72867D02*
Y72917D01*
X36972D01*
X37097Y73042D01*
X36947Y75342D02*
Y75367D01*
Y75342D02*
X37097Y75192D01*
D26*
X132152Y65128D02*
X133062D01*
X132152Y66748D02*
X133062D01*
X134662D02*
X135572D01*
X134662Y65128D02*
X135572D01*
Y66748D01*
X132152Y65128D02*
Y66748D01*
X132126Y62461D02*
X133036D01*
X132126Y64081D02*
X133036D01*
X134636D02*
X135546D01*
X134636Y62461D02*
X135546D01*
Y64081D01*
X132126Y62461D02*
Y64081D01*
D186*
X96194Y68847D02*
D03*
X106887D02*
D03*
X116209D02*
D03*
M02*
